<?xml version="1.0" encoding="UTF-8"?>
<svg xmlns="http://www.w3.org/2000/svg" xmlns:xlink="http://www.w3.org/1999/xlink" width="375pt" height="374.999991pt" viewBox="0 0 375 374.999991" version="1.2">
<defs>
<clipPath id="clip1">
  <path d="M 112.5 112.5 L 262.5 112.5 L 262.5 262.5 L 112.5 262.5 Z M 112.5 112.5 "/>
</clipPath>
</defs>
<g id="surface1">
<g clip-path="url(#clip1)" clip-rule="nonzero">
<path style=" stroke:none;fill-rule:nonzero;fill:rgb(0%,0%,0%);fill-opacity:1;" d="M 187.5 112.546875 C 146.152344 112.546875 112.515625 146.183594 112.515625 187.53125 C 112.515625 228.878906 146.152344 262.515625 187.5 262.515625 C 228.847656 262.515625 262.484375 228.878906 262.484375 187.53125 C 262.484375 146.183594 228.847656 112.546875 187.5 112.546875 "/>
</g>
<path style=" stroke:none;fill-rule:nonzero;fill:rgb(100%,100%,100%);fill-opacity:1;" d="M 158.636719 173.128906 L 216.363281 173.128906 C 219.765625 173.128906 222.53125 170.363281 222.53125 166.960938 C 222.53125 163.5625 219.765625 160.792969 216.363281 160.792969 L 158.636719 160.792969 C 155.234375 160.792969 152.46875 163.5625 152.46875 166.960938 C 152.46875 170.363281 155.234375 173.128906 158.636719 173.128906 "/>
<path style=" stroke:none;fill-rule:nonzero;fill:rgb(100%,100%,100%);fill-opacity:1;" d="M 216.363281 181.363281 L 158.636719 181.363281 C 155.234375 181.363281 152.46875 184.128906 152.46875 187.53125 C 152.46875 190.933594 155.234375 193.699219 158.636719 193.699219 L 216.363281 193.699219 C 219.765625 193.699219 222.53125 190.933594 222.53125 187.53125 C 222.53125 184.128906 219.765625 181.363281 216.363281 181.363281 "/>
<path style=" stroke:none;fill-rule:nonzero;fill:rgb(100%,100%,100%);fill-opacity:1;" d="M 216.363281 201.933594 L 158.636719 201.933594 C 155.234375 201.933594 152.46875 204.699219 152.46875 208.101562 C 152.46875 211.5 155.234375 214.269531 158.636719 214.269531 L 216.363281 214.269531 C 219.765625 214.269531 222.53125 211.5 222.53125 208.101562 C 222.53125 204.699219 219.765625 201.933594 216.363281 201.933594 "/>
</g>
</svg>
