<?xml version="1.0" encoding="UTF-8"?>
<svg xmlns="http://www.w3.org/2000/svg" xmlns:xlink="http://www.w3.org/1999/xlink" width="375pt" height="374.999991pt" viewBox="0 0 375 374.999991" version="1.2">
<defs>
<clipPath id="clip1">
  <path d="M 21.425781 68 L 341 68 L 341 307 L 21.425781 307 Z M 21.425781 68 "/>
</clipPath>
</defs>
<g id="surface1">
<g clip-path="url(#clip1)" clip-rule="nonzero">
<path style=" stroke:none;fill-rule:nonzero;fill:rgb(0%,0%,0%);fill-opacity:1;" d="M 336.96875 213.707031 C 342.191406 179.175781 317.574219 162.035156 312.847656 159.054688 C 300.414062 131.230469 267.59375 131.230469 262.371094 131.480469 C 250.683594 125.765625 236.511719 122.785156 219.851562 122.785156 C 185.535156 122.785156 153.210938 135.453125 150.226562 136.449219 L 110.691406 146.386719 C 105.46875 145.144531 105.222656 141.914062 105.222656 141.417969 C 105.222656 140.175781 104.226562 138.933594 102.984375 138.683594 C 101.738281 138.683594 100.496094 139.679688 100.25 140.921875 C 100 142.660156 100.746094 145.640625 103.230469 147.875 L 100 148.621094 C 96.519531 147.628906 96.765625 144.644531 96.765625 144.148438 C 97.015625 142.90625 96.019531 141.664062 94.527344 141.417969 C 93.285156 141.167969 91.792969 142.164062 91.792969 143.40625 C 91.546875 145.144531 92.042969 148.125 94.03125 150.609375 L 64.9375 158.0625 C 62.949219 158.558594 62.453125 159.800781 62.203125 160.546875 C 60.710938 160.546875 58.972656 160.792969 57.230469 160.792969 C 57.230469 160.546875 57.230469 160.296875 57.230469 160.296875 C 57.480469 159.054688 57.976562 157.5625 58.972656 156.320312 C 57.976562 155.824219 57.230469 155.328125 56.484375 154.832031 C 43.304688 146.882812 37.835938 127.753906 40.570312 113.84375 C 44.796875 91.734375 67.675781 81.796875 77.371094 78.566406 C 105.71875 69.128906 126.855469 73.847656 155.945312 80.304688 L 158.433594 80.804688 C 167.136719 82.789062 176.585938 85.523438 187.027344 88.503906 C 206.671875 94.21875 226.8125 100.179688 243.972656 100.925781 C 256.402344 101.421875 279.527344 99.929688 297.679688 85.027344 C 298.675781 84.28125 298.921875 82.542969 297.929688 81.546875 C 297.183594 80.554688 295.441406 80.304688 294.449219 81.300781 C 277.789062 94.964844 255.65625 96.453125 243.972656 95.957031 C 227.558594 95.460938 207.417969 89.496094 188.273438 83.785156 C 178.078125 80.804688 168.132812 77.820312 159.429688 75.835938 L 156.941406 75.339844 C 128.097656 69.128906 105.46875 63.910156 75.632812 73.847656 C 53.253906 81.300781 38.582031 95.460938 35.347656 112.847656 C 32.363281 128.25 38.582031 149.863281 53.5 159.054688 C 54.496094 159.550781 55.488281 160.296875 56.484375 160.792969 C 47.285156 161.539062 35.347656 163.03125 27.890625 168.742188 C 24.65625 171.226562 22.417969 175.203125 21.921875 179.671875 C 21.425781 185.136719 22.917969 190.851562 26.398438 194.828125 C 31.121094 200.292969 38.085938 204.019531 46.539062 205.261719 C 57.480469 206.75 69.664062 205.261719 81.597656 203.769531 C 103.230469 201.039062 125.609375 198.054688 140.777344 213.953125 C 146.746094 220.414062 148.734375 236.0625 142.519531 243.765625 C 137.546875 249.726562 128.097656 253.949219 117.15625 254.695312 C 105.222656 255.441406 94.03125 252.210938 87.816406 246.25 C 86.820312 245.253906 85.328125 245.253906 84.335938 246.25 C 83.339844 247.242188 83.339844 248.734375 84.335938 249.726562 C 91.046875 255.9375 101.738281 259.664062 113.425781 259.664062 C 114.671875 259.664062 115.914062 259.664062 117.40625 259.414062 C 130.085938 258.671875 140.53125 253.949219 146.496094 246.746094 C 154.453125 236.808594 151.96875 218.675781 144.507812 210.476562 C 127.847656 192.589844 103.976562 195.570312 81.101562 198.554688 C 68.917969 200.042969 57.726562 201.535156 47.53125 200.042969 C 40.570312 199.050781 34.355469 195.820312 30.625 191.347656 C 28.136719 188.367188 26.894531 184.144531 27.390625 179.921875 C 27.640625 176.691406 29.132812 173.960938 31.371094 172.46875 C 39.328125 166.507812 54.992188 165.511719 63.199219 165.265625 C 64.191406 165.265625 64.9375 165.265625 65.683594 165.015625 C 94.03125 180.171875 155.449219 181.660156 162.164062 181.660156 C 179.570312 189.113281 199.710938 192.839844 222.089844 192.839844 C 236.261719 192.839844 246.953125 191.347656 250.933594 190.605469 C 255.65625 197.3125 270.824219 206.253906 275.550781 208.738281 L 283.753906 225.382812 L 281.519531 246.25 C 276.296875 249.976562 269.832031 260.90625 268.089844 263.886719 C 259.886719 267.613281 250.1875 277.300781 247.203125 280.53125 L 228.058594 275.066406 C 212.390625 271.089844 193.742188 270.84375 193.246094 270.84375 C 190.011719 270.84375 187.773438 271.835938 186.53125 273.574219 C 185.535156 275.066406 185.785156 277.054688 186.28125 278.046875 C 196.726562 301.148438 216.617188 306.117188 231.289062 306.117188 C 241.234375 306.117188 249.191406 303.882812 251.929688 303.136719 C 256.652344 305.371094 261.875 306.613281 267.097656 306.613281 C 278.035156 306.613281 286.242188 301.398438 288.480469 299.90625 C 314.835938 294.195312 324.535156 268.109375 326.277344 262.394531 C 347.910156 249.480469 338.707031 218.675781 336.96875 213.707031 Z M 331.996094 213.707031 C 331.996094 213.953125 331.996094 214.203125 331.996094 214.453125 C 315.582031 230.597656 294.449219 226.375 288.730469 224.886719 C 288.730469 224.636719 288.730469 224.386719 288.480469 224.140625 L 286.738281 220.664062 C 291.710938 218.675781 293.949219 215.445312 294.199219 214.949219 C 294.945312 213.707031 294.449219 212.214844 293.453125 211.472656 C 292.210938 210.726562 290.71875 211.222656 289.972656 212.214844 C 289.972656 212.214844 288.480469 214.699219 284.5 215.941406 L 279.777344 206.503906 C 288.230469 202.527344 311.109375 189.113281 312.847656 165.265625 C 320.308594 170.730469 336.472656 186.132812 331.996094 213.707031 Z M 222.089844 188.121094 C 218.359375 188.121094 214.628906 187.871094 210.898438 187.621094 C 214.132812 179.921875 211.148438 172.964844 211.148438 172.71875 C 210.652344 171.476562 209.160156 170.980469 207.914062 171.476562 C 206.671875 171.972656 206.175781 173.464844 206.671875 174.703125 C 206.671875 174.953125 209.160156 181.164062 205.679688 187.375 C 190.261719 185.882812 176.089844 182.40625 163.902344 177.1875 C 152.964844 170.234375 146.25 161.042969 146.25 160.792969 C 145.503906 159.800781 144.011719 159.304688 142.769531 160.296875 C 141.523438 161.042969 141.277344 162.53125 142.269531 163.773438 C 142.519531 164.023438 146.996094 170.480469 154.703125 176.691406 C 136.800781 175.945312 93.285156 172.964844 70.160156 161.789062 L 151.71875 141.167969 C 151.71875 141.167969 151.96875 141.167969 151.96875 141.167969 C 152.21875 140.921875 185.535156 127.753906 219.851562 127.753906 C 235.515625 127.753906 248.945312 130.488281 259.886719 136.199219 C 260.382812 138.1875 264.859375 165.511719 251.429688 185.386719 C 251.183594 185.636719 251.183594 185.882812 251.183594 186.132812 C 248.445312 186.378906 237.257812 188.121094 222.089844 188.121094 Z M 255.160156 188.367188 C 255.160156 188.367188 255.410156 188.121094 255.410156 188.121094 C 268.585938 168.742188 265.851562 143.652344 264.859375 136.945312 C 273.5625 137.195312 298.425781 139.429688 308.125 161.539062 C 308.125 161.789062 307.875 162.035156 307.875 162.53125 C 307.875 188.367188 279.03125 201.78125 275.054688 203.519531 C 272.816406 202.28125 270.578125 200.789062 268.089844 199.296875 C 272.316406 195.074219 272.816406 191.347656 272.816406 190.851562 C 273.0625 189.609375 272.070312 188.367188 270.578125 188.121094 C 269.332031 187.871094 268.089844 188.863281 267.84375 190.355469 C 267.84375 190.355469 267.34375 193.089844 263.863281 196.316406 C 260.132812 193.335938 256.652344 190.355469 255.160156 188.367188 Z M 192.746094 280.035156 C 195.730469 282.269531 200.207031 285.5 205.429688 287.238281 C 206.671875 287.734375 208.164062 286.988281 208.660156 285.746094 C 209.160156 284.503906 208.414062 283.015625 207.171875 282.519531 C 202.695312 280.78125 198.46875 278.046875 195.980469 276.058594 C 199.710938 276.058594 213.882812 276.804688 226.8125 280.035156 L 246.207031 285.5 C 245.960938 288.730469 245.960938 293.695312 248.945312 298.914062 C 245.460938 299.90625 238.996094 301.148438 231.539062 301.148438 C 219.105469 301.148438 202.695312 297.421875 192.746094 280.035156 Z M 267.097656 301.644531 C 262.867188 301.644531 258.640625 300.652344 254.664062 298.914062 C 249.191406 291.957031 251.429688 284.257812 251.429688 284.007812 C 251.429688 283.761719 251.429688 283.761719 251.429688 283.511719 C 252.425781 282.519531 253.667969 281.277344 255.410156 279.785156 C 255.65625 281.523438 256.402344 283.261719 257.398438 284.257812 C 258.394531 285.25 259.886719 285.25 260.878906 284.257812 C 261.875 283.261719 261.875 281.773438 260.878906 280.78125 C 260.382812 280.28125 260.132812 277.796875 260.132812 275.5625 C 262.621094 273.574219 265.355469 271.589844 267.84375 270.097656 C 268.339844 276.308594 271.074219 288.976562 282.761719 297.671875 C 279.527344 299.410156 274.058594 301.644531 267.097656 301.644531 Z M 287.984375 294.9375 C 272.316406 285.003906 272.816406 267.117188 272.816406 266.371094 C 273.5625 265.128906 274.554688 263.636719 275.300781 261.898438 C 276.296875 263.886719 277.789062 265.625 279.777344 266.621094 C 281.019531 267.117188 282.511719 266.621094 283.011719 265.378906 C 283.507812 264.136719 283.011719 262.644531 281.765625 262.148438 C 280.273438 261.402344 279.03125 258.917969 278.535156 256.929688 C 280.273438 254.445312 282.265625 251.964844 283.753906 250.722656 C 287.734375 254.945312 298.425781 263.886719 315.085938 263.886719 C 316.828125 263.886719 318.566406 263.886719 320.308594 263.636719 C 317.324219 271.835938 307.875 290.21875 287.984375 294.9375 Z M 323.292969 258.421875 C 302.15625 262.394531 289.476562 249.726562 286.492188 246.496094 L 286.988281 242.027344 C 290.964844 243.515625 293.949219 243.765625 295.195312 243.765625 C 296.6875 243.765625 298.179688 242.769531 298.179688 241.03125 C 298.179688 239.789062 296.933594 238.546875 295.441406 238.796875 C 295.441406 238.796875 291.960938 239.046875 287.484375 236.808594 L 288.230469 229.605469 C 290.96875 230.351562 295.941406 231.34375 301.90625 231.34375 C 311.109375 231.34375 323.042969 229.109375 333.488281 219.667969 C 335.972656 229.109375 338.957031 249.480469 323.292969 258.421875 Z M 323.292969 258.421875 "/>
</g>
<path style=" stroke:none;fill-rule:nonzero;fill:rgb(0%,0%,0%);fill-opacity:1;" d="M 111.6875 155.078125 C 110.441406 155.078125 109.199219 156.074219 109.199219 157.5625 C 109.199219 159.054688 110.441406 160.046875 111.6875 160.046875 C 113.179688 160.046875 114.171875 158.804688 114.171875 157.5625 C 114.171875 156.074219 113.179688 155.078125 111.6875 155.078125 Z M 111.6875 155.078125 "/>
<path style=" stroke:none;fill-rule:nonzero;fill:rgb(0%,0%,0%);fill-opacity:1;" d="M 229.050781 135.453125 C 220.847656 133.964844 213.636719 135.207031 213.386719 135.207031 C 212.144531 135.453125 211.148438 136.695312 211.398438 138.1875 C 211.644531 139.429688 212.890625 140.421875 214.382812 140.175781 C 214.382812 140.175781 221.09375 139.179688 228.554688 140.421875 C 228.804688 140.421875 231.289062 140.421875 231.539062 138.4375 C 231.289062 136.945312 230.292969 135.703125 229.050781 135.453125 Z M 229.050781 135.453125 "/>
<path style=" stroke:none;fill-rule:nonzero;fill:rgb(0%,0%,0%);fill-opacity:1;" d="M 161.914062 187.125 L 152.964844 189.609375 C 152.714844 189.609375 152.21875 189.859375 151.96875 190.105469 L 142.519531 198.304688 C 141.523438 199.296875 141.277344 200.789062 142.269531 201.78125 C 143.265625 202.777344 144.757812 202.777344 145.753906 202.03125 L 154.953125 194.082031 L 169.871094 189.859375 C 167.136719 189.113281 164.402344 188.121094 161.914062 187.125 Z M 161.914062 187.125 "/>
<path style=" stroke:none;fill-rule:nonzero;fill:rgb(0%,0%,0%);fill-opacity:1;" d="M 174.84375 191.597656 L 170.121094 193.585938 C 169.871094 193.585938 169.621094 193.832031 169.621094 194.082031 C 169.621094 194.082031 154.953125 206.253906 154.953125 206.253906 C 153.210938 207.746094 154.207031 210.726562 156.445312 210.726562 C 156.941406 210.726562 157.6875 210.476562 157.9375 210.230469 L 172.359375 198.304688 L 182.554688 194.082031 C 180.066406 193.089844 177.332031 192.34375 174.84375 191.597656 Z M 174.84375 191.597656 "/>
<path style=" stroke:none;fill-rule:nonzero;fill:rgb(0%,0%,0%);fill-opacity:1;" d="M 198.714844 196.566406 C 195.980469 196.316406 192.996094 195.820312 190.261719 195.324219 L 186.53125 197.3125 C 186.28125 197.3125 186.035156 197.558594 185.785156 197.808594 L 174.597656 208.988281 C 173.601562 209.980469 173.601562 211.472656 174.597656 212.464844 C 175.589844 213.457031 177.082031 213.457031 178.078125 212.464844 L 189.019531 201.535156 Z M 198.714844 196.566406 "/>
<path style=" stroke:none;fill-rule:nonzero;fill:rgb(0%,0%,0%);fill-opacity:1;" d="M 204.933594 198.554688 C 204.683594 198.800781 204.1875 199.050781 203.9375 199.296875 L 193.992188 214.453125 C 193.246094 215.695312 193.492188 217.183594 194.738281 217.929688 C 195.980469 218.675781 197.472656 218.425781 198.21875 217.183594 L 207.667969 202.527344 L 216.121094 198.054688 C 212.890625 198.054688 209.65625 197.808594 206.425781 197.558594 Z M 204.933594 198.554688 "/>
<path style=" stroke:none;fill-rule:nonzero;fill:rgb(0%,0%,0%);fill-opacity:1;" d="M 243.226562 197.0625 C 241.234375 198.304688 239.246094 199.796875 237.257812 201.039062 C 231.289062 205.261719 225.570312 209.234375 218.109375 210.972656 C 216.867188 211.222656 215.871094 212.714844 216.121094 213.953125 C 216.371094 215.195312 217.863281 216.191406 219.105469 215.695312 C 227.3125 213.707031 233.527344 209.484375 239.992188 205.011719 C 241.980469 203.519531 249.441406 198.800781 250.683594 198.054688 C 249.9375 197.558594 249.441406 196.8125 248.945312 196.316406 C 247.453125 196.566406 245.460938 196.8125 243.226562 197.0625 Z M 243.226562 197.0625 "/>
<path style=" stroke:none;fill-rule:nonzero;fill:rgb(0%,0%,0%);fill-opacity:1;" d="M 240.988281 217.929688 C 238.003906 221.65625 235.269531 225.382812 232.285156 228.363281 C 229.796875 230.847656 227.3125 232.835938 224.824219 234.574219 C 223.582031 235.320312 223.332031 236.808594 224.078125 238.050781 C 224.824219 239.292969 226.316406 239.542969 227.558594 238.796875 C 230.292969 237.058594 233.03125 234.820312 235.765625 232.089844 C 239.246094 228.859375 242.230469 224.886719 244.964844 221.160156 C 249.691406 214.949219 254.164062 209.234375 260.132812 205.757812 C 258.640625 204.761719 257.148438 203.769531 255.90625 202.527344 C 249.9375 206.253906 245.460938 212.214844 240.988281 217.929688 Z M 240.988281 217.929688 "/>
<path style=" stroke:none;fill-rule:nonzero;fill:rgb(0%,0%,0%);fill-opacity:1;" d="M 267.59375 210.230469 C 260.132812 216.6875 255.65625 227.867188 253.417969 234.820312 C 252.921875 236.0625 252.675781 237.554688 252.175781 239.046875 C 250.683594 244.261719 249.191406 250.472656 244.964844 252.210938 C 243.722656 252.707031 243.226562 254.199219 243.722656 255.441406 C 244.21875 256.683594 245.710938 257.179688 246.953125 256.683594 C 253.417969 253.949219 255.410156 246.496094 256.902344 240.289062 C 257.398438 238.796875 257.648438 237.554688 258.144531 236.3125 C 259.886719 230.847656 264.609375 218.675781 272.070312 212.960938 L 271.820312 212.464844 C 270.578125 211.96875 269.085938 210.972656 267.59375 210.230469 Z M 267.59375 210.230469 "/>
<path style=" stroke:none;fill-rule:nonzero;fill:rgb(0%,0%,0%);fill-opacity:1;" d="M 262.867188 246.746094 C 261.625 246.996094 260.632812 248.238281 260.878906 249.726562 C 261.128906 250.96875 262.621094 251.964844 263.863281 251.714844 C 271.074219 250.222656 274.058594 243.019531 275.800781 239.046875 C 275.800781 239.046875 277.289062 235.320312 277.789062 234.324219 L 278.535156 226.375 L 277.789062 224.886719 C 275.054688 228.113281 273.3125 231.839844 271.820312 235.566406 L 271.074219 237.304688 C 269.332031 241.53125 267.34375 246 262.867188 246.746094 Z M 262.867188 246.746094 "/>
</g>
</svg>
