<?xml version="1.0" encoding="UTF-8"?>
<svg xmlns="http://www.w3.org/2000/svg" xmlns:xlink="http://www.w3.org/1999/xlink" width="375pt" height="374.999991pt" viewBox="0 0 375 374.999991" version="1.2">
<defs>
<clipPath id="clip1">
  <path d="M 26.21875 76.257812 L 326 76.257812 L 326 249 L 26.21875 249 Z M 26.21875 76.257812 "/>
</clipPath>
<clipPath id="clip2">
  <path d="M 118 252 L 190 252 L 190 322.785156 L 118 322.785156 Z M 118 252 "/>
</clipPath>
<clipPath id="clip3">
  <path d="M 225 252 L 296 252 L 296 322.785156 L 225 322.785156 Z M 225 252 "/>
</clipPath>
</defs>
<g id="surface1">
<g clip-path="url(#clip1)" clip-rule="nonzero">
<path style=" stroke:none;fill-rule:nonzero;fill:rgb(54.899597%,77.648926%,24.708557%);fill-opacity:1;" d="M 285.097656 248.285156 L 124.878906 248.285156 C 120.757812 248.285156 117.105469 245.640625 115.832031 241.734375 L 67.976562 95.257812 L 35.730469 95.257812 C 30.476562 95.257812 26.21875 91.011719 26.21875 85.769531 C 26.21875 80.53125 30.476562 76.28125 35.730469 76.28125 L 74.882812 76.28125 C 79.003906 76.28125 82.65625 78.925781 83.933594 82.832031 L 131.785156 229.308594 L 277.816406 229.308594 L 306.632812 123.136719 C 308.003906 118.078125 313.226562 115.085938 318.300781 116.457031 C 323.375 117.824219 326.375 123.035156 325 128.09375 L 294.28125 241.277344 C 293.160156 245.410156 289.394531 248.285156 285.097656 248.285156 Z M 285.097656 248.285156 "/>
</g>
<path style=" stroke:none;fill-rule:nonzero;fill:rgb(54.899597%,77.648926%,24.708557%);fill-opacity:1;" d="M 315.816406 132.21875 L 90.542969 132.21875 C 85.289062 132.21875 81.027344 127.96875 81.027344 122.726562 C 81.027344 117.488281 85.289062 113.238281 90.542969 113.238281 L 315.816406 113.238281 C 321.070312 113.238281 325.332031 117.488281 325.332031 122.726562 C 325.332031 127.96875 321.070312 132.21875 315.816406 132.21875 Z M 315.816406 132.21875 "/>
<g clip-path="url(#clip2)" clip-rule="nonzero">
<path style=" stroke:none;fill-rule:nonzero;fill:rgb(54.899597%,77.648926%,24.708557%);fill-opacity:1;" d="M 153.992188 322.726562 C 134.683594 322.726562 118.972656 307.0625 118.972656 287.804688 C 118.972656 268.550781 134.683594 252.886719 153.992188 252.886719 C 173.300781 252.886719 189.007812 268.550781 189.007812 287.804688 C 189.007812 307.0625 173.300781 322.726562 153.992188 322.726562 Z M 153.992188 271.863281 C 145.175781 271.863281 138.003906 279.015625 138.003906 287.808594 C 138.003906 296.597656 145.175781 303.75 153.992188 303.75 C 162.804688 303.75 169.976562 296.597656 169.976562 287.808594 C 169.976562 279.015625 162.804688 271.863281 153.992188 271.863281 Z M 153.992188 271.863281 "/>
</g>
<g clip-path="url(#clip3)" clip-rule="nonzero">
<path style=" stroke:none;fill-rule:nonzero;fill:rgb(54.899597%,77.648926%,24.708557%);fill-opacity:1;" d="M 260.613281 322.726562 C 241.304688 322.726562 225.597656 307.0625 225.597656 287.804688 C 225.597656 268.550781 241.304688 252.886719 260.613281 252.886719 C 279.921875 252.886719 295.632812 268.550781 295.632812 287.804688 C 295.632812 307.0625 279.921875 322.726562 260.613281 322.726562 Z M 260.613281 271.863281 C 251.796875 271.863281 244.628906 279.015625 244.628906 287.808594 C 244.628906 296.597656 251.796875 303.75 260.613281 303.75 C 269.429688 303.75 276.601562 296.597656 276.601562 287.808594 C 276.601562 279.015625 269.429688 271.863281 260.613281 271.863281 Z M 260.613281 271.863281 "/>
</g>
</g>
</svg>
