<?xml version="1.0" encoding="UTF-8"?>
<svg xmlns="http://www.w3.org/2000/svg" xmlns:xlink="http://www.w3.org/1999/xlink" width="375pt" height="374.999991pt" viewBox="0 0 375 374.999991" version="1.2">
<defs>
<clipPath id="clip1">
  <path d="M 77 271 L 233 271 L 233 278.0625 L 77 278.0625 Z M 77 271 "/>
</clipPath>
<clipPath id="clip2">
  <path d="M 14.890625 153 L 294 153 L 294 239 L 14.890625 239 Z M 14.890625 153 "/>
</clipPath>
<clipPath id="clip3">
  <path d="M 243 97.3125 L 257 97.3125 L 257 107 L 243 107 Z M 243 97.3125 "/>
</clipPath>
<clipPath id="clip4">
  <path d="M 282 238 L 359.679688 238 L 359.679688 276 L 282 276 Z M 282 238 "/>
</clipPath>
</defs>
<g id="surface1">
<path style=" stroke:none;fill-rule:nonzero;fill:rgb(26.269531%,10.978699%,3.138733%);fill-opacity:1;" d="M 184.863281 242.753906 L 167.207031 238.898438 C 167.207031 238.898438 104.285156 241.957031 74.480469 241.949219 C 44.695312 241.941406 24.894531 239.351562 24.894531 239.351562 L 31.5625 243.441406 C 31.5625 243.441406 56.925781 246.070312 82.558594 246.046875 C 108.1875 246.019531 184.863281 242.753906 184.863281 242.753906 "/>
<path style=" stroke:none;fill-rule:nonzero;fill:rgb(26.269531%,10.978699%,3.138733%);fill-opacity:1;" d="M 196.398438 249.261719 L 189.082031 245.132812 C 189.082031 245.132812 115.324219 248.4375 85.316406 248.414062 C 55.308594 248.394531 35.398438 245.796875 35.398438 245.796875 L 42.0625 249.886719 C 42.0625 249.886719 67.582031 252.527344 93.398438 252.511719 C 119.214844 252.5 196.398438 249.261719 196.398438 249.261719 "/>
<path style=" stroke:none;fill-rule:nonzero;fill:rgb(26.269531%,10.978699%,3.138733%);fill-opacity:1;" d="M 207.929688 255.765625 L 200.621094 251.640625 C 200.621094 251.640625 126.371094 254.914062 96.148438 254.878906 C 65.929688 254.847656 45.914062 252.246094 45.914062 252.246094 L 52.574219 256.328125 C 52.574219 256.328125 78.242188 258.980469 104.238281 258.980469 C 130.238281 258.976562 207.929688 255.765625 207.929688 255.765625 "/>
<path style=" stroke:none;fill-rule:nonzero;fill:rgb(26.269531%,10.978699%,3.138733%);fill-opacity:1;" d="M 219.460938 262.269531 L 212.148438 258.144531 C 212.148438 258.144531 137.414062 261.386719 106.980469 261.34375 C 76.550781 261.296875 56.417969 258.6875 56.417969 258.6875 L 63.082031 262.777344 C 63.082031 262.777344 88.898438 265.4375 115.078125 265.4375 C 141.257812 265.445312 219.460938 262.269531 219.460938 262.269531 "/>
<path style=" stroke:none;fill-rule:nonzero;fill:rgb(26.269531%,10.978699%,3.138733%);fill-opacity:1;" d="M 220.886719 269.140625 L 213.574219 265.019531 C 213.574219 265.019531 148.460938 267.867188 117.8125 267.808594 C 87.167969 267.753906 66.921875 265.136719 66.921875 265.136719 L 73.585938 269.222656 C 73.585938 269.222656 99.554688 271.890625 125.917969 271.90625 C 152.285156 271.921875 220.886719 269.140625 220.886719 269.140625 "/>
<g clip-path="url(#clip1)" clip-rule="nonzero">
<path style=" stroke:none;fill-rule:nonzero;fill:rgb(26.269531%,10.978699%,3.138733%);fill-opacity:1;" d="M 232.417969 275.640625 L 225.105469 271.519531 C 225.105469 271.519531 159.507812 274.339844 128.644531 274.273438 C 97.785156 274.203125 77.433594 271.582031 77.433594 271.582031 L 84.09375 275.671875 C 84.09375 275.671875 110.214844 278.34375 136.757812 278.371094 C 163.304688 278.398438 232.417969 275.640625 232.417969 275.640625 "/>
</g>
<g clip-path="url(#clip2)" clip-rule="nonzero">
<path style=" stroke:none;fill-rule:nonzero;fill:rgb(15.289307%,58.81958%,23.529053%);fill-opacity:1;" d="M 287.09375 231.769531 L 287.066406 231.753906 L 287.03125 231.761719 C 250.039062 231.625 242.007812 193.582031 204.128906 191.304688 C 183.578125 190.074219 199.890625 216.261719 160.96875 173.304688 C 133.953125 143.484375 118.832031 144.402344 72.585938 197.980469 C 53.054688 220.597656 14.894531 232.207031 14.894531 232.207031 L 21.558594 236.292969 C 21.558594 236.292969 46.925781 238.925781 72.558594 238.898438 C 93.898438 238.878906 150.597656 236.609375 169 235.855469 C 171.707031 235.746094 293.304688 235.855469 293.304688 235.855469 "/>
</g>
<path style=" stroke:none;fill-rule:nonzero;fill:rgb(89.408875%,62.348938%,18.818665%);fill-opacity:1;" d="M 232.003906 100.242188 L 229.03125 110.886719 C 232.679688 109.171875 236.566406 107.882812 240.632812 107.097656 L 232.003906 100.242188 "/>
<g clip-path="url(#clip3)" clip-rule="nonzero">
<path style=" stroke:none;fill-rule:nonzero;fill:rgb(89.408875%,62.348938%,18.818665%);fill-opacity:1;" d="M 256.175781 106.582031 L 250.054688 97.378906 L 243.941406 106.582031 C 245.949219 106.328125 247.984375 106.191406 250.054688 106.191406 C 252.132812 106.191406 254.167969 106.328125 256.175781 106.582031 "/>
</g>
<path style=" stroke:none;fill-rule:nonzero;fill:rgb(89.408875%,62.348938%,18.818665%);fill-opacity:1;" d="M 205.082031 134.960938 L 194.492188 137.953125 L 201.316406 146.628906 C 202.097656 142.539062 203.375 138.632812 205.082031 134.960938 "/>
<path style=" stroke:none;fill-rule:nonzero;fill:rgb(89.408875%,62.348938%,18.818665%);fill-opacity:1;" d="M 226.039062 112.421875 L 215.71875 108.597656 L 216.164062 119.644531 C 219.136719 116.851562 222.449219 114.417969 226.039062 112.421875 "/>
<path style=" stroke:none;fill-rule:nonzero;fill:rgb(89.408875%,62.348938%,18.818665%);fill-opacity:1;" d="M 268.109375 100.242188 L 259.484375 107.097656 C 263.546875 107.882812 267.4375 109.171875 271.085938 110.886719 L 268.109375 100.242188 "/>
<path style=" stroke:none;fill-rule:nonzero;fill:rgb(89.408875%,62.348938%,18.818665%);fill-opacity:1;" d="M 308.464844 156.105469 L 299.320312 149.957031 C 299.566406 151.976562 299.707031 154.019531 299.707031 156.105469 C 299.707031 158.1875 299.566406 160.238281 299.320312 162.25 L 308.464844 156.105469 "/>
<path style=" stroke:none;fill-rule:nonzero;fill:rgb(89.408875%,62.348938%,18.818665%);fill-opacity:1;" d="M 284.398438 108.597656 L 274.082031 112.421875 C 277.664062 114.417969 280.980469 116.851562 283.949219 119.648438 L 284.398438 108.597656 "/>
<path style=" stroke:none;fill-rule:nonzero;fill:rgb(89.408875%,62.348938%,18.818665%);fill-opacity:1;" d="M 298.800781 146.628906 L 305.628906 137.953125 L 295.039062 134.96875 C 296.742188 138.632812 298.019531 142.539062 298.800781 146.628906 "/>
<path style=" stroke:none;fill-rule:nonzero;fill:rgb(89.408875%,62.348938%,18.818665%);fill-opacity:1;" d="M 297.3125 121.585938 L 286.320312 122.03125 C 289.105469 125.015625 291.523438 128.34375 293.511719 131.953125 L 297.3125 121.585938 "/>
<path style=" stroke:none;fill-rule:nonzero;fill:rgb(89.408875%,62.348938%,18.818665%);fill-opacity:1;" d="M 213.796875 122.03125 L 202.804688 121.578125 L 206.609375 131.953125 C 208.597656 128.34375 211.015625 125.015625 213.796875 122.03125 "/>
<path style=" stroke:none;fill-rule:nonzero;fill:rgb(89.408875%,62.348938%,18.818665%);fill-opacity:1;" d="M 268.113281 211.972656 L 271.085938 201.320312 C 267.4375 203.039062 263.550781 204.316406 259.484375 205.105469 L 268.113281 211.972656 "/>
<path style=" stroke:none;fill-rule:nonzero;fill:rgb(89.408875%,62.348938%,18.818665%);fill-opacity:1;" d="M 200.410156 156.105469 C 200.410156 154.019531 200.554688 151.976562 200.800781 149.957031 L 191.648438 156.105469 L 200.800781 162.25 C 200.554688 160.238281 200.410156 158.1875 200.410156 156.105469 "/>
<path style=" stroke:none;fill-rule:nonzero;fill:rgb(89.408875%,62.348938%,18.818665%);fill-opacity:1;" d="M 295.039062 177.246094 L 305.628906 174.253906 L 298.800781 165.578125 C 298.019531 169.667969 296.742188 173.578125 295.039062 177.246094 "/>
<path style=" stroke:none;fill-rule:nonzero;fill:rgb(89.408875%,62.348938%,18.818665%);fill-opacity:1;" d="M 286.320312 190.179688 L 297.3125 190.625 L 293.507812 180.25 C 291.519531 183.863281 289.101562 187.191406 286.320312 190.179688 "/>
<path style=" stroke:none;fill-rule:nonzero;fill:rgb(89.408875%,62.348938%,18.818665%);fill-opacity:1;" d="M 274.082031 199.78125 L 284.398438 203.621094 L 283.949219 192.566406 C 280.980469 195.359375 277.664062 197.789062 274.082031 199.78125 "/>
<path style=" stroke:none;fill-rule:nonzero;fill:rgb(89.408875%,62.348938%,18.818665%);fill-opacity:1;" d="M 201.316406 165.578125 L 194.492188 174.253906 L 205.082031 177.246094 C 203.375 173.578125 202.097656 169.667969 201.316406 165.578125 "/>
<path style=" stroke:none;fill-rule:nonzero;fill:rgb(89.408875%,62.348938%,18.818665%);fill-opacity:1;" d="M 250.054688 110.460938 C 224.980469 110.460938 204.65625 130.890625 204.65625 156.105469 C 204.65625 181.3125 224.980469 201.75 250.054688 201.75 C 275.132812 201.75 295.460938 181.3125 295.460938 156.105469 C 295.460938 130.890625 275.132812 110.460938 250.054688 110.460938 "/>
<path style=" stroke:none;fill-rule:nonzero;fill:rgb(89.408875%,62.348938%,18.818665%);fill-opacity:1;" d="M 204.265625 189.027344 C 207.332031 189.210938 210.207031 189.621094 212.921875 190.214844 L 213.796875 190.179688 C 211.015625 187.191406 208.597656 183.863281 206.609375 180.25 L 203.398438 189.003906 C 203.683594 189.011719 203.964844 189.011719 204.265625 189.027344 "/>
<path style=" stroke:none;fill-rule:nonzero;fill:rgb(89.408875%,62.348938%,18.818665%);fill-opacity:1;" d="M 250.878906 213.589844 L 256.175781 205.632812 C 254.167969 205.878906 252.132812 206.023438 250.054688 206.023438 C 247.984375 206.023438 245.949219 205.878906 243.945312 205.632812 L 247.0625 210.316406 C 248.335938 211.417969 249.605469 212.511719 250.878906 213.589844 "/>
<path style=" stroke:none;fill-rule:nonzero;fill:rgb(43.919373%,19.60907%,6.269836%);fill-opacity:1;" d="M 235.503906 275.984375 L 219.753906 275.984375 C 219.753906 275.984375 205.023438 258.316406 193.667969 250.621094 C 182.324219 242.921875 167.140625 238.898438 167.140625 238.898438 L 181.761719 238.898438 C 181.761719 238.898438 199.300781 244.324219 209.101562 250.929688 C 218.914062 257.535156 235.503906 275.984375 235.503906 275.984375 "/>
<path style=" stroke:none;fill-rule:nonzero;fill:rgb(43.919373%,19.60907%,6.269836%);fill-opacity:1;" d="M 260.339844 275.984375 L 244.585938 275.984375 C 244.585938 275.984375 229.015625 258.316406 217.289062 250.621094 C 205.574219 242.921875 190.199219 238.898438 190.199219 238.898438 L 204.824219 238.898438 C 204.824219 238.898438 222.621094 244.324219 232.742188 250.929688 C 242.867188 257.535156 260.339844 275.984375 260.339844 275.984375 "/>
<path style=" stroke:none;fill-rule:nonzero;fill:rgb(43.919373%,19.60907%,6.269836%);fill-opacity:1;" d="M 285.171875 275.984375 L 269.421875 275.984375 C 269.421875 275.984375 253 258.316406 240.910156 250.621094 C 228.828125 242.921875 213.261719 238.898438 213.261719 238.898438 L 227.886719 238.898438 C 227.886719 238.898438 245.941406 244.324219 256.378906 250.929688 C 266.8125 257.535156 285.171875 275.984375 285.171875 275.984375 "/>
<path style=" stroke:none;fill-rule:nonzero;fill:rgb(43.919373%,19.60907%,6.269836%);fill-opacity:1;" d="M 310.007812 275.984375 L 294.257812 275.984375 C 294.257812 275.984375 276.988281 258.316406 264.535156 250.621094 C 252.078125 242.921875 236.320312 238.898438 236.320312 238.898438 L 250.945312 238.898438 C 250.945312 238.898438 269.261719 244.324219 280.011719 250.929688 C 290.769531 257.535156 310.007812 275.984375 310.007812 275.984375 "/>
<path style=" stroke:none;fill-rule:nonzero;fill:rgb(43.919373%,19.60907%,6.269836%);fill-opacity:1;" d="M 334.84375 275.984375 L 319.09375 275.984375 C 319.09375 275.984375 300.980469 258.316406 288.152344 250.621094 C 275.332031 242.921875 259.382812 238.898438 259.382812 238.898438 L 274.007812 238.898438 C 274.007812 238.898438 292.582031 244.324219 303.648438 250.929688 C 314.722656 257.535156 334.84375 275.984375 334.84375 275.984375 "/>
<g clip-path="url(#clip4)" clip-rule="nonzero">
<path style=" stroke:none;fill-rule:nonzero;fill:rgb(43.919373%,19.60907%,6.269836%);fill-opacity:1;" d="M 359.675781 275.984375 L 343.929688 275.984375 C 343.929688 275.984375 324.96875 258.316406 311.773438 250.621094 C 298.585938 242.921875 282.441406 238.898438 282.441406 238.898438 L 297.066406 238.898438 C 297.066406 238.898438 315.902344 244.324219 327.285156 250.929688 C 338.675781 257.535156 359.675781 275.984375 359.675781 275.984375 "/>
</g>
</g>
</svg>
