<?xml version="1.0" encoding="UTF-8"?>
<svg xmlns="http://www.w3.org/2000/svg" xmlns:xlink="http://www.w3.org/1999/xlink" width="375pt" height="374.999991pt" viewBox="0 0 375 374.999991" version="1.2">
<defs>
<clipPath id="clip1">
  <path d="M 60.75 81 L 108 81 L 108 104 L 60.75 104 Z M 60.75 81 "/>
</clipPath>
<clipPath id="clip2">
  <path d="M 60.75 82 L 108 82 L 108 104 L 60.75 104 Z M 60.75 82 "/>
</clipPath>
<clipPath id="clip3">
  <path d="M 173 250 L 224 250 L 224 354.472656 L 173 354.472656 Z M 173 250 "/>
</clipPath>
</defs>
<g id="surface1">
<path style=" stroke:none;fill-rule:nonzero;fill:rgb(80.778503%,31.369019%,14.509583%);fill-opacity:1;" d="M 165.636719 264.789062 C 165.636719 264.789062 169.574219 289.253906 161.144531 296.847656 C 152.714844 304.4375 132.78125 303.316406 128.847656 308.378906 C 140.074219 306.410156 150.1875 308.378906 150.1875 308.378906 C 150.1875 308.378906 140.636719 315.6875 137.265625 324.6875 C 148.21875 316.25 158.894531 311.753906 158.894531 311.753906 C 158.894531 311.753906 152.714844 332.277344 154.117188 340.71875 C 154.117188 340.71875 161.703125 315.410156 172.378906 313.152344 C 183.054688 310.910156 187.621094 307.8125 192.5 309.222656 C 192.5 309.222656 184.171875 307.25 179.121094 305.285156 C 174.0625 303.316406 171.53125 298.535156 174.90625 292.0625 C 178.273438 285.597656 190.074219 268.445312 190.074219 268.445312 L 165.636719 264.789062 "/>
<path style=" stroke:none;fill-rule:nonzero;fill:rgb(82.749939%,82.348633%,82.348633%);fill-opacity:1;" d="M 71.578125 211.761719 C 70.886719 196.496094 89.277344 167.046875 90.960938 146.800781 C 92.648438 126.550781 80.851562 113.050781 81.273438 89.429688 C 81.695312 65.804688 98.546875 56.523438 114.554688 54.839844 C 130.566406 53.148438 139.554688 64.679688 140.398438 72.273438 C 141.238281 79.871094 139.835938 94.488281 140.679688 105.460938 C 141.523438 116.425781 147.421875 135.828125 171.859375 142.578125 C 196.296875 149.328125 240.960938 132.453125 262.023438 110.519531 C 283.09375 88.585938 309.214844 37.121094 309.214844 37.121094 C 309.214844 37.121094 314.265625 79.304688 313.425781 97.863281 C 294.046875 111.363281 256.96875 132.453125 256.96875 132.453125 L 313.519531 107.144531 C 313.519531 107.144531 308.375 138.359375 295.734375 158.609375 C 270.449219 163.671875 256.96875 161.984375 256.96875 161.984375 L 294.046875 167.890625 C 294.046875 167.890625 285.621094 180.542969 272.132812 192.355469 C 248.539062 188.980469 241.800781 184.765625 241.800781 184.765625 L 261.179688 201.636719 C 261.179688 201.636719 212.308594 247.195312 196.296875 266.597656 C 180.285156 286.003906 181.125 284.320312 159.21875 266.597656 C 137.308594 248.882812 90.398438 214.015625 87.027344 214.015625 C 84.503906 218.230469 85.34375 224.699219 85.34375 224.699219 C 85.34375 224.699219 79.164062 219.640625 78.320312 214.855469 C 75.796875 221.039062 74.390625 228.070312 74.390625 228.070312 C 74.390625 228.070312 71.863281 217.945312 71.578125 211.761719 "/>
<path style=" stroke:none;fill-rule:nonzero;fill:rgb(56.858826%,56.079102%,56.079102%);fill-opacity:1;" d="M 267.714844 186.292969 C 259.734375 186.640625 251.855469 185.351562 243.894531 185.65625 C 247.378906 187.113281 255.636719 189.878906 272.09375 192.230469 C 275.472656 189.269531 284.832031 179.308594 287.523438 176.449219 C 283.101562 177.789062 272.378906 186.089844 267.714844 186.292969 "/>
<path style=" stroke:none;fill-rule:nonzero;fill:rgb(56.858826%,56.079102%,56.079102%);fill-opacity:1;" d="M 309.40625 117.640625 C 307.421875 125.210938 304.703125 132.472656 299.601562 138.675781 C 291.144531 148.984375 275.167969 159.074219 260.667969 159.757812 C 259.417969 160.414062 258.175781 161.125 256.941406 161.859375 C 257.101562 161.878906 270.558594 163.515625 295.6875 158.484375 C 304.261719 144.75 309.382812 125.988281 311.796875 115.324219 C 311.019531 116.113281 310.226562 116.886719 309.40625 117.640625 "/>
<path style=" stroke:none;fill-rule:nonzero;fill:rgb(56.858826%,56.079102%,56.079102%);fill-opacity:1;" d="M 312.015625 65.277344 C 304.042969 96.609375 260.992188 130.113281 259.140625 130.996094 L 259.140625 131.0625 C 267.378906 126.332031 296.828125 109.269531 313.382812 97.738281 C 313.753906 89.609375 312.988281 76.945312 312.015625 65.277344 "/>
<path style=" stroke:none;fill-rule:nonzero;fill:rgb(56.858826%,56.079102%,56.079102%);fill-opacity:1;" d="M 203.242188 239.492188 C 184.050781 245.355469 165.65625 244.265625 147.324219 236.214844 C 131.480469 229.25 116.0625 218.226562 106.785156 203.308594 C 95.328125 184.894531 98.132812 167.21875 101.339844 146.835938 C 103.867188 130.753906 94.820312 103.046875 117.480469 97.703125 C 121.15625 96.835938 128.46875 100.933594 131.945312 92.015625 C 132.972656 89.378906 135.628906 87.695312 134.699219 81.671875 C 134.167969 82.261719 132.703125 86.480469 127.332031 89.304688 C 119.0625 93.652344 105.128906 90.214844 98.925781 85.054688 C 97.132812 84.222656 95.460938 83.148438 93.980469 81.703125 C 87.277344 75.167969 91.902344 66.4375 96.8125 60.316406 C 88.054688 65.546875 81.488281 74.675781 81.226562 89.304688 C 80.808594 112.929688 92.601562 126.425781 90.917969 146.671875 C 89.230469 166.917969 70.847656 196.371094 71.539062 211.632812 C 71.820312 217.824219 74.347656 227.945312 74.347656 227.945312 C 74.347656 227.945312 75.753906 220.917969 78.277344 214.730469 C 79.121094 219.507812 85.300781 224.574219 85.300781 224.574219 C 85.300781 224.574219 84.460938 218.105469 86.988281 213.886719 C 90.359375 213.886719 137.265625 248.757812 159.175781 266.472656 C 181.082031 284.191406 180.242188 285.878906 196.253906 266.472656 C 204.285156 256.734375 220.589844 240.421875 234.851562 226.570312 C 224.761719 231.847656 214.148438 236.160156 203.242188 239.492188 "/>
<path style=" stroke:none;fill-rule:nonzero;fill:rgb(74.899292%,10.5896%,17.248535%);fill-opacity:1;" d="M 79.320312 99.429688 C 79.320312 99.429688 76.511719 114.613281 72.578125 121.363281 C 68.644531 128.113281 76.792969 142.453125 85.21875 140.488281 C 95.773438 142.738281 102.355469 142.734375 102.636719 133.738281 C 102.914062 124.738281 98.140625 108.707031 93.929688 100.550781 C 89.714844 92.398438 79.320312 99.429688 79.320312 99.429688 "/>
<path style=" stroke:none;fill-rule:nonzero;fill:rgb(56.079102%,7.449341%,12.159729%);fill-opacity:1;" d="M 93.929688 100.550781 C 89.714844 92.398438 79.320312 99.429688 79.320312 99.429688 C 79.320312 99.429688 78.792969 102.28125 77.878906 106.054688 C 79.925781 106.097656 81.984375 105.761719 84.015625 105.347656 C 87.191406 104.691406 90.132812 106.226562 91.125 109.386719 C 92.613281 114.121094 95.21875 118.277344 95.832031 123.300781 C 96.492188 128.722656 93.4375 134.632812 88 136.308594 C 81.882812 138.1875 75.769531 133.976562 72.222656 128.53125 C 72.09375 128.425781 71.96875 128.3125 71.839844 128.203125 C 73.179688 134.796875 79.128906 141.910156 85.21875 140.488281 C 95.773438 142.738281 102.355469 142.734375 102.636719 133.738281 C 102.914062 124.738281 98.140625 108.707031 93.929688 100.550781 "/>
<path style=" stroke:none;fill-rule:nonzero;fill:rgb(74.899292%,10.5896%,17.248535%);fill-opacity:1;" d="M 81.707031 83.441406 C 81.601562 82.359375 79.925781 59.492188 71.519531 50.773438 C 63.109375 42.058594 88.671875 28.558594 92.890625 41.492188 C 97.382812 28.839844 116.199219 20.683594 117.882812 31.371094 C 129.683594 26.59375 138.386719 32.214844 136.425781 36.992188 C 144.851562 35.027344 146.539062 41.777344 143.445312 44.867188 C 148.21875 47.683594 150.746094 49.085938 147.101562 51.617188 C 143.445312 54.148438 134.707031 50.832031 128.546875 56.988281 C 116.761719 56.398438 89.230469 64.273438 90.359375 79.460938 C 91.484375 94.644531 82.375 90.273438 81.707031 83.441406 "/>
<path style=" stroke:none;fill-rule:nonzero;fill:rgb(56.079102%,7.449341%,12.159729%);fill-opacity:1;" d="M 107.816406 28.78125 C 109.214844 28.34375 110.648438 27.988281 112.152344 27.78125 C 112.292969 27.761719 112.4375 27.75 112.585938 27.742188 C 113.277344 27.445312 113.972656 27.175781 114.664062 26.921875 C 112.542969 26.042969 109.628906 26.382812 106.59375 27.621094 C 107.050781 27.964844 107.472656 28.347656 107.816406 28.78125 "/>
<path style=" stroke:none;fill-rule:nonzero;fill:rgb(56.079102%,7.449341%,12.159729%);fill-opacity:1;" d="M 143.445312 44.867188 C 146.539062 41.777344 144.851562 35.027344 136.425781 36.992188 C 137.203125 35.105469 136.289062 33.089844 134.199219 31.632812 C 134.863281 33.074219 135.371094 34.785156 135.6875 36.800781 C 137.722656 49.734375 121.625 52.527344 112.390625 54.296875 C 106.167969 55.484375 95.578125 56.550781 90.351562 61.714844 C 86.960938 68.382812 82.792969 78.714844 84.960938 85.847656 C 85.335938 87.089844 85.304688 88.203125 84.996094 89.164062 C 87.738281 90.820312 91.066406 88.996094 90.359375 79.460938 C 89.230469 64.273438 116.761719 56.398438 128.546875 56.988281 C 134.707031 50.832031 143.445312 54.148438 147.101562 51.617188 C 150.746094 49.085938 148.21875 47.683594 143.445312 44.867188 "/>
<g clip-path="url(#clip1)" clip-rule="nonzero">
<path style=" stroke:none;fill-rule:nonzero;fill:rgb(80.778503%,31.369019%,14.509583%);fill-opacity:1;" d="M 60.75 97.046875 C 60.75 97.046875 79.6875 81.429688 87.269531 81.988281 C 94.855469 82.554688 99.632812 90.394531 107.214844 89.710938 C 95.414062 97.457031 91.347656 101.910156 82.414062 103.375 C 73.472656 104.847656 60.75 97.046875 60.75 97.046875 "/>
</g>
<g clip-path="url(#clip2)" clip-rule="nonzero">
<path style=" stroke:none;fill-rule:nonzero;fill:rgb(67.059326%,34.118652%,27.839661%);fill-opacity:1;" d="M 89.082031 82.28125 C 90.199219 84.535156 90.089844 87.53125 88.191406 89.257812 C 82.238281 94.671875 73.515625 97.21875 65.394531 96.910156 C 63.957031 97.042969 62.492188 97.019531 60.988281 96.859375 C 60.832031 96.980469 60.75 97.046875 60.75 97.046875 C 60.75 97.046875 73.472656 104.847656 82.414062 103.375 C 91.347656 101.910156 95.414062 97.457031 107.214844 89.710938 C 100.253906 90.339844 95.652344 83.800781 89.082031 82.28125 "/>
</g>
<path style=" stroke:none;fill-rule:nonzero;fill:rgb(27.449036%,1.959229%,2.349854%);fill-opacity:1;" d="M 123.136719 76.726562 C 122.738281 74.433594 119.75 73.042969 116.464844 73.613281 C 113.175781 74.1875 110.832031 76.511719 111.234375 78.800781 C 111.632812 81.089844 114.617188 82.480469 117.90625 81.910156 C 121.1875 81.335938 123.53125 79.015625 123.136719 76.726562 "/>
<path style=" stroke:none;fill-rule:nonzero;fill:rgb(82.749939%,82.348633%,82.348633%);fill-opacity:1;" d="M 137.40625 165.359375 C 137.40625 165.359375 113.246094 176.394531 117.734375 188.769531 C 122.238281 201.144531 150.886719 214.921875 177.285156 216.890625 C 203.6875 218.859375 223.632812 209.015625 223.632812 209.015625 C 223.632812 209.015625 240.769531 193.828125 243.859375 186.800781 C 230.660156 184.550781 217.246094 184.675781 217.246094 184.675781 L 245.542969 179.207031 C 245.542969 179.207031 248.632812 167.675781 249.476562 161.769531 C 235.992188 164.300781 221.390625 167.675781 221.390625 167.675781 L 249.476562 155.300781 C 249.476562 155.300781 252.847656 142.925781 249.476562 139.273438 C 239.644531 142.644531 207.0625 162.480469 186.554688 165.359375 "/>
<path style=" stroke:none;fill-rule:nonzero;fill:rgb(56.858826%,56.079102%,56.079102%);fill-opacity:1;" d="M 229.542969 194.511719 C 221.605469 203.304688 206.078125 205.140625 194.976562 206.375 C 183.464844 207.652344 169.40625 209.382812 158.550781 204.015625 C 149.445312 203 140.453125 200.652344 134.578125 193.523438 C 127.570312 185.023438 128.949219 176.300781 133.070312 167.632812 C 126.34375 171.488281 114.476562 179.769531 117.734375 188.769531 C 122.238281 201.144531 150.886719 214.921875 177.285156 216.890625 C 203.6875 218.859375 223.632812 209.015625 223.632812 209.015625 C 223.632812 209.015625 240.769531 193.828125 243.859375 186.800781 C 238.285156 185.847656 232.675781 185.324219 228.054688 185.03125 C 231.328125 186.554688 232.042969 191.75 229.542969 194.511719 "/>
<path style=" stroke:none;fill-rule:nonzero;fill:rgb(56.858826%,56.079102%,56.079102%);fill-opacity:1;" d="M 249.476562 139.273438 C 248.027344 139.769531 246.070312 140.632812 243.738281 141.738281 C 241.878906 148.25 236.074219 153.089844 230.992188 157.421875 C 230.039062 158.234375 229.078125 159.007812 228.109375 159.769531 C 227.957031 159.933594 227.804688 160.097656 227.652344 160.261719 C 225.390625 162.804688 223.089844 165.359375 221.019531 168.074219 C 221.433594 167.875 221.84375 167.671875 222.265625 167.476562 C 221.703125 167.605469 221.390625 167.675781 221.390625 167.675781 L 249.476562 155.300781 C 249.476562 155.300781 252.847656 142.925781 249.476562 139.273438 "/>
<path style=" stroke:none;fill-rule:nonzero;fill:rgb(56.858826%,56.079102%,56.079102%);fill-opacity:1;" d="M 218.636719 185.230469 C 220.269531 185.09375 221.902344 184.957031 223.535156 184.800781 C 221.679688 184.730469 220.152344 184.699219 219.066406 184.683594 C 218.925781 184.867188 218.773438 185.046875 218.636719 185.230469 "/>
<path style=" stroke:none;fill-rule:nonzero;fill:rgb(56.858826%,56.079102%,56.079102%);fill-opacity:1;" d="M 241.257812 163.382812 C 243.953125 166.167969 243.824219 171.816406 238.941406 173.230469 C 232.902344 174.980469 227.429688 178.359375 221.660156 180.894531 C 221.535156 181.195312 221.390625 181.488281 221.199219 181.761719 C 220.621094 182.617188 220 183.441406 219.375 184.265625 L 245.542969 179.207031 C 245.542969 179.207031 248.632812 167.675781 249.476562 161.769531 C 246.738281 162.285156 243.957031 162.832031 241.257812 163.382812 "/>
<path style=" stroke:none;fill-rule:nonzero;fill:rgb(39.608765%,38.42926%,38.819885%);fill-opacity:1;" d="M 137.40625 165.359375 C 134.632812 166.75 131.972656 168.351562 129.433594 170.109375 C 126.910156 171.882812 124.480469 173.8125 122.382812 176.042969 C 120.3125 178.265625 118.480469 180.859375 117.898438 183.769531 C 117.613281 185.214844 117.691406 186.707031 118.136719 188.089844 L 118.3125 188.582031 L 118.546875 189.109375 C 118.699219 189.476562 118.859375 189.820312 119.046875 190.125 C 119.378906 190.757812 119.8125 191.378906 120.238281 191.992188 C 122.035156 194.402344 124.324219 196.449219 126.757812 198.277344 C 129.199219 200.105469 131.800781 201.722656 134.480469 203.199219 C 139.859375 206.136719 145.558594 208.488281 151.394531 210.390625 C 157.226562 212.289062 163.214844 213.726562 169.261719 214.632812 C 172.28125 215.078125 175.351562 215.417969 178.355469 215.558594 C 179.898438 215.597656 181.46875 215.714844 182.984375 215.695312 C 184.5 215.664062 186.007812 215.6875 187.527344 215.609375 C 190.574219 215.476562 193.621094 215.238281 196.640625 214.824219 C 198.15625 214.609375 199.667969 214.414062 201.164062 214.121094 C 202.671875 213.867188 204.164062 213.554688 205.652344 213.21875 C 208.628906 212.546875 211.578125 211.753906 214.46875 210.800781 C 217.34375 209.855469 220.261719 208.78125 222.898438 207.527344 L 222.535156 207.777344 C 226.222656 204.445312 229.855469 200.976562 233.308594 197.40625 C 235.035156 195.613281 236.71875 193.789062 238.292969 191.910156 C 239.082031 190.964844 239.839844 190.007812 240.535156 189.035156 C 241.222656 188.066406 241.867188 187.0625 242.292969 186.113281 L 243.570312 188.488281 C 241.394531 188.191406 239.234375 187.785156 237.039062 187.578125 L 233.753906 187.21875 L 230.460938 186.945312 C 229.363281 186.839844 228.257812 186.796875 227.160156 186.726562 C 226.054688 186.652344 224.957031 186.597656 223.851562 186.554688 C 222.75 186.507812 221.652344 186.464844 220.542969 186.445312 C 219.449219 186.410156 218.335938 186.402344 217.257812 186.398438 L 217.242188 186.398438 C 216.289062 186.398438 215.515625 185.625 215.519531 184.671875 C 215.519531 183.835938 216.125 183.132812 216.917969 182.980469 L 245.222656 177.550781 L 243.917969 178.769531 C 244.679688 175.914062 245.414062 173.03125 246.085938 170.152344 C 246.417969 168.714844 246.753906 167.269531 247.042969 165.832031 C 247.363281 164.390625 247.621094 162.964844 247.855469 161.539062 L 249.777344 163.382812 C 245.097656 164.300781 240.402344 165.144531 235.730469 166.140625 C 231.054688 167.09375 226.378906 168.097656 221.722656 169.132812 L 221.699219 169.136719 C 220.890625 169.316406 220.101562 168.808594 219.921875 168.003906 C 219.765625 167.292969 220.140625 166.585938 220.789062 166.308594 L 248.988281 154.1875 L 248.304688 154.984375 C 248.476562 154.363281 248.636719 153.695312 248.789062 153.046875 C 248.929688 152.386719 249.066406 151.730469 249.195312 151.070312 C 249.441406 149.753906 249.636719 148.425781 249.753906 147.105469 C 249.871094 145.785156 249.910156 144.460938 249.785156 143.199219 C 249.664062 141.953125 249.34375 140.710938 248.703125 139.988281 L 249.820312 140.269531 C 248.535156 140.699219 247.238281 141.261719 245.949219 141.828125 C 244.664062 142.398438 243.382812 143.003906 242.097656 143.605469 L 234.429688 147.34375 C 229.308594 149.84375 224.160156 152.300781 218.953125 154.640625 C 213.753906 156.980469 208.484375 159.195312 203.109375 161.117188 C 201.765625 161.597656 200.410156 162.050781 199.046875 162.488281 C 197.6875 162.917969 196.316406 163.3125 194.9375 163.6875 C 193.558594 164.046875 192.171875 164.375 190.777344 164.664062 C 189.378906 164.949219 187.96875 165.175781 186.554688 165.359375 C 187.960938 165.117188 189.351562 164.828125 190.730469 164.488281 C 192.117188 164.136719 193.484375 163.746094 194.835938 163.328125 C 196.191406 162.902344 197.539062 162.445312 198.875 161.964844 C 200.210938 161.484375 201.546875 160.988281 202.859375 160.46875 C 208.152344 158.386719 213.320312 156.015625 218.425781 153.515625 C 223.539062 151.027344 228.578125 148.382812 233.632812 145.757812 L 241.25 141.863281 C 242.527344 141.226562 243.8125 140.589844 245.113281 139.984375 C 246.417969 139.375 247.726562 138.777344 249.136719 138.273438 C 249.539062 138.128906 249.980469 138.253906 250.253906 138.554688 C 250.546875 138.886719 250.800781 139.246094 251.003906 139.613281 C 251.199219 139.980469 251.351562 140.355469 251.480469 140.730469 C 251.738281 141.480469 251.871094 142.222656 251.957031 142.957031 C 252.132812 144.425781 252.105469 145.867188 252.015625 147.28125 C 251.917969 148.699219 251.742188 150.097656 251.511719 151.480469 C 251.394531 152.171875 251.265625 152.863281 251.125 153.550781 C 250.980469 154.242188 250.832031 154.914062 250.648438 155.621094 C 250.5625 155.976562 250.3125 156.257812 250 156.398438 L 249.96875 156.417969 L 221.988281 169.042969 L 221.054688 166.21875 C 225.726562 165.132812 230.394531 164.082031 235.085938 163.074219 C 239.757812 162.023438 244.476562 161.128906 249.175781 160.160156 C 250.050781 159.976562 250.90625 160.542969 251.089844 161.421875 C 251.125 161.609375 251.128906 161.804688 251.101562 161.988281 L 251.097656 162 C 250.859375 163.519531 250.605469 165.03125 250.296875 166.5 C 250 167.988281 249.664062 169.449219 249.332031 170.910156 C 248.660156 173.839844 247.933594 176.734375 247.167969 179.644531 C 247 180.285156 246.484375 180.738281 245.875 180.859375 L 245.863281 180.863281 L 217.570312 186.367188 L 217.226562 182.949219 C 218.382812 182.949219 219.496094 182.957031 220.625 182.984375 C 221.746094 183.007812 222.871094 183.042969 223.996094 183.089844 C 225.117188 183.128906 226.242188 183.183594 227.363281 183.261719 C 228.480469 183.339844 229.605469 183.386719 230.726562 183.492188 L 234.085938 183.785156 L 237.445312 184.164062 C 239.679688 184.382812 241.914062 184.800781 244.144531 185.113281 C 245.058594 185.238281 245.691406 186.085938 245.566406 187 C 245.546875 187.164062 245.503906 187.316406 245.4375 187.460938 L 245.425781 187.488281 C 244.808594 188.828125 244.070312 189.941406 243.304688 191.019531 C 242.527344 192.089844 241.722656 193.105469 240.894531 194.089844 C 239.234375 196.058594 237.5 197.921875 235.730469 199.75 C 233.957031 201.574219 232.152344 203.347656 230.324219 205.097656 C 228.480469 206.847656 226.644531 208.5625 224.734375 210.257812 L 224.699219 210.28125 C 224.605469 210.371094 224.480469 210.449219 224.363281 210.5 C 221.390625 211.878906 218.464844 212.90625 215.449219 213.867188 C 212.449219 214.820312 209.394531 215.609375 206.320312 216.273438 C 204.789062 216.605469 203.242188 216.910156 201.691406 217.15625 C 200.148438 217.445312 198.585938 217.628906 197.023438 217.835938 C 193.90625 218.226562 190.769531 218.445312 187.625 218.550781 C 186.054688 218.617188 184.460938 218.550781 182.878906 218.550781 C 181.296875 218.539062 179.777344 218.390625 178.222656 218.320312 C 175.042969 218.113281 171.953125 217.707031 168.851562 217.1875 C 162.667969 216.132812 156.59375 214.546875 150.683594 212.496094 C 144.78125 210.4375 139.019531 207.929688 133.578125 204.816406 C 130.863281 203.246094 128.210938 201.550781 125.761719 199.5625 C 123.308594 197.59375 120.988281 195.394531 119.15625 192.765625 C 118.71875 192.089844 118.28125 191.429688 117.914062 190.671875 C 117.710938 190.304688 117.5625 189.941406 117.425781 189.585938 L 117.207031 189.046875 C 117.121094 188.800781 117.074219 188.640625 117.007812 188.433594 C 116.550781 186.847656 116.523438 185.140625 116.886719 183.558594 C 117.648438 180.355469 119.667969 177.746094 121.855469 175.53125 C 124.082031 173.320312 126.585938 171.4375 129.210938 169.777344 C 131.84375 168.117188 134.574219 166.628906 137.40625 165.359375 "/>
<g clip-path="url(#clip3)" clip-rule="nonzero">
<path style=" stroke:none;fill-rule:nonzero;fill:rgb(80.778503%,31.369019%,14.509583%);fill-opacity:1;" d="M 202.117188 335.617188 C 205.320312 336.902344 204.898438 342.773438 208.269531 354.582031 C 207.851562 335.617188 213.324219 332.226562 213.324219 332.226562 L 221.75 349.101562 C 221.75 349.101562 224.699219 339.816406 221.75 329.273438 C 219.101562 319.792969 211.71875 308.851562 210.378906 290.898438 C 209.113281 274.023438 199.84375 250.386719 199.84375 250.386719 L 173.296875 263.042969 C 174.984375 263.464844 204.898438 290.875 203.632812 313.023438 C 203.632812 313.023438 192.078125 336.417969 192.5 351.128906 C 196.050781 339.890625 202.117188 335.617188 202.117188 335.617188 "/>
</g>
<path style=" stroke:none;fill-rule:nonzero;fill:rgb(56.858826%,56.079102%,56.079102%);fill-opacity:1;" d="M 200.210938 291.351562 C 201.277344 290.058594 202.867188 289.203125 204.644531 289.203125 C 205.152344 289.203125 205.644531 289.292969 206.109375 289.421875 C 206.285156 287.324219 207.449219 285.332031 209.597656 284.542969 C 207.007812 268.664062 199.84375 250.386719 199.84375 250.386719 L 173.296875 263.042969 C 174.394531 263.316406 187.417969 275.003906 196.054688 289.234375 C 197.71875 289.3125 199.199219 290.136719 200.210938 291.351562 "/>
<path style=" stroke:none;fill-rule:nonzero;fill:rgb(100%,100%,100%);fill-opacity:1;" d="M 120.910156 75.972656 C 120.910156 76.890625 119.914062 77.636719 118.683594 77.636719 C 117.460938 77.636719 116.464844 76.890625 116.464844 75.972656 C 116.464844 75.066406 117.460938 74.316406 118.683594 74.316406 C 119.914062 74.316406 120.910156 75.066406 120.910156 75.972656 "/>
<path style=" stroke:none;fill-rule:nonzero;fill:rgb(41.958618%,12.548828%,8.239746%);fill-opacity:1;" d="M 104.570312 91.542969 C 104.570312 91.542969 103.929688 91.789062 102.796875 92.21875 C 101.660156 92.632812 100.074219 93.308594 98.09375 93.929688 C 97.105469 94.253906 96.046875 94.632812 94.90625 94.976562 C 93.761719 95.296875 92.554688 95.640625 91.304688 95.988281 C 90.046875 96.3125 88.742188 96.601562 87.410156 96.917969 C 86.074219 97.207031 84.710938 97.4375 83.34375 97.703125 C 81.976562 97.90625 80.609375 98.136719 79.246094 98.292969 C 77.886719 98.4375 76.546875 98.585938 75.246094 98.632812 C 73.9375 98.691406 72.675781 98.703125 71.480469 98.65625 C 70.285156 98.597656 69.152344 98.535156 68.117188 98.421875 C 67.074219 98.328125 66.132812 98.160156 65.296875 98.023438 C 64.464844 97.871094 63.742188 97.730469 63.152344 97.578125 C 61.980469 97.277344 61.308594 97.105469 61.308594 97.105469 L 61.324219 96.992188 C 61.324219 96.992188 61.492188 97.003906 61.820312 97.027344 C 62.144531 97.0625 62.617188 97.109375 63.222656 97.175781 C 63.8125 97.226562 64.542969 97.292969 65.378906 97.367188 C 66.214844 97.429688 67.152344 97.460938 68.179688 97.503906 C 69.203125 97.554688 70.320312 97.550781 71.492188 97.542969 C 72.667969 97.503906 73.90625 97.523438 75.1875 97.429688 C 76.46875 97.414062 77.792969 97.289062 79.140625 97.207031 C 80.480469 97.109375 81.84375 96.929688 83.207031 96.789062 C 84.5625 96.570312 85.925781 96.378906 87.257812 96.132812 C 88.578125 95.863281 89.890625 95.617188 91.144531 95.339844 C 92.398438 95.03125 93.609375 94.734375 94.761719 94.449219 C 95.90625 94.15625 96.972656 93.824219 97.964844 93.546875 C 99.960938 93.011719 101.582031 92.402344 102.730469 92.035156 C 103.875 91.652344 104.53125 91.4375 104.53125 91.4375 L 104.570312 91.542969 "/>
</g>
</svg>
