<?xml version="1.0" encoding="UTF-8"?>
<svg xmlns="http://www.w3.org/2000/svg" xmlns:xlink="http://www.w3.org/1999/xlink" width="375pt" height="374.999991pt" viewBox="0 0 375 374.999991" version="1.2">
<defs>
<clipPath id="clip1">
  <path d="M 112.5 112.5 L 262.5 112.5 L 262.5 262.5 L 112.5 262.5 Z M 112.5 112.5 "/>
</clipPath>
</defs>
<g id="surface1">
<g clip-path="url(#clip1)" clip-rule="nonzero">
<path style=" stroke:none;fill-rule:nonzero;fill:rgb(0%,0%,0%);fill-opacity:1;" d="M 121.347656 187.5 C 121.347656 151.046875 150.902344 121.347656 187.199219 121.347656 C 223.796875 121.347656 253.644531 151.046875 253.644531 187.5 C 253.644531 223.949219 223.949219 253.652344 187.199219 253.652344 C 174.597656 253.652344 162.296875 250.046875 151.796875 243.296875 L 150.152344 242.25 L 125.546875 249.449219 L 132.75 224.851562 L 131.699219 223.199219 C 124.949219 212.699219 121.347656 200.25 121.347656 187.5 Z M 148.796875 251.847656 C 160.347656 258.75 173.699219 262.5 187.199219 262.5 C 228.449219 262.5 262.5 228.894531 262.5 187.5 C 262.5 146.25 228.601562 112.5 187.199219 112.5 C 146.097656 112.5 112.5 146.097656 112.5 187.5 C 112.5 201.296875 116.25 214.644531 123.152344 226.199219 L 112.5 262.5 L 148.796875 251.847656 "/>
</g>
<path style=" stroke:none;fill-rule:nonzero;fill:rgb(0%,0%,0%);fill-opacity:1;" d="M 159.597656 152.097656 C 163.199219 148.5 163.046875 148.5 163.5 148.5 C 163.652344 148.5 163.796875 148.5 163.949219 148.652344 C 178.652344 163.5 178.046875 162.597656 178.046875 163.046875 C 178.046875 163.199219 178.046875 163.347656 177.902344 163.5 L 174.449219 166.949219 C 168.902344 172.5 168.902344 181.5 174.449219 187.046875 L 188.402344 201.601562 C 193.949219 207.144531 203.546875 207.144531 209.101562 201.601562 L 212.546875 198.144531 C 212.699219 198 213.144531 198 213.296875 198.144531 C 228 213 227.394531 212.101562 227.394531 212.546875 C 227.394531 212.699219 227.394531 212.851562 227.25 213 L 223.796875 216.449219 C 221.394531 218.851562 213.75 220.199219 203.851562 218.394531 C 197.25 217.199219 184.5 213.449219 173.546875 202.5 C 162.597656 191.546875 159 178.949219 157.652344 172.199219 C 155.699219 162.152344 157.199219 154.5 159.597656 152.097656 Z M 148.949219 173.699219 C 150.449219 181.347656 154.652344 196.046875 167.25 208.5 C 179.847656 220.949219 194.394531 225.296875 202.046875 226.796875 C 210.75 228.449219 223.644531 228.75 229.796875 222.449219 L 233.25 219 C 235.046875 217.199219 235.949219 214.949219 235.949219 212.394531 C 235.949219 209.851562 235.046875 207.601562 233.25 205.796875 L 219.296875 191.851562 C 217.5 190.046875 215.25 189.144531 212.699219 189.144531 C 210.144531 189.144531 207.894531 190.046875 206.101562 191.851562 L 202.644531 195.296875 C 200.546875 197.394531 196.5 197.394531 194.394531 195.296875 L 180.449219 180.75 C 178.347656 178.652344 178.347656 175.199219 180.449219 172.949219 L 183.902344 169.5 C 187.5 165.902344 187.5 159.902344 183.902344 156.296875 L 169.949219 142.347656 C 166.347656 138.75 160.347656 138.75 156.75 142.347656 L 153.296875 145.796875 C 148.347656 150.902344 146.699219 161.546875 148.949219 173.699219 "/>
</g>
</svg>
