<?xml version="1.0" encoding="UTF-8"?>
<svg xmlns="http://www.w3.org/2000/svg" xmlns:xlink="http://www.w3.org/1999/xlink" width="375pt" height="374.999991pt" viewBox="0 0 375 374.999991" version="1.2">
<defs>
<clipPath id="clip1">
  <path d="M 239 239 L 283 239 L 283 330.597656 L 239 330.597656 Z M 239 239 "/>
</clipPath>
<clipPath id="clip2">
  <path d="M 28 45.164062 L 144 45.164062 L 144 134 L 28 134 Z M 28 45.164062 "/>
</clipPath>
<clipPath id="clip3">
  <path d="M 114 91 L 344 91 L 344 330.597656 L 114 330.597656 Z M 114 91 "/>
</clipPath>
</defs>
<g id="surface1">
<g clip-path="url(#clip1)" clip-rule="nonzero">
<path style=" stroke:none;fill-rule:nonzero;fill:rgb(0%,0%,0%);fill-opacity:1;" d="M 281.15625 303.578125 C 279.683594 298.417969 278.453125 290.066406 278.207031 284.910156 L 277.714844 253.222656 C 276.242188 251.011719 274.523438 248.308594 272.554688 245.605469 L 273.046875 285.15625 C 273.292969 290.804688 274.523438 299.648438 275.996094 305.050781 L 278.699219 314.140625 L 276.242188 314.140625 C 275.503906 314.140625 274.769531 314.386719 274.277344 314.878906 C 273.785156 315.367188 273.539062 316.105469 273.539062 316.84375 C 273.539062 316.84375 273.785156 322.246094 270.34375 325.441406 L 251.667969 325.441406 C 251.667969 321.507812 253.390625 317.332031 260.023438 314.878906 C 261.007812 314.386719 261.742188 313.402344 261.742188 312.421875 L 258.550781 268.207031 C 258.304688 265.257812 257.320312 260.589844 255.847656 257.890625 C 253.636719 253.46875 250.195312 247.328125 245.035156 240.695312 C 243.804688 240.449219 242.578125 239.957031 241.347656 239.710938 C 240.609375 240.449219 240.121094 240.941406 239.382812 241.675781 C 245.527344 249.535156 249.457031 256.414062 251.421875 260.34375 C 252.40625 262.554688 253.390625 266.484375 253.636719 268.941406 L 256.828125 311.191406 C 246.753906 315.613281 246.753906 324.703125 247.246094 328.386719 C 247.492188 329.617188 248.472656 330.597656 249.703125 330.597656 L 271.574219 330.597656 C 272.066406 330.597656 272.800781 330.351562 273.046875 330.105469 C 275.011719 328.632812 276.242188 326.914062 276.980469 324.949219 C 277.226562 319.542969 279.191406 314.632812 282.875 311.191406 Z M 281.15625 303.578125 "/>
</g>
<g clip-path="url(#clip2)" clip-rule="nonzero">
<path style=" stroke:none;fill-rule:nonzero;fill:rgb(0%,0%,0%);fill-opacity:1;" d="M 53.117188 79.800781 C 53.609375 82.746094 54.59375 84.957031 55.574219 86.675781 C 56.066406 87.660156 56.558594 89.378906 56.558594 90.363281 C 57.050781 96.257812 60.488281 100.925781 62.703125 103.136719 C 63.4375 103.871094 64.175781 105.347656 64.421875 106.082031 C 69.089844 127.945312 78.675781 132.613281 84.082031 133.347656 C 84.324219 133.347656 87.765625 133.347656 88.257812 133.347656 C 93.664062 132.613281 103.246094 127.699219 107.917969 106.082031 C 108.160156 105.347656 108.898438 103.871094 109.636719 103.136719 C 111.601562 100.925781 115.289062 96.257812 115.78125 90.363281 C 115.78125 89.132812 116.269531 87.414062 116.761719 86.433594 C 117.746094 84.710938 118.726562 82.5 119.21875 79.554688 C 122.90625 83.484375 127.820312 86.921875 132.734375 86.921875 C 134.457031 86.921875 136.175781 86.433594 137.894531 85.695312 C 141.089844 83.976562 142.808594 81.273438 143.300781 77.835938 C 143.792969 73.414062 141.828125 68.007812 138.140625 64.570312 C 132.488281 59.164062 124.378906 57.445312 117.253906 56.710938 C 116.023438 54.253906 112.832031 49.832031 107.671875 49.832031 C 106.933594 49.832031 106.195312 49.832031 105.214844 50.078125 C 103.492188 48.113281 100.296875 45.410156 95.628906 45.410156 C 94.15625 45.410156 92.433594 45.65625 90.960938 46.394531 L 81.867188 46.394531 C 79.902344 45.410156 78.183594 45.164062 76.707031 45.164062 C 72.039062 45.164062 68.84375 47.867188 67.125 49.832031 C 66.386719 49.585938 65.648438 49.585938 64.667969 49.585938 C 59.507812 49.585938 56.558594 54.253906 55.082031 56.464844 C 47.710938 57.199219 39.847656 58.921875 34.195312 64.324219 C 30.511719 67.761719 28.300781 73.167969 29.035156 77.589844 C 29.527344 81.027344 31.246094 83.730469 34.441406 85.449219 C 36.164062 86.433594 37.882812 86.921875 39.847656 86.921875 C 44.515625 86.921875 49.433594 83.730469 53.117188 79.800781 Z M 33.949219 77.097656 C 33.707031 74.148438 35.179688 70.464844 37.636719 68.007812 C 42.796875 63.34375 50.414062 62.113281 57.050781 61.375 C 58.03125 61.375 58.769531 60.640625 59.015625 59.902344 C 59.015625 59.902344 61.226562 54.5 64.667969 54.5 C 65.40625 54.5 65.894531 54.746094 66.632812 54.988281 C 67.863281 55.726562 69.335938 55.234375 69.828125 54.007812 C 69.828125 53.761719 72.285156 50.078125 76.460938 50.078125 C 77.445312 50.078125 78.675781 50.324219 79.65625 50.8125 C 79.902344 50.8125 80.148438 51.058594 80.640625 51.058594 L 90.714844 51.058594 C 90.960938 51.058594 91.453125 51.058594 91.699219 50.8125 C 93.171875 50.324219 94.15625 50.078125 95.136719 50.078125 C 99.316406 50.078125 101.527344 54.007812 101.773438 54.007812 C 102.511719 55.234375 103.984375 55.726562 105.214844 54.988281 C 105.949219 54.5 106.6875 54.5 107.425781 54.5 C 110.863281 54.5 113.078125 59.65625 113.078125 59.65625 C 113.320312 60.394531 114.304688 61.132812 115.042969 61.132812 C 121.921875 61.867188 129.539062 63.097656 134.457031 67.761719 C 136.914062 70.21875 138.632812 73.90625 138.140625 76.851562 C 137.894531 78.816406 136.914062 80.289062 135.191406 81.027344 C 134.457031 81.519531 133.472656 81.765625 132.488281 81.765625 C 126.589844 81.765625 119.21875 73.414062 116.761719 67.761719 C 116.269531 66.535156 114.796875 66.042969 113.566406 66.535156 C 112.339844 67.027344 111.847656 68.5 112.339844 69.726562 C 115.78125 77.34375 113.8125 81.027344 112.09375 84.222656 C 111.355469 85.695312 110.617188 87.90625 110.617188 89.871094 C 110.375 94.292969 107.425781 97.976562 105.703125 99.695312 C 104.476562 100.925781 103.246094 103.136719 102.753906 105.101562 C 98.824219 122.542969 92.1875 127.207031 88.503906 128.4375 L 88.503906 126.226562 C 89.976562 126.226562 90.960938 125.242188 90.960938 123.769531 C 90.960938 122.296875 89.730469 121.3125 88.503906 121.3125 L 83.589844 121.3125 C 82.113281 121.3125 81.132812 122.296875 81.132812 123.769531 C 81.132812 125.242188 82.113281 126.226562 83.589844 126.226562 L 83.589844 128.191406 C 79.902344 126.960938 73.023438 122.542969 69.335938 104.855469 C 68.84375 102.890625 67.617188 100.679688 66.386719 99.449219 C 64.667969 97.730469 61.964844 94.046875 61.472656 89.625 C 61.226562 87.90625 60.734375 85.449219 60 83.976562 C 58.277344 80.78125 56.558594 77.097656 59.753906 69.484375 C 60.246094 68.253906 59.753906 66.78125 58.523438 66.289062 C 57.296875 65.796875 55.820312 66.289062 55.328125 67.519531 C 52.625 73.414062 45.5 81.519531 39.847656 81.519531 C 38.867188 81.519531 37.882812 81.273438 36.898438 80.78125 C 35.179688 80.289062 34.195312 78.816406 33.949219 77.097656 Z M 33.949219 77.097656 "/>
</g>
<path style=" stroke:none;fill-rule:nonzero;fill:rgb(0%,0%,0%);fill-opacity:1;" d="M 70.8125 84.46875 C 71.792969 84.46875 73.023438 84.222656 73.757812 83.730469 C 74.003906 83.730469 74.25 83.484375 74.496094 83.484375 C 74.742188 83.238281 74.988281 82.992188 74.742188 82.746094 C 74.742188 82.5 74.496094 82.257812 74.25 82.257812 C 71.792969 80.78125 70.8125 79.800781 70.320312 79.554688 C 68.109375 79.0625 67.371094 81.765625 67.371094 82.5 C 67.371094 82.746094 67.617188 83.484375 67.863281 83.730469 C 68.84375 84.222656 69.828125 84.46875 70.8125 84.46875 Z M 70.8125 84.46875 "/>
<path style=" stroke:none;fill-rule:nonzero;fill:rgb(0%,0%,0%);fill-opacity:1;" d="M 98.085938 83.730469 C 99.070312 84.222656 100.050781 84.46875 101.035156 84.46875 C 102.019531 84.46875 103 84.222656 103.738281 83.730469 C 103.984375 83.484375 104.476562 82.992188 104.230469 82.5 C 104.230469 82.011719 103.492188 79.308594 101.28125 79.554688 C 100.789062 79.554688 100.050781 80.78125 97.351562 82.257812 C 97.105469 82.5 96.859375 82.5 96.859375 82.746094 C 96.859375 82.992188 96.859375 83.238281 97.105469 83.484375 C 97.839844 83.484375 97.839844 83.730469 98.085938 83.730469 Z M 98.085938 83.730469 "/>
<path style=" stroke:none;fill-rule:nonzero;fill:rgb(0%,0%,0%);fill-opacity:1;" d="M 156.570312 240.203125 C 158.535156 239.21875 169.839844 232.589844 168.613281 217.113281 C 170.332031 213.917969 176.230469 201.882812 169.347656 195.742188 C 168.367188 194.757812 166.890625 195.003906 165.910156 195.988281 C 164.925781 196.96875 165.171875 198.445312 166.15625 199.425781 C 170.085938 202.867188 165.664062 212.445312 163.941406 215.394531 C 163.695312 215.882812 163.453125 216.375 163.695312 216.867188 C 165.171875 230.621094 154.851562 235.535156 154.359375 235.78125 C 154.113281 235.78125 154.113281 236.027344 153.867188 236.027344 C 146.25 241.921875 146.742188 250.765625 146.742188 251.011719 L 147.480469 283.433594 C 147.480469 288.839844 148.953125 297.683594 150.425781 302.839844 L 152.886719 311.683594 L 150.671875 311.683594 C 149.9375 311.683594 149.199219 311.929688 148.707031 312.421875 C 148.214844 312.914062 147.96875 313.648438 147.96875 314.386719 C 147.96875 314.386719 148.214844 319.542969 145.023438 322.738281 L 127.574219 322.738281 C 127.574219 319.054688 129.292969 314.878906 135.4375 312.667969 C 136.421875 312.175781 137.15625 311.191406 137.15625 310.210938 L 137.15625 309.472656 C 134.945312 273.609375 132.980469 236.519531 100.789062 213.183594 C 102.019531 211.953125 102.753906 210.234375 103.246094 208.269531 C 103.492188 207.042969 102.753906 205.566406 101.28125 205.320312 C 99.808594 205.078125 98.578125 205.8125 98.332031 207.285156 C 97.351562 211.953125 91.207031 214.65625 87.027344 214.65625 C 79.902344 214.65625 74.25 208.761719 74.25 201.882812 C 74.25 201.390625 74.25 201.144531 74.25 200.65625 C 74.25 199.917969 74.003906 199.179688 73.511719 198.691406 C 73.023438 198.199219 72.285156 197.953125 71.546875 197.953125 C 71.054688 197.953125 70.566406 197.953125 69.828125 197.953125 C 62.703125 197.953125 57.050781 192.058594 57.050781 185.179688 C 57.050781 183.707031 57.296875 182.230469 57.785156 180.757812 C 58.277344 179.53125 57.542969 178.054688 56.3125 177.566406 C 51.152344 175.84375 47.957031 170.933594 47.957031 165.527344 C 47.957031 162.582031 48.941406 159.632812 50.90625 157.175781 C 51.398438 156.683594 51.644531 155.949219 51.398438 155.210938 C 51.152344 154.472656 50.90625 153.984375 50.167969 153.492188 C 46.484375 151.28125 43.78125 147.105469 43.78125 142.4375 C 43.78125 139 45.007812 136.050781 47.21875 133.59375 C 48.203125 132.613281 48.203125 131.136719 47.21875 130.402344 C 45.007812 127.945312 43.78125 124.996094 43.78125 121.558594 C 43.78125 117.136719 45.992188 113.207031 49.433594 110.75 C 50.660156 110.011719 50.90625 108.539062 50.167969 107.3125 C 48.695312 105.101562 47.957031 102.644531 47.957031 100.1875 C 47.957031 96.75 49.1875 93.554688 51.644531 91.097656 C 51.644531 90.855469 51.644531 90.855469 51.644531 90.609375 C 51.644531 90.117188 51.398438 89.132812 51.152344 88.644531 C 51.152344 88.398438 50.90625 88.152344 50.90625 88.152344 C 49.433594 89.132812 47.710938 90.117188 45.992188 90.609375 C 44.273438 93.554688 43.289062 96.75 43.289062 100.1875 C 43.289062 102.890625 44.027344 105.59375 45.007812 108.046875 C 41.078125 111.488281 38.867188 116.398438 38.867188 121.558594 C 38.867188 125.242188 40.09375 128.929688 42.304688 131.875 C 40.09375 135.070312 38.867188 138.507812 38.867188 142.4375 C 38.867188 147.84375 41.324219 153 45.746094 156.441406 C 44.027344 159.140625 43.042969 162.335938 43.042969 165.773438 C 43.042969 172.40625 46.730469 178.546875 52.625 181.496094 C 52.378906 182.722656 52.136719 183.953125 52.136719 185.179688 C 52.136719 194.757812 59.753906 202.621094 69.335938 202.867188 C 70.074219 212.199219 77.691406 219.324219 87.027344 219.324219 C 90.714844 219.324219 94.15625 218.09375 97.105469 216.128906 C 128.066406 237.992188 130.277344 273.609375 131.996094 308.492188 C 125.117188 311.683594 121.921875 317.578125 122.90625 325.195312 C 123.152344 326.421875 124.132812 327.40625 125.363281 327.40625 L 146.003906 327.40625 C 146.496094 327.40625 147.234375 327.160156 147.480469 326.914062 C 151.164062 323.71875 152.394531 319.300781 152.640625 316.597656 L 153.375 316.597656 C 154.605469 316.597656 156.078125 316.105469 156.816406 315.125 C 157.554688 314.140625 157.800781 312.667969 157.554688 311.191406 L 154.851562 301.613281 C 153.375 296.699219 152.394531 288.59375 152.148438 283.433594 L 151.410156 250.765625 C 151.65625 250.519531 151.164062 244.378906 156.570312 240.203125 Z M 156.570312 240.203125 "/>
<path style=" stroke:none;fill-rule:nonzero;fill:rgb(0%,0%,0%);fill-opacity:1;" d="M 113.078125 288.839844 C 113.078125 288.839844 113.078125 288.59375 113.078125 288.59375 C 113.078125 288.347656 111.601562 261.820312 113.566406 241.921875 C 112.339844 239.710938 110.863281 237.5 109.390625 235.535156 C 106.441406 255.921875 108.160156 286.382812 108.160156 289.085938 C 107.917969 292.277344 108.652344 295.964844 110.128906 300.140625 C 111.109375 302.59375 111.847656 306.527344 111.847656 308.738281 L 111.847656 315.125 L 108.898438 315.125 C 107.917969 315.125 107.179688 315.613281 106.6875 316.351562 L 103 322.984375 L 88.996094 322.984375 C 88.503906 322.984375 88.257812 322.738281 88.257812 322.984375 C 88.257812 322.984375 88.257812 322.738281 88.503906 322.246094 L 94.890625 309.472656 C 96.367188 306.769531 97.351562 302.105469 97.351562 299.15625 L 97.351562 273.117188 C 97.351562 270.171875 97.105469 265.75 96.367188 263.046875 C 93.664062 250.027344 87.273438 234.308594 82.851562 224.234375 C 80.640625 223.746094 78.429688 223.007812 76.460938 222.027344 C 80.640625 231.113281 88.503906 249.535156 91.453125 263.785156 C 91.945312 266.242188 92.1875 270.417969 92.1875 272.871094 L 92.1875 298.664062 C 92.1875 300.875 91.207031 304.804688 90.222656 306.769531 L 83.835938 319.542969 C 82.851562 321.507812 82.851562 323.476562 83.835938 324.949219 C 84.816406 326.421875 86.539062 327.40625 88.75 327.40625 L 104.230469 327.40625 C 105.214844 327.40625 105.949219 326.914062 106.441406 326.175781 L 110.128906 319.542969 L 114.058594 319.542969 C 115.535156 319.542969 116.515625 318.5625 116.515625 317.089844 L 116.515625 308.246094 C 116.515625 305.296875 115.535156 300.875 114.550781 297.929688 C 113.566406 294.488281 113.078125 291.296875 113.078125 288.839844 Z M 113.078125 288.839844 "/>
<path style=" stroke:none;fill-rule:nonzero;fill:rgb(0%,0%,0%);fill-opacity:1;" d="M 250.195312 236.027344 C 254.371094 236.027344 258.304688 234.554688 261.5 232.097656 C 260.269531 230.867188 259.039062 229.886719 257.8125 228.65625 C 255.601562 230.132812 252.898438 231.113281 250.195312 231.113281 C 246.753906 231.113281 243.558594 229.886719 241.101562 227.429688 C 240.609375 226.9375 239.628906 226.691406 238.890625 226.691406 C 238.152344 226.9375 237.417969 227.429688 237.171875 228.167969 C 235.203125 233.324219 230.289062 236.519531 224.882812 236.519531 C 220.707031 236.519531 216.773438 234.554688 214.316406 230.867188 C 213.335938 229.640625 211.125 229.640625 210.386719 230.867188 C 207.929688 234.308594 203.996094 236.519531 199.820312 236.519531 C 196.625 236.519531 193.675781 235.289062 191.21875 233.324219 C 190.234375 232.589844 189.007812 232.589844 188.023438 233.324219 C 185.566406 235.289062 182.617188 236.519531 179.425781 236.519531 C 175.984375 236.519531 172.789062 235.042969 170.578125 232.832031 C 169.839844 234.308594 168.859375 235.78125 167.875 237.007812 C 171.070312 239.710938 175.246094 241.429688 179.667969 241.429688 C 183.355469 241.429688 186.796875 240.449219 189.746094 238.238281 C 192.695312 240.203125 196.132812 241.429688 199.820312 241.429688 C 204.488281 241.429688 209.15625 239.464844 212.597656 236.273438 C 216.039062 239.710938 220.460938 241.429688 225.375 241.429688 C 231.765625 241.429688 237.417969 238.238281 240.609375 232.832031 C 243.070312 235.042969 246.507812 236.027344 250.195312 236.027344 Z M 250.195312 236.027344 "/>
<g clip-path="url(#clip3)" clip-rule="nonzero">
<path style=" stroke:none;fill-rule:nonzero;fill:rgb(0%,0%,0%);fill-opacity:1;" d="M 341.605469 155.703125 C 338.414062 141.699219 332.761719 134.578125 327.109375 129.417969 C 323.667969 125.242188 318.261719 122.542969 312.363281 122.785156 C 311.136719 114.1875 303.519531 107.3125 294.425781 107.3125 C 293.199219 107.3125 291.96875 107.558594 290.742188 107.800781 C 287.546875 101.90625 281.402344 98.222656 274.523438 98.222656 C 271.574219 98.222656 268.625 98.960938 265.921875 100.433594 C 262.480469 96.996094 257.8125 95.03125 252.898438 95.03125 C 249.703125 95.03125 246.753906 95.765625 244.050781 97.238281 C 240.609375 93.800781 235.941406 91.835938 231.027344 91.835938 C 226.113281 91.835938 221.445312 93.800781 218.003906 97.238281 C 214.5625 93.800781 209.894531 91.835938 204.980469 91.835938 C 199.574219 91.835938 194.414062 94.292969 190.972656 98.222656 C 188.023438 96.011719 184.339844 94.785156 180.40625 94.785156 C 175.246094 94.785156 170.332031 96.996094 166.890625 100.925781 C 163.453125 96.996094 158.535156 94.785156 153.375 94.785156 C 148.214844 94.785156 143.792969 97.976562 141.089844 100.679688 C 133.71875 94.539062 125.363281 94.785156 118.972656 96.75 C 117.992188 99.695312 116.269531 102.152344 114.796875 104.363281 C 115.535156 103.871094 128.558594 94.785156 139.617188 105.835938 C 140.105469 106.328125 140.84375 106.574219 141.335938 106.574219 C 142.074219 106.574219 142.5625 106.328125 143.054688 105.835938 C 144.285156 104.363281 148.707031 99.941406 153.375 99.941406 C 158.046875 99.941406 162.46875 102.398438 164.925781 106.574219 C 165.910156 108.046875 168.367188 108.046875 169.101562 106.574219 C 171.558594 102.644531 175.984375 99.941406 180.652344 99.941406 C 184.09375 99.941406 187.53125 101.171875 189.992188 103.625 C 190.480469 104.117188 191.21875 104.363281 191.957031 104.363281 C 192.695312 104.363281 193.429688 103.871094 193.675781 103.136719 C 196.132812 99.207031 200.3125 96.75 204.980469 96.75 C 209.402344 96.75 213.335938 98.960938 216.039062 102.398438 C 216.53125 103.136719 217.265625 103.382812 218.003906 103.382812 C 218.742188 103.382812 219.476562 102.890625 219.96875 102.398438 C 222.425781 98.714844 226.605469 96.75 231.027344 96.75 C 235.203125 96.75 238.890625 98.714844 241.59375 101.90625 C 242.332031 102.890625 243.804688 103.136719 245.035156 102.398438 C 247.246094 100.679688 249.949219 99.941406 252.898438 99.941406 C 257.074219 99.941406 261.007812 101.90625 263.464844 105.101562 C 264.203125 106.082031 265.675781 106.328125 266.90625 105.59375 C 269.117188 104.117188 271.820312 103.136719 274.523438 103.136719 C 279.929688 103.136719 285.089844 106.574219 287.054688 111.734375 C 287.546875 112.960938 289.019531 113.699219 290.25 113.207031 C 291.722656 112.714844 293.199219 112.46875 294.425781 112.46875 C 301.796875 112.46875 307.695312 118.367188 307.695312 125.734375 C 307.695312 126.472656 307.941406 127.207031 308.679688 127.699219 C 309.171875 128.191406 309.90625 128.4375 310.644531 128.191406 C 311.382812 127.945312 312.363281 127.945312 313.101562 127.945312 C 320.472656 127.945312 326.371094 133.839844 326.371094 141.210938 C 326.371094 144.402344 325.144531 147.597656 322.929688 150.054688 C 322.441406 150.542969 322.195312 151.28125 322.195312 152.019531 C 322.195312 152.753906 322.683594 153.246094 323.175781 153.738281 C 326.617188 156.195312 328.582031 160.125 328.582031 164.300781 C 328.582031 168.476562 326.617188 172.40625 323.175781 174.863281 C 322.441406 175.355469 322.195312 176.089844 322.195312 176.828125 C 322.195312 177.566406 322.683594 178.300781 323.175781 178.792969 C 326.617188 181.25 328.582031 185.179688 328.582031 189.355469 C 328.582031 194.269531 325.878906 198.691406 321.703125 200.898438 C 320.964844 201.144531 320.71875 201.882812 320.472656 202.621094 C 320.226562 203.355469 320.472656 204.09375 320.964844 204.585938 C 322.683594 206.796875 323.421875 209.496094 323.421875 212.445312 C 323.421875 217.113281 320.964844 221.535156 316.789062 223.746094 C 316.050781 223.992188 315.804688 224.726562 315.558594 225.464844 C 315.558594 226.203125 315.558594 226.9375 316.050781 227.429688 C 318.015625 229.886719 319.246094 232.832031 319.246094 236.027344 C 319.246094 243.394531 313.347656 249.292969 305.976562 249.292969 C 304.5 249.292969 303.519531 250.273438 303.519531 251.746094 C 303.519531 253.222656 304.746094 254.203125 305.976562 254.203125 C 306.46875 254.203125 306.957031 254.203125 307.203125 254.203125 L 307.941406 284.664062 C 307.941406 290.3125 309.414062 299.402344 310.890625 304.804688 L 313.59375 314.140625 L 311.136719 314.140625 C 310.644531 314.140625 309.660156 314.386719 309.171875 314.878906 C 308.679688 315.367188 308.433594 316.105469 308.433594 316.84375 C 308.433594 316.84375 308.679688 322.246094 305.484375 325.6875 L 287.054688 325.6875 C 287.054688 321.753906 288.773438 317.332031 295.410156 314.878906 C 296.390625 314.386719 297.128906 313.402344 297.128906 312.421875 L 293.933594 267.714844 C 293.6875 264.765625 292.707031 260.101562 291.230469 257.398438 C 287.300781 249.292969 275.75 228.65625 253.636719 213.183594 C 252.40625 212.445312 250.933594 212.691406 250.195312 213.671875 C 249.457031 214.902344 249.703125 216.375 250.6875 217.113281 C 271.820312 231.851562 282.875 251.503906 286.808594 259.363281 C 287.792969 261.574219 288.773438 265.503906 289.019531 267.960938 L 292.214844 310.945312 C 282.140625 315.613281 282.140625 324.457031 282.632812 328.386719 C 282.875 329.617188 283.859375 330.597656 285.089844 330.597656 L 306.710938 330.597656 C 307.203125 330.597656 307.941406 330.351562 308.1875 330.105469 C 312.117188 326.914062 313.347656 322.246094 313.59375 319.300781 L 314.578125 319.300781 C 316.050781 319.300781 317.28125 318.808594 318.015625 317.824219 C 318.753906 316.84375 319 315.367188 318.753906 313.894531 L 316.050781 303.824219 C 314.578125 298.664062 313.347656 290.066406 313.347656 284.664062 L 312.609375 253.222656 C 319.492188 250.765625 324.652344 244.132812 324.652344 236.273438 C 324.652344 232.832031 323.667969 229.640625 321.949219 226.691406 C 326.125 223.253906 328.828125 218.09375 328.828125 212.691406 C 328.828125 209.742188 328.089844 206.796875 326.617188 204.339844 C 331.039062 201.144531 333.742188 195.988281 333.988281 190.582031 C 334.234375 190.582031 334.726562 190.582031 334.972656 190.582031 C 335.464844 190.582031 335.710938 190.582031 336.199219 190.582031 C 337.429688 190.335938 339.394531 189.601562 341.117188 187.144531 C 344.0625 181.003906 344.554688 168.96875 341.605469 155.703125 Z M 336.445312 183.953125 C 335.953125 184.6875 335.464844 185.179688 334.972656 185.179688 C 334.480469 185.179688 333.988281 185.179688 333.25 184.6875 C 332.515625 181.742188 330.792969 178.792969 328.582031 176.582031 C 331.777344 173.144531 333.742188 168.722656 333.742188 164.054688 C 333.742188 159.140625 331.777344 154.472656 328.089844 151.035156 C 329.8125 148.332031 330.792969 145.140625 331.039062 141.945312 C 333.25 145.632812 335.21875 150.542969 336.691406 156.683594 C 339.886719 170.441406 338.65625 180.265625 336.445312 183.953125 Z M 336.445312 183.953125 "/>
</g>
</g>
</svg>
