<?xml version="1.0" encoding="UTF-8"?>
<svg xmlns="http://www.w3.org/2000/svg" xmlns:xlink="http://www.w3.org/1999/xlink" width="375pt" height="374.999991pt" viewBox="0 0 375 374.999991" version="1.2">
<defs>
<clipPath id="clip1">
  <path d="M 41 130 L 336 130 L 336 318.890625 L 41 318.890625 Z M 41 130 "/>
</clipPath>
<clipPath id="clip2">
  <path d="M 75 56.390625 L 99 56.390625 L 99 80 L 75 80 Z M 75 56.390625 "/>
</clipPath>
</defs>
<g id="surface1">
<g clip-path="url(#clip1)" clip-rule="nonzero">
<path style=" stroke:none;fill-rule:nonzero;fill:rgb(0%,0%,0%);fill-opacity:1;" d="M 323.816406 228.90625 C 323.898438 212.796875 331.410156 196.988281 334.152344 187.210938 C 336.335938 179.417969 333.707031 173.304688 327.925781 173.304688 C 326.433594 173.304688 324.730469 173.714844 322.847656 174.605469 C 303.644531 183.679688 279.570312 202.769531 279.570312 202.769531 C 264.0625 189.734375 249.101562 179.703125 234.742188 172.179688 C 241.554688 167.972656 250.449219 163.125 258.917969 160.566406 C 263.378906 159.214844 264.28125 156.4375 264.425781 154.898438 C 264.867188 150.144531 259.523438 147.367188 256.652344 145.875 C 250.367188 142.609375 233.667969 135.492188 232.515625 135.035156 C 226.109375 132.5 218.902344 130.15625 209.597656 130.15625 C 199.203125 130.15625 188.382812 133.105469 176.515625 139.167969 L 155.925781 153.410156 C 101.191406 156.449219 62.3125 193.394531 45.453125 214.796875 C 42.984375 217.929688 41.617188 221.929688 41.261719 226.082031 C 41.175781 226.519531 41.132812 226.964844 41.171875 227.402344 C 40.972656 233.433594 42.894531 239.644531 46.773438 243.902344 C 85.332031 286.257812 125.378906 300.03125 161.164062 300.03125 C 161.375 300.03125 161.582031 300.019531 161.792969 300.019531 L 175.992188 309.859375 L 176.515625 310.175781 C 188.382812 316.238281 199.203125 319.183594 209.597656 319.183594 C 218.902344 319.183594 226.113281 316.839844 232.515625 314.304688 C 233.671875 313.847656 250.367188 306.730469 256.652344 303.464844 C 259.523438 301.972656 264.867188 299.195312 264.425781 294.445312 C 264.28125 292.90625 263.375 290.125 258.917969 288.777344 C 252.082031 286.707031 244.96875 283.148438 238.890625 279.640625 C 263.957031 266.679688 279.570312 252.332031 279.570312 252.332031 C 291.453125 266.417969 311.925781 275.300781 323.253906 280.527344 C 325.40625 281.519531 327.316406 281.984375 328.949219 281.984375 C 334.308594 281.984375 336.640625 276.988281 334.539062 269.46875 C 330.1875 253.902344 323.75 241.730469 323.816406 228.90625 Z M 180.960938 147.246094 C 191.394531 141.953125 200.765625 139.378906 209.597656 139.378906 C 217.367188 139.378906 223.582031 141.414062 229.144531 143.613281 C 230.164062 144.015625 244.640625 150.199219 251.238281 153.460938 C 241.195312 157.296875 231.4375 163.1875 225.050781 167.421875 C 206.195312 158.84375 188.449219 154.589844 171.953125 153.488281 Z M 53.558594 237.683594 C 52.492188 236.511719 51.707031 235.011719 51.167969 233.375 C 52.925781 233.671875 54.925781 233.882812 57.199219 233.882812 C 59.554688 233.882812 62.167969 233.667969 65.007812 233.113281 C 67.5 232.628906 69.128906 230.207031 68.644531 227.710938 C 68.160156 225.210938 65.757812 223.585938 63.257812 224.0625 C 57.757812 225.132812 53.585938 224.601562 50.976562 223.953125 C 51.363281 222.671875 51.902344 221.480469 52.667969 220.511719 C 60.378906 210.722656 83.027344 185.03125 117.414062 171.320312 C 121.339844 173.980469 145.375 191.292969 150.496094 220.226562 C 154.203125 241.191406 147.191406 263.574219 129.714844 286.78125 C 102.417969 279.714844 76.898438 263.320312 53.558594 237.683594 Z M 251.234375 295.878906 C 244.636719 299.140625 230.164062 305.324219 229.144531 305.730469 C 223.582031 307.929688 217.367188 309.964844 209.597656 309.964844 C 200.765625 309.964844 191.394531 307.390625 180.960938 302.09375 L 176.710938 299.152344 C 196.101562 297.035156 213.863281 291.265625 228.972656 284.445312 C 235.109375 288.289062 243.074219 292.765625 251.234375 295.878906 Z M 325.089844 271.226562 C 314.386719 266.316406 296.476562 258.101562 286.589844 246.375 L 280.40625 239.046875 L 273.355469 245.539062 C 272.863281 245.992188 223.449219 290.8125 161.164062 290.8125 C 153.847656 290.8125 146.644531 290.1875 139.550781 288.953125 C 156.800781 264.792969 163.535156 241.15625 159.546875 218.613281 C 154.949219 192.652344 137.421875 175.355469 127.910156 167.664062 C 138.691406 164.40625 150.449219 162.40625 163.125 162.40625 L 163.132812 157.792969 C 163.132812 157.792969 163.136719 157.792969 163.136719 157.792969 L 163.136719 162.40625 C 199.042969 162.40625 236.230469 178.363281 273.667969 209.835938 L 279.402344 214.660156 L 285.273438 210.003906 C 285.5 209.824219 307.722656 192.261719 325.578125 183.515625 C 325.511719 183.878906 325.425781 184.28125 325.300781 184.714844 C 324.667969 186.976562 323.703125 189.730469 322.582031 192.917969 C 319.25 202.402344 314.691406 215.394531 314.621094 228.859375 C 314.570312 239.078125 317.804688 248.359375 321.222656 258.1875 C 322.703125 262.433594 324.226562 266.816406 325.542969 271.433594 Z M 325.089844 271.226562 "/>
</g>
<path style=" stroke:none;fill-rule:nonzero;fill:rgb(0%,0%,0%);fill-opacity:1;" d="M 52.644531 139.378906 C 52.644531 149.546875 60.890625 157.820312 71.027344 157.820312 C 81.164062 157.820312 89.414062 149.546875 89.414062 139.378906 C 89.414062 129.210938 81.164062 120.9375 71.027344 120.9375 C 60.890625 120.9375 52.644531 129.210938 52.644531 139.378906 Z M 80.21875 139.378906 C 80.21875 144.460938 76.097656 148.597656 71.027344 148.597656 C 65.960938 148.597656 61.835938 144.460938 61.835938 139.378906 C 61.835938 134.292969 65.960938 130.15625 71.027344 130.15625 C 76.097656 130.15625 80.21875 134.292969 80.21875 139.378906 Z M 80.21875 139.378906 "/>
<path style=" stroke:none;fill-rule:nonzero;fill:rgb(0%,0%,0%);fill-opacity:1;" d="M 100.902344 118.632812 C 108.507812 118.632812 114.691406 112.425781 114.691406 104.800781 C 114.691406 97.175781 108.507812 90.96875 100.902344 90.96875 C 93.300781 90.96875 87.113281 97.175781 87.113281 104.800781 C 87.113281 112.425781 93.300781 118.632812 100.902344 118.632812 Z M 100.902344 100.191406 C 103.4375 100.191406 105.5 102.257812 105.5 104.800781 C 105.5 107.34375 103.4375 109.410156 100.902344 109.410156 C 98.367188 109.410156 96.308594 107.34375 96.308594 104.800781 C 96.308594 102.257812 98.367188 100.191406 100.902344 100.191406 Z M 100.902344 100.191406 "/>
<path style=" stroke:none;fill-rule:nonzero;fill:rgb(0%,0%,0%);fill-opacity:1;" d="M 54.941406 104.800781 C 62.542969 104.800781 68.730469 98.59375 68.730469 90.96875 C 68.730469 83.339844 62.542969 77.136719 54.941406 77.136719 C 47.339844 77.136719 41.152344 83.339844 41.152344 90.96875 C 41.152344 98.59375 47.339844 104.800781 54.941406 104.800781 Z M 54.941406 86.359375 C 57.476562 86.359375 59.539062 88.425781 59.539062 90.96875 C 59.539062 93.511719 57.476562 95.578125 54.941406 95.578125 C 52.40625 95.578125 50.34375 93.511719 50.34375 90.96875 C 50.34375 88.425781 52.40625 86.359375 54.941406 86.359375 Z M 54.941406 86.359375 "/>
<g clip-path="url(#clip2)" clip-rule="nonzero">
<path style=" stroke:none;fill-rule:nonzero;fill:rgb(0%,0%,0%);fill-opacity:1;" d="M 98.605469 67.917969 C 98.605469 61.5625 93.449219 56.390625 87.113281 56.390625 C 80.777344 56.390625 75.625 61.5625 75.625 67.917969 C 75.625 74.273438 80.777344 79.441406 87.113281 79.441406 C 93.449219 79.441406 98.605469 74.273438 98.605469 67.917969 Z M 84.816406 67.917969 C 84.816406 66.644531 85.847656 65.613281 87.113281 65.613281 C 88.382812 65.613281 89.414062 66.644531 89.414062 67.917969 C 89.414062 69.1875 88.382812 70.222656 87.113281 70.222656 C 85.847656 70.222656 84.816406 69.1875 84.816406 67.917969 Z M 84.816406 67.917969 "/>
</g>
<path style=" stroke:none;fill-rule:nonzero;fill:rgb(0%,0%,0%);fill-opacity:1;" d="M 98.605469 210.839844 C 98.605469 204.484375 93.449219 199.3125 87.113281 199.3125 C 80.777344 199.3125 75.625 204.484375 75.625 210.839844 C 75.625 217.195312 80.777344 222.367188 87.113281 222.367188 C 93.449219 222.367188 98.605469 217.195312 98.605469 210.839844 Z M 87.113281 213.144531 C 85.847656 213.144531 84.816406 212.109375 84.816406 210.839844 C 84.816406 209.566406 85.847656 208.535156 87.113281 208.535156 C 88.382812 208.535156 89.414062 209.566406 89.414062 210.839844 C 89.414062 212.109375 88.382812 213.144531 87.113281 213.144531 Z M 87.113281 213.144531 "/>
<path style=" stroke:none;fill-rule:nonzero;fill:rgb(0%,0%,0%);fill-opacity:1;" d="M 52.644531 192.398438 C 58.980469 192.398438 64.132812 187.226562 64.132812 180.871094 C 64.132812 174.519531 58.980469 169.347656 52.644531 169.347656 C 46.308594 169.347656 41.152344 174.519531 41.152344 180.871094 C 41.152344 187.226562 46.308594 192.398438 52.644531 192.398438 Z M 52.644531 178.566406 C 53.910156 178.566406 54.941406 179.601562 54.941406 180.871094 C 54.941406 182.144531 53.910156 183.175781 52.644531 183.175781 C 51.375 183.175781 50.34375 182.144531 50.34375 180.871094 C 50.34375 179.601562 51.375 178.566406 52.644531 178.566406 Z M 52.644531 178.566406 "/>
<path style=" stroke:none;fill-rule:nonzero;fill:rgb(0%,0%,0%);fill-opacity:1;" d="M 254.875 224.671875 C 254.875 224.972656 254.84375 225.273438 254.785156 225.570312 C 254.726562 225.867188 254.640625 226.15625 254.523438 226.433594 C 254.40625 226.714844 254.265625 226.980469 254.097656 227.230469 C 253.929688 227.484375 253.742188 227.714844 253.527344 227.929688 C 253.3125 228.144531 253.082031 228.335938 252.832031 228.503906 C 252.578125 228.671875 252.316406 228.8125 252.035156 228.929688 C 251.757812 229.046875 251.46875 229.132812 251.171875 229.191406 C 250.878906 229.25 250.578125 229.28125 250.277344 229.28125 C 249.976562 229.28125 249.675781 229.25 249.378906 229.191406 C 249.085938 229.132812 248.796875 229.046875 248.519531 228.929688 C 248.238281 228.8125 247.972656 228.671875 247.722656 228.503906 C 247.472656 228.335938 247.242188 228.144531 247.027344 227.929688 C 246.8125 227.714844 246.625 227.484375 246.457031 227.230469 C 246.289062 226.980469 246.144531 226.714844 246.03125 226.433594 C 245.914062 226.15625 245.828125 225.867188 245.769531 225.570312 C 245.710938 225.273438 245.679688 224.972656 245.679688 224.671875 C 245.679688 224.367188 245.710938 224.066406 245.769531 223.769531 C 245.828125 223.472656 245.914062 223.1875 246.03125 222.90625 C 246.144531 222.625 246.289062 222.359375 246.457031 222.109375 C 246.625 221.859375 246.8125 221.625 247.027344 221.410156 C 247.242188 221.195312 247.472656 221.003906 247.722656 220.835938 C 247.972656 220.667969 248.238281 220.527344 248.519531 220.410156 C 248.796875 220.296875 249.085938 220.207031 249.378906 220.148438 C 249.675781 220.089844 249.976562 220.058594 250.277344 220.058594 C 250.578125 220.058594 250.878906 220.089844 251.171875 220.148438 C 251.46875 220.207031 251.757812 220.296875 252.035156 220.410156 C 252.316406 220.527344 252.578125 220.667969 252.832031 220.835938 C 253.082031 221.003906 253.3125 221.195312 253.527344 221.410156 C 253.742188 221.625 253.929688 221.859375 254.097656 222.109375 C 254.265625 222.359375 254.40625 222.625 254.523438 222.90625 C 254.640625 223.1875 254.726562 223.472656 254.785156 223.769531 C 254.84375 224.066406 254.875 224.367188 254.875 224.671875 Z M 254.875 224.671875 "/>
<path style=" stroke:none;fill-rule:nonzero;fill:rgb(0%,0%,0%);fill-opacity:1;" d="M 156.992188 180.140625 C 154.480469 180.472656 152.710938 182.78125 153.035156 185.300781 C 153.359375 187.824219 155.664062 189.617188 158.175781 189.285156 C 158.566406 189.242188 197.644531 184.699219 233.417969 216.957031 C 234.292969 217.75 235.390625 218.140625 236.488281 218.140625 C 237.746094 218.140625 239 217.625 239.90625 216.613281 C 241.601562 214.71875 241.449219 211.804688 239.5625 210.101562 C 200.519531 174.894531 158.75 179.910156 156.992188 180.140625 Z M 156.992188 180.140625 "/>
<path style=" stroke:none;fill-rule:nonzero;fill:rgb(0%,0%,0%);fill-opacity:1;" d="M 124.558594 261.601562 C 110.792969 259.558594 99.671875 249.179688 99.472656 248.988281 C 97.632812 247.238281 94.726562 247.3125 92.980469 249.15625 C 91.226562 251 91.296875 253.914062 93.136719 255.671875 C 93.671875 256.183594 106.449219 268.234375 123.210938 270.726562 C 123.4375 270.757812 123.664062 270.773438 123.890625 270.773438 C 126.128906 270.773438 128.089844 269.128906 128.429688 266.839844 C 128.800781 264.320312 127.066406 261.976562 124.558594 261.601562 Z M 124.558594 261.601562 "/>
</g>
</svg>
