<?xml version="1.0" encoding="UTF-8"?>
<svg xmlns="http://www.w3.org/2000/svg" xmlns:xlink="http://www.w3.org/1999/xlink" width="375pt" height="374.999991pt" viewBox="0 0 375 374.999991" version="1.2">
<defs>
<clipPath id="clip1">
  <path d="M 3 114 L 367 114 L 367 276.621094 L 3 276.621094 Z M 3 114 "/>
</clipPath>
</defs>
<g id="surface1">
<path style=" stroke:none;fill-rule:nonzero;fill:rgb(0%,0%,0%);fill-opacity:1;" d="M 19.4375 185.597656 C 16.574219 186.976562 16.753906 187.554688 16.644531 187.65625 C 16.644531 187.65625 16.867188 187.847656 17.460938 187.9375 C 19.304688 188.1875 21.9375 186.910156 22.695312 185.136719 C 22.941406 184.546875 22.855469 184.21875 22.855469 184.21875 C 22.535156 184.332031 22.898438 183.875 19.4375 185.597656 "/>
<path style=" stroke:none;fill-rule:nonzero;fill:rgb(0%,0%,0%);fill-opacity:1;" d="M 49.015625 193.828125 C 49.34375 193.273438 49.429688 193.035156 49.429688 193.035156 C 48.625 193.746094 47.980469 194.460938 46.257812 195.40625 C 36.394531 200.726562 25.675781 189.765625 30.917969 182.886719 C 31.710938 181.828125 33.984375 179.730469 34.992188 178.871094 C 15.375 187.316406 40.222656 208.136719 49.015625 193.828125 "/>
<path style=" stroke:none;fill-rule:nonzero;fill:rgb(0%,0%,0%);fill-opacity:1;" d="M 64.449219 194.179688 C 62.417969 213.210938 47.007812 220.746094 31.445312 214.804688 C 30.839844 214.582031 30.613281 214.535156 30.613281 214.535156 C 30.613281 214.535156 30.859375 214.738281 31.484375 215.183594 C 43.34375 223.570312 62.84375 215.914062 64.683594 199.214844 C 64.867188 197.3125 64.761719 196.042969 64.644531 195.261719 C 64.527344 194.480469 64.449219 194.179688 64.449219 194.179688 "/>
<path style=" stroke:none;fill-rule:nonzero;fill:rgb(0%,0%,0%);fill-opacity:1;" d="M 37.726562 181.832031 C 41.308594 181.152344 43.648438 182.890625 44.585938 185.742188 C 45.703125 189.777344 44.160156 189.285156 43.449219 190.582031 C 45.542969 186.785156 41.363281 184.632812 38.230469 185.09375 C 36.5 185.34375 33.296875 187.78125 35.132812 189.859375 C 32.644531 187.046875 34.46875 182.101562 37.726562 181.832031 Z M 40.273438 191.015625 C 39.378906 191.457031 37.652344 190.328125 38.875 189.441406 C 40.054688 188.582031 41.382812 190.457031 40.273438 191.015625 Z M 39.96875 193.855469 C 52.742188 193.832031 47.296875 175.074219 36.195312 180.429688 C 28.917969 183.941406 32.5 193.867188 39.96875 193.855469 "/>
<path style=" stroke:none;fill-rule:nonzero;fill:rgb(0%,0%,0%);fill-opacity:1;" d="M 170.34375 174.046875 C 169.136719 173.652344 168.65625 173.832031 168.546875 173.835938 C 168.546875 173.835938 168.644531 173.933594 168.898438 174.113281 C 170.363281 175.195312 171.183594 176.011719 171.941406 176.964844 C 176.285156 182.667969 172.746094 188.191406 172.410156 189.519531 C 172.515625 189.417969 174.535156 188.53125 175.550781 185.335938 C 175.976562 184.011719 176.253906 182.1875 175.679688 180.039062 C 174.832031 176.984375 172.605469 174.792969 170.34375 174.046875 "/>
<path style=" stroke:none;fill-rule:nonzero;fill:rgb(0%,0%,0%);fill-opacity:1;" d="M 123.804688 173.273438 C 125.414062 178.289062 126.035156 180.417969 123.792969 187.300781 C 123.898438 187.195312 125.921875 185.933594 127.039062 183.363281 C 128.636719 179.664062 127.214844 174.824219 123.804688 173.273438 "/>
<path style=" stroke:none;fill-rule:nonzero;fill:rgb(0%,0%,0%);fill-opacity:1;" d="M 123.195312 204.375 C 123.300781 204.285156 127.488281 204.054688 128.582031 198.480469 C 129.105469 195.800781 128.414062 192.507812 125.933594 191.421875 C 126.96875 194.398438 127.042969 196.085938 126.617188 198.171875 C 125.917969 201.609375 123.71875 203.570312 123.195312 204.375 "/>
<path style=" stroke:none;fill-rule:nonzero;fill:rgb(0%,0%,0%);fill-opacity:1;" d="M 130.207031 185.476562 C 134.222656 191.1875 133.730469 193.980469 131.625 199.429688 C 137.472656 196.347656 135.429688 186.105469 130.207031 185.476562 "/>
<path style=" stroke:none;fill-rule:nonzero;fill:rgb(0%,0%,0%);fill-opacity:1;" d="M 111.351562 175.863281 C 115.367188 181.574219 114.878906 184.371094 112.773438 189.820312 C 118.621094 186.738281 116.574219 176.496094 111.351562 175.863281 "/>
<path style=" stroke:none;fill-rule:nonzero;fill:rgb(0%,0%,0%);fill-opacity:1;" d="M 137.945312 185.878906 C 140.296875 184.011719 141.824219 181.402344 141.492188 178.589844 C 140.835938 173.035156 136.515625 171.71875 136.425781 171.621094 C 140.371094 179.363281 138.46875 180.4375 137.945312 185.878906 "/>
<path style=" stroke:none;fill-rule:nonzero;fill:rgb(0%,0%,0%);fill-opacity:1;" d="M 146.316406 174.304688 C 146.367188 177.585938 144.078125 179.972656 143.625 180.828125 C 143.734375 180.773438 145.5625 180.679688 147.09375 178.351562 C 148.738281 175.945312 148.742188 172.578125 146.902344 170.121094 C 145.285156 167.921875 143.671875 168.167969 143.5625 168.121094 C 144.964844 170.042969 146.292969 171.589844 146.316406 174.304688 "/>
<path style=" stroke:none;fill-rule:nonzero;fill:rgb(0%,0%,0%);fill-opacity:1;" d="M 200.769531 194.925781 C 200.628906 195.171875 200.578125 195.300781 200.578125 195.300781 C 203.867188 193.863281 205.121094 190.425781 204.714844 187.429688 C 204.292969 184.410156 202.0625 181.40625 198.964844 181.3125 C 199.105469 181.65625 204.34375 185.335938 202.378906 191.496094 C 201.933594 192.96875 201.398438 193.753906 200.769531 194.925781 "/>
<path style=" stroke:none;fill-rule:nonzero;fill:rgb(0%,0%,0%);fill-opacity:1;" d="M 229.25 176.355469 C 229.25 176.355469 229.355469 176.453125 229.613281 176.632812 C 230.867188 177.519531 231.808594 178.53125 232.515625 179.632812 C 236.394531 186.21875 229.679688 190.785156 229.410156 191.144531 C 229.519531 191.132812 230.183594 191.238281 231.472656 190.621094 C 238.519531 187.148438 235.996094 176.230469 229.25 176.355469 "/>
<path style=" stroke:none;fill-rule:nonzero;fill:rgb(0%,0%,0%);fill-opacity:1;" d="M 281.234375 178.671875 C 279.824219 178.578125 279.515625 178.972656 279.503906 178.929688 C 280.214844 179.230469 280.519531 179.351562 281.140625 179.6875 C 285.53125 182.136719 286.265625 187.300781 281.449219 191.238281 C 281.265625 191.390625 281.171875 191.488281 281.140625 191.53125 C 281.222656 191.53125 281.800781 191.65625 283.070312 191.113281 C 285.46875 189.933594 287.132812 187.128906 286.644531 184.085938 C 286.261719 181.898438 283.691406 178.980469 281.234375 178.671875 "/>
<path style=" stroke:none;fill-rule:nonzero;fill:rgb(0%,0%,0%);fill-opacity:1;" d="M 298.675781 191.777344 C 298.140625 191.496094 297.765625 191.414062 297.53125 191.382812 C 297.296875 191.359375 297.199219 191.382812 297.199219 191.382812 C 301.355469 197.023438 300.769531 199.34375 298.097656 204.738281 C 298.203125 204.664062 299.953125 204.3125 301.277344 201.792969 C 301.8125 200.765625 302.289062 199.316406 302.144531 197.480469 C 301.90625 194.765625 300.351562 192.667969 298.675781 191.777344 "/>
<path style=" stroke:none;fill-rule:nonzero;fill:rgb(0%,0%,0%);fill-opacity:1;" d="M 305.441406 187.117188 C 306.042969 189.992188 304.488281 192.429688 304.234375 193.324219 C 304.453125 193.230469 304.886719 193.183594 305.597656 192.554688 C 308.15625 190.308594 308.285156 185.753906 305.269531 183.230469 C 303.269531 181.605469 301.941406 182.273438 301.832031 182.261719 C 302.113281 182.578125 304.785156 184.214844 305.441406 187.117188 "/>
<path style=" stroke:none;fill-rule:nonzero;fill:rgb(0%,0%,0%);fill-opacity:1;" d="M 296.914062 177.351562 C 296 176.976562 295.597656 177.152344 295.492188 177.15625 C 300.816406 182.917969 297.609375 185.894531 296.109375 188.894531 C 295.707031 187.769531 295.128906 186.894531 294.585938 186.222656 C 292.445312 183.621094 290.425781 183.808594 290.316406 183.765625 C 290.355469 183.988281 298.414062 189.726562 292.503906 198.445312 C 292.078125 199.058594 291.765625 199.464844 291.5625 199.71875 C 291.359375 199.976562 291.300781 200.113281 291.300781 200.113281 C 291.300781 200.113281 291.425781 200.082031 291.746094 199.976562 C 292.066406 199.855469 292.570312 199.632812 293.21875 199.140625 C 293.871094 198.640625 294.691406 197.875 295.429688 196.601562 C 296.144531 195.355469 296.804688 193.539062 296.621094 191.238281 C 296.550781 190.375 296.367188 189.597656 296.121094 188.914062 C 297.84375 188.914062 300.636719 186.199219 300.390625 182.527344 C 300.191406 180.03125 298.660156 178.078125 296.914062 177.351562 "/>
<path style=" stroke:none;fill-rule:nonzero;fill:rgb(0%,0%,0%);fill-opacity:1;" d="M 230.648438 195.851562 C 230.390625 195.769531 230.289062 195.78125 230.289062 195.78125 C 236.628906 204.285156 231.78125 210.324219 231.664062 211.421875 C 231.664062 211.421875 231.78125 211.382812 232.035156 211.210938 C 232.304688 211.046875 232.730469 210.777344 233.230469 210.230469 C 235.75 207.699219 236.511719 202.417969 233.902344 198.480469 C 232.917969 197.175781 232.253906 196.445312 230.648438 195.851562 "/>
<path style=" stroke:none;fill-rule:nonzero;fill:rgb(0%,0%,0%);fill-opacity:1;" d="M 239.15625 186.832031 C 238.691406 186.398438 238.097656 186.101562 237.265625 185.933594 C 237.050781 185.914062 236.96875 185.933594 236.96875 185.933594 C 240.25 190.851562 240.265625 193.023438 238.449219 198.46875 C 238.777344 198.300781 239.164062 198.195312 239.765625 197.5625 C 242.460938 194.996094 242.125 189.195312 239.15625 186.832031 "/>
<path style=" stroke:none;fill-rule:nonzero;fill:rgb(0%,0%,0%);fill-opacity:1;" d="M 184.300781 191.203125 C 185.019531 188.019531 184.375 183.972656 180.800781 181.628906 C 179.230469 180.601562 177.300781 180.871094 177.195312 180.839844 C 177.300781 180.929688 178.496094 181.929688 178.601562 182.03125 C 185.292969 188.082031 181.648438 194.554688 181.761719 195.171875 C 181.855469 195.050781 183.570312 194.179688 184.300781 191.203125 "/>
<path style=" stroke:none;fill-rule:nonzero;fill:rgb(0%,0%,0%);fill-opacity:1;" d="M 90.707031 239.828125 C 88.433594 245.324219 86.59375 245.097656 84.816406 247.027344 C 88.597656 248.191406 93.03125 242.992188 90.847656 239.582031 C 90.847656 239.582031 90.796875 239.65625 90.707031 239.828125 "/>
<path style=" stroke:none;fill-rule:nonzero;fill:rgb(0%,0%,0%);fill-opacity:1;" d="M 99.609375 241.195312 C 99.410156 241.195312 99.59375 243.105469 98.167969 245.175781 C 97 246.78125 96.546875 246.769531 95.425781 248.070312 C 95.445312 248.070312 95.699219 248.308594 96.460938 248.308594 C 98.585938 248.277344 100.6875 245.972656 100.71875 243.664062 C 100.75 241.621094 99.609375 241.300781 99.609375 241.195312 "/>
<path style=" stroke:none;fill-rule:nonzero;fill:rgb(0%,0%,0%);fill-opacity:1;" d="M 263.359375 152.808594 C 261.882812 152.675781 261.109375 152.59375 261.109375 152.59375 C 261.1875 152.640625 261.992188 152.726562 263.359375 152.808594 "/>
<path style=" stroke:none;fill-rule:nonzero;fill:rgb(0%,0%,0%);fill-opacity:1;" d="M 176.375 160.308594 C 176.097656 160.257812 175.988281 160.269531 175.988281 160.269531 C 181.289062 165.625 180.375 169.078125 176.703125 173.804688 C 176.703125 173.804688 176.832031 173.785156 177.125 173.691406 C 178.277344 173.328125 179.597656 172.425781 180.535156 171.042969 C 182.320312 168.386719 182.003906 165.082031 179.902344 162.601562 C 179.039062 161.582031 177.769531 160.613281 176.375 160.308594 "/>
<path style=" stroke:none;fill-rule:nonzero;fill:rgb(0%,0%,0%);fill-opacity:1;" d="M 119.46875 154.078125 C 126.160156 161.925781 122.90625 167.332031 122.882812 169.414062 C 127.136719 165.714844 126.613281 156.402344 119.46875 154.078125 "/>
<path style=" stroke:none;fill-rule:nonzero;fill:rgb(0%,0%,0%);fill-opacity:1;" d="M 107.351562 167.574219 C 107.429688 167.445312 108.675781 166.597656 109.15625 163.839844 C 109.839844 159.859375 107.738281 154.640625 104.054688 153.9375 C 106.804688 158.429688 107.910156 160.355469 107.351562 167.574219 "/>
<path style=" stroke:none;fill-rule:nonzero;fill:rgb(0%,0%,0%);fill-opacity:1;" d="M 127.441406 161.5 C 133.492188 169.816406 128.835938 175.917969 128.828125 176.878906 C 128.886719 176.773438 133.667969 174.570312 132.910156 168.148438 C 132.546875 165.0625 130.265625 161.777344 127.207031 161.148438 C 127.207031 161.148438 127.269531 161.265625 127.441406 161.5 "/>
<path style=" stroke:none;fill-rule:nonzero;fill:rgb(0%,0%,0%);fill-opacity:1;" d="M 114.550781 164.003906 C 115.757812 165.738281 117.363281 167.414062 117.863281 171.203125 C 118.351562 175.300781 116.609375 178.066406 116.300781 179.199219 C 124.753906 170.910156 118.460938 164.953125 114.550781 164.003906 "/>
<path style=" stroke:none;fill-rule:nonzero;fill:rgb(0%,0%,0%);fill-opacity:1;" d="M 88.339844 192.914062 C 88.824219 197.011719 87.085938 199.777344 86.773438 200.914062 C 95.230469 192.621094 88.9375 186.664062 85.027344 185.714844 C 86.234375 187.453125 87.839844 189.125 88.339844 192.914062 "/>
<path style=" stroke:none;fill-rule:nonzero;fill:rgb(0%,0%,0%);fill-opacity:1;" d="M 142.117188 167.675781 C 143.753906 165.265625 143.757812 161.902344 141.921875 159.441406 C 140.304688 157.246094 138.6875 157.488281 138.582031 157.445312 C 139.984375 159.359375 141.3125 160.910156 141.335938 163.625 C 141.386719 166.90625 139.09375 169.296875 138.648438 170.152344 C 138.753906 170.09375 140.582031 170.003906 142.117188 167.675781 "/>
<path style=" stroke:none;fill-rule:nonzero;fill:rgb(0%,0%,0%);fill-opacity:1;" d="M 148.519531 158.417969 C 150.160156 156.011719 150.164062 152.644531 148.324219 150.1875 C 146.707031 147.988281 145.09375 148.234375 144.984375 148.1875 C 146.386719 150.109375 147.71875 151.65625 147.742188 154.371094 C 147.789062 157.652344 145.496094 160.039062 145.050781 160.898438 C 145.15625 160.839844 146.984375 160.746094 148.519531 158.417969 "/>
<path style=" stroke:none;fill-rule:nonzero;fill:rgb(0%,0%,0%);fill-opacity:1;" d="M 109.621094 147.722656 C 111.375 149.320312 112.984375 150.574219 113.546875 153.230469 C 114.25 156.429688 112.476562 159.234375 112.210938 160.164062 C 112.300781 160.085938 114.074219 159.632812 115.117188 157.042969 C 116.242188 154.363281 115.589844 151.0625 113.289062 149.015625 C 111.265625 147.183594 109.730469 147.746094 109.621094 147.722656 "/>
<path style=" stroke:none;fill-rule:nonzero;fill:rgb(0%,0%,0%);fill-opacity:1;" d="M 84.625 175.175781 C 85.785156 178.242188 84.4375 181.265625 84.308594 182.226562 C 84.386719 182.136719 86.078125 181.429688 86.730469 178.71875 C 87.457031 175.90625 86.328125 172.738281 83.757812 171.039062 C 81.496094 169.519531 80.054688 170.296875 79.941406 170.292969 C 81.90625 171.621094 83.679688 172.625 84.625 175.175781 "/>
<path style=" stroke:none;fill-rule:nonzero;fill:rgb(0%,0%,0%);fill-opacity:1;" d="M 92.804688 181.148438 C 93.773438 184.277344 92.242188 187.21875 92.054688 188.167969 C 92.140625 188.078125 93.867188 187.476562 94.6875 184.8125 C 95.582031 182.050781 94.65625 178.820312 92.195312 176.964844 C 90.023438 175.3125 88.542969 176 88.429688 175.984375 C 90.3125 177.429688 92.023438 178.546875 92.804688 181.148438 "/>
<path style=" stroke:none;fill-rule:nonzero;fill:rgb(0%,0%,0%);fill-opacity:1;" d="M 213.308594 160.007812 C 216.511719 163.152344 217.988281 165.714844 217.417969 170.855469 C 217.117188 172.65625 217.25 172.132812 217.226562 172.375 C 219.554688 170.445312 219.761719 167.34375 218.933594 164.839844 C 217.234375 159.710938 213.417969 160.066406 213.308594 160.007812 "/>
<path style=" stroke:none;fill-rule:nonzero;fill:rgb(0%,0%,0%);fill-opacity:1;" d="M 294.441406 173.765625 C 294.441406 173.765625 293.539062 173.675781 291.667969 173.5 C 244.296875 170.097656 191.597656 116.515625 102.902344 137.933594 C 91.609375 141.167969 82.554688 144.148438 58.59375 157.414062 C 52.195312 160.925781 51.871094 161.503906 59.109375 158.472656 C 92.316406 144.417969 136.027344 118.746094 221.074219 151.183594 C 243.371094 159.863281 267.203125 174.042969 290.542969 174.777344 C 292.421875 174.878906 294.441406 173.765625 294.441406 173.765625 "/>
<path style=" stroke:none;fill-rule:nonzero;fill:rgb(0%,0%,0%);fill-opacity:1;" d="M 132.617188 151.398438 C 132.167969 149.199219 130.941406 147.496094 129.863281 146.730469 C 128.777344 145.832031 127.675781 145.914062 127.570312 145.890625 C 127.902344 147.019531 132.367188 148.972656 130.046875 158.886719 C 130.101562 158.777344 133.710938 156.910156 132.617188 151.398438 "/>
<path style=" stroke:none;fill-rule:nonzero;fill:rgb(0%,0%,0%);fill-opacity:1;" d="M 90.664062 147.972656 C 102.117188 143.421875 131.679688 138.15625 160.710938 140.820312 C 196.402344 144.105469 236.585938 160.800781 243.074219 164.914062 C 243.074219 164.914062 242.195312 164.359375 239.972656 163.042969 C 186.546875 134.820312 127.507812 132.277344 90.664062 147.972656 "/>
<path style=" stroke:none;fill-rule:nonzero;fill:rgb(0%,0%,0%);fill-opacity:1;" d="M 90.664062 147.972656 C 90.277344 148.132812 89.902344 148.285156 89.558594 148.4375 C 89.917969 148.277344 90.296875 148.132812 90.664062 147.972656 "/>
<path style=" stroke:none;fill-rule:nonzero;fill:rgb(0%,0%,0%);fill-opacity:1;" d="M 137.226562 152.710938 C 139.320312 151.621094 141.140625 150.699219 141.703125 148.027344 C 142.605469 143.730469 139.703125 142.734375 138.898438 141.367188 C 139.976562 143.195312 140.191406 146.347656 139.605469 148.375 C 139.3125 149.394531 138.253906 152.167969 137.226562 152.710938 "/>
<path style=" stroke:none;fill-rule:nonzero;fill:rgb(0%,0%,0%);fill-opacity:1;" d="M 112.453125 227.078125 C 129.660156 228.109375 157.894531 229.007812 166.609375 229.070312 C 152.210938 230.949219 132.785156 229.207031 110.226562 230.914062 C 111.160156 229.597656 111.886719 228.316406 112.453125 227.078125 Z M 111.511719 211.792969 C 130.636719 213.785156 165.835938 216.882812 200.554688 221.148438 C 195.21875 221.460938 199.820312 221.5625 113.367188 215.691406 C 112.898438 214.207031 112.234375 212.898438 111.511719 211.792969 Z M 108.089844 208.117188 C 155.667969 205.875 178.964844 214.449219 196.3125 218.28125 C 145.738281 212.546875 126.824219 211.003906 110.761719 210.746094 C 109.773438 209.460938 108.769531 208.5625 108.089844 208.117188 Z M 113.933594 221.976562 C 114.164062 220.109375 114.03125 218.382812 113.671875 216.824219 C 128.199219 218.894531 156.546875 221.96875 202.75 222.535156 C 187.730469 224.613281 197.234375 225.464844 113.933594 221.976562 Z M 112.910156 225.984375 C 113.289062 225.003906 113.5625 224.054688 113.746094 223.132812 C 133.28125 225.320312 181.375 226.242188 194.867188 225.863281 C 174.355469 229.074219 153.089844 225.855469 112.910156 225.984375 Z M 105.207031 233.152344 C 105.316406 233.152344 167.859375 232.117188 179.183594 228.761719 C 200.417969 227.359375 206.460938 221.191406 208.140625 221.761719 C 205.152344 220.746094 201.894531 220.28125 198.820312 219.441406 C 199.496094 219.359375 200.167969 219.191406 200.847656 219.097656 C 197.835938 218.125 195.078125 216.5625 192.066406 215.589844 C 146.269531 200.789062 103.84375 206.414062 103.734375 206.308594 C 108.28125 210.863281 119.972656 219.269531 105.207031 233.152344 "/>
<path style=" stroke:none;fill-rule:nonzero;fill:rgb(0%,0%,0%);fill-opacity:1;" d="M 173.0625 218.535156 C 173.058594 218.542969 173.058594 218.546875 173.054688 218.554688 C 173.101562 218.5625 173.148438 218.566406 173.199219 218.574219 C 173.152344 218.558594 173.105469 218.546875 173.0625 218.535156 "/>
<path style=" stroke:none;fill-rule:nonzero;fill:rgb(0%,0%,0%);fill-opacity:1;" d="M 296.234375 145.953125 C 295.609375 145.308594 295.03125 144.691406 294.457031 144.035156 C 283.976562 145.023438 275.992188 145.476562 270.179688 145.886719 C 270.410156 145.894531 280.816406 146.96875 296.234375 145.953125 "/>
<path style=" stroke:none;fill-rule:nonzero;fill:rgb(0%,0%,0%);fill-opacity:1;" d="M 318.003906 174.492188 C 318.375 175.730469 318.726562 176.980469 319.066406 178.226562 C 320.246094 178.027344 321.433594 177.832031 322.625 177.644531 C 322.296875 176.300781 321.929688 174.96875 321.519531 173.652344 C 320.34375 173.9375 319.171875 174.210938 318.003906 174.492188 "/>
<path style=" stroke:none;fill-rule:nonzero;fill:rgb(0%,0%,0%);fill-opacity:1;" d="M 345.816406 167.136719 C 346.429688 169.15625 347.035156 171.476562 347.710938 174.671875 C 348.875 174.578125 350.039062 174.496094 351.195312 174.414062 C 350.632812 171.609375 349.945312 168.820312 349.121094 166.09375 C 348.023438 166.445312 346.921875 166.796875 345.816406 167.136719 "/>
<path style=" stroke:none;fill-rule:nonzero;fill:rgb(0%,0%,0%);fill-opacity:1;" d="M 325.441406 172.695312 C 325.738281 174.148438 325.960938 175.621094 326.15625 177.109375 C 327.3125 176.941406 328.46875 176.777344 329.628906 176.621094 C 329.480469 174.992188 329.285156 173.378906 329.007812 171.800781 C 327.820312 172.101562 326.632812 172.398438 325.441406 172.695312 "/>
<g clip-path="url(#clip1)" clip-rule="nonzero">
<path style=" stroke:none;fill-rule:nonzero;fill:rgb(0%,0%,0%);fill-opacity:1;" d="M 361.445312 167.171875 C 360.878906 162.941406 359.941406 157.945312 358.738281 153.835938 C 360.554688 153.625 362.351562 153.375 364.089844 152.777344 C 364.722656 156.855469 361.363281 161.121094 361.445312 167.171875 Z M 363.117188 229.859375 C 362.847656 232.964844 360.878906 238.867188 358.105469 240.53125 C 358.09375 240.542969 358.085938 240.542969 358.074219 240.542969 C 363.96875 223.996094 358.527344 211.109375 358.371094 215.03125 C 358.261719 217.851562 358.210938 220.617188 358.085938 223.359375 C 357.582031 223.167969 356.984375 222.945312 356.265625 222.6875 C 357.335938 212.617188 359.980469 179.597656 355.785156 163.835938 C 355.402344 164 352.964844 164.820312 352.496094 164.976562 C 353.410156 168.4375 353.90625 171.453125 354.34375 175.292969 C 347.164062 175.449219 330.972656 179.90625 317.128906 179.453125 C 317.085938 179.460938 317.039062 179.472656 317 179.480469 C 316.996094 179.472656 316.992188 179.460938 316.992188 179.449219 C 315.765625 179.40625 315.929688 178.765625 316.769531 178.617188 C 314.511719 170.167969 312.90625 174.691406 319.871094 171.941406 C 320.257812 171.792969 352.625 162.15625 353.015625 162.023438 C 353.410156 161.886719 357.59375 160 357.5 159.6875 C 358.179688 161.867188 358.742188 164.105469 359.132812 166.4375 C 361.296875 179.488281 360.011719 195.277344 359.910156 195.382812 C 359.199219 199.414062 358.957031 203.894531 360.214844 207.753906 C 360.765625 209.425781 360.792969 211.828125 361.152344 213.625 C 362.199219 218.871094 363.570312 224.480469 363.117188 229.859375 Z M 354.542969 241.578125 C 353.871094 241.632812 353.175781 241.621094 352.460938 241.578125 C 352.097656 241.554688 351.734375 241.523438 351.371094 241.472656 C 352.898438 238.863281 353.945312 235.898438 354.648438 233.011719 C 355.882812 233.148438 355.859375 233.113281 356.003906 233.128906 C 355.898438 233.085938 355.558594 232.933594 354.730469 232.652344 C 355.363281 229.921875 355.820312 226.535156 356.144531 223.75 C 356.894531 223.882812 357.527344 223.984375 358.054688 224.058594 C 357.71875 230.613281 356.945312 235.574219 354.542969 241.578125 Z M 343.742188 239.285156 C 345.054688 236.832031 346.203125 234.257812 347.199219 231.605469 C 348.597656 231.941406 350.179688 232.285156 351.636719 232.550781 C 350.800781 235.488281 349.640625 238.210938 347.988281 240.777344 C 346.589844 240.40625 345.167969 239.894531 343.742188 239.285156 Z M 340.925781 237.980469 C 339.5625 237.296875 338.363281 236.65625 336.996094 235.886719 C 338.53125 234.046875 339.796875 232.007812 340.839844 229.835938 C 341.949219 230.183594 342.988281 230.488281 343.957031 230.757812 C 343 233.1875 341.96875 235.582031 340.925781 237.980469 Z M 332.398438 233.21875 C 331.445312 232.683594 330.484375 232.128906 329.515625 231.574219 C 330.792969 230.148438 332.007812 228.660156 333.125 227.125 C 334.628906 227.703125 336.042969 228.222656 337.371094 228.6875 C 336.382812 230.566406 335.253906 232.390625 333.957031 234.125 C 333.445312 233.824219 332.921875 233.527344 332.398438 233.21875 Z M 324.445312 228.507812 C 325.320312 227.25 326.050781 225.875 326.675781 224.425781 C 327.84375 224.949219 329.085938 225.488281 330.429688 226.046875 C 329.484375 227.519531 328.480469 228.949219 327.445312 230.367188 C 326.316406 229.710938 324.601562 228.613281 324.445312 228.507812 Z M 321.285156 220.003906 C 322.789062 215.277344 323.722656 210.339844 324.210938 205.390625 C 325.101562 205.601562 326.097656 205.820312 327.183594 206.054688 C 327.027344 209.011719 326.703125 211.890625 326.117188 214.667969 C 324.714844 214.496094 324.269531 214.546875 324.269531 214.546875 C 324.269531 214.546875 324.742188 214.792969 325.988281 215.292969 C 325.523438 217.339844 324.914062 219.328125 324.113281 221.238281 C 323.09375 220.800781 322.152344 220.386719 321.285156 220.003906 Z M 321.296875 226.4375 C 320.679688 226.019531 320.046875 225.59375 319.410156 225.15625 C 319.910156 223.984375 320.367188 222.792969 320.789062 221.585938 C 321.582031 221.996094 322.441406 222.429688 323.359375 222.875 C 322.765625 224.09375 322.082031 225.285156 321.296875 226.4375 Z M 331.472656 224.328125 C 330.007812 223.730469 328.648438 223.167969 327.386719 222.636719 C 328.097656 220.65625 328.625 218.554688 329.015625 216.40625 C 330.421875 216.898438 332.207031 217.484375 334.433594 218.167969 C 333.699219 220.117188 332.851562 221.972656 331.472656 224.328125 Z M 337.710938 219.152344 C 338.675781 219.429688 339.703125 219.726562 340.792969 220.035156 C 340.125 222.414062 339.273438 224.722656 338.230469 226.949219 C 336.996094 226.488281 335.691406 225.996094 334.296875 225.449219 C 335.675781 223.378906 336.78125 221.386719 337.710938 219.152344 Z M 346.976562 221.699219 C 346.378906 223.914062 345.8125 225.871094 344.550781 229.210938 C 343.625 228.894531 342.636719 228.546875 341.574219 228.167969 C 342.539062 225.847656 343.28125 223.394531 343.839844 220.871094 C 344.953125 221.175781 346 221.449219 346.976562 221.699219 Z M 353.296875 223.191406 C 353 226.230469 352.558594 229.046875 351.875 231.671875 C 349.855469 230.984375 350.226562 231.117188 347.675781 230.265625 C 348.582031 227.714844 349.355469 225.105469 350.015625 222.449219 C 351.234375 222.738281 352.324219 222.984375 353.296875 223.191406 Z M 353.796875 217.46875 C 353.863281 218.550781 354.378906 219.152344 354.902344 219.835938 C 355.164062 220.175781 355.425781 220.535156 355.636719 220.992188 C 351.449219 221.527344 329.296875 214.777344 329.234375 215.179688 C 329.671875 212.351562 329.898438 209.457031 329.996094 206.644531 C 332.484375 207.148438 334.515625 207.527344 336.59375 207.886719 C 336.5625 210.277344 336.136719 212.636719 335.488281 214.9375 C 336.617188 215.183594 337.75 215.433594 338.878906 215.683594 C 339.546875 213.230469 339.839844 210.8125 339.773438 208.402344 C 340.851562 208.566406 341.832031 208.703125 342.703125 208.816406 C 342.527344 211.355469 342.1875 213.855469 341.6875 216.304688 C 342.644531 216.519531 343.59375 216.730469 344.546875 216.941406 C 344.9375 214.347656 345.179688 211.714844 345.3125 209.109375 C 346.003906 209.175781 347.261719 209.28125 349.429688 209.363281 C 349.066406 212.167969 348.566406 214.957031 347.949219 217.722656 C 348.941406 217.953125 349.929688 218.175781 350.921875 218.40625 C 352.941406 208.382812 353.75 196.363281 352.761719 185.296875 C 353.832031 185.015625 354.234375 184.847656 354.234375 184.847656 C 354.234375 184.847656 353.808594 184.816406 352.722656 184.820312 C 352.464844 182.070312 352.085938 179.289062 351.597656 176.515625 C 352.761719 176.296875 353.691406 176.101562 354.417969 175.933594 C 355.609375 186.976562 355.113281 199.261719 354.335938 210.300781 C 354.175781 212.617188 353.65625 215.152344 353.796875 217.46875 Z M 318.011719 202.699219 C 318.09375 201.027344 318.480469 191.578125 318.105469 186.734375 C 318.5 186.769531 319.613281 186.914062 321.035156 187.042969 C 321.40625 189.292969 321.671875 191.589844 321.8125 193.933594 C 322.742188 193.917969 323.671875 193.914062 324.609375 193.921875 C 324.554688 191.746094 324.445312 189.527344 324.222656 187.273438 C 325.066406 187.320312 325.976562 187.363281 326.953125 187.394531 C 327.039062 189.640625 327.109375 192.105469 327.164062 193.984375 C 328.105469 194.015625 329.046875 194.058594 329.988281 194.109375 C 329.988281 191.984375 330.015625 189.753906 330.023438 187.453125 C 331 187.460938 332.027344 187.457031 333.109375 187.4375 C 333.074219 190.511719 333.316406 192.503906 333.71875 194.335938 C 334.601562 194.398438 335.484375 194.460938 336.367188 194.523438 C 335.722656 192.140625 335.570312 189.773438 335.636719 187.402344 C 337.613281 187.484375 339.617188 187.554688 341.617188 187.550781 C 341.867188 190.003906 342.105469 192.476562 342.339844 194.945312 C 343.320312 195.007812 344.300781 195.066406 345.28125 195.117188 C 345.210938 192.621094 345.121094 190.054688 344.980469 187.449219 C 346.566406 187.34375 348.128906 187.152344 349.636719 186.835938 C 349.921875 189.632812 350.113281 192.449219 350.179688 195.269531 C 350.695312 195.277344 351.207031 195.28125 351.722656 195.28125 C 352.375 195.277344 352.367188 196.214844 351.742188 196.277344 C 351.230469 196.332031 350.714844 196.382812 350.199219 196.433594 C 350.199219 196.453125 350.199219 196.480469 350.199219 196.511719 C 345.746094 196.117188 341.171875 196.429688 336.722656 196.230469 C 328.714844 195.871094 313.535156 194.296875 321.910156 195.949219 C 321.964844 198.105469 321.929688 200.261719 321.714844 202.929688 C 322.605469 202.992188 323.503906 203.058594 324.402344 203.125 C 324.5625 200.882812 324.648438 198.640625 324.652344 196.429688 C 325.363281 196.542969 326.238281 196.664062 327.25 196.792969 C 327.308594 199.003906 327.320312 201.195312 327.269531 203.355469 C 328.203125 203.433594 329.128906 203.503906 330.0625 203.59375 C 330.082031 201.300781 330.046875 199.109375 330.007812 197.097656 C 331.335938 197.234375 332.832031 197.367188 334.554688 197.5 C 335.21875 199.738281 335.925781 201.953125 336.304688 204.253906 C 337.335938 204.375 338.363281 204.5 339.394531 204.632812 C 339.007812 202.34375 338.351562 200.039062 337.460938 197.699219 C 339.394531 197.820312 341.101562 197.902344 342.609375 197.953125 C 342.796875 200.351562 342.886719 202.742188 342.851562 205.109375 C 343.714844 205.242188 344.570312 205.386719 345.429688 205.523438 C 345.472656 203.007812 345.433594 200.585938 345.363281 198.019531 C 347.449219 198.039062 349.023438 197.996094 350.195312 197.929688 C 350.175781 200.722656 350.039062 203.515625 349.773438 206.296875 C 350.355469 206.40625 350.9375 206.503906 351.515625 206.625 C 352.132812 206.75 352.015625 207.789062 351.386719 207.734375 C 351.132812 207.710938 352.507812 207.816406 347.664062 207.402344 C 346.390625 207.296875 345.015625 207.023438 343.726562 207.132812 C 343.195312 207.007812 308.972656 202.160156 318.011719 202.699219 Z M 349.558594 185.984375 C 349.558594 186 349.5625 186.015625 349.5625 186.03125 C 349.507812 186.023438 349.449219 186.019531 349.390625 186.011719 C 349.445312 186.003906 349.507812 185.992188 349.558594 185.984375 Z M 344.835938 185.082031 C 344.667969 182.628906 344.4375 180.164062 344.113281 177.714844 C 345.644531 177.5 347 177.296875 348.199219 177.105469 C 348.695312 179.6875 349.105469 182.285156 349.421875 184.898438 C 348.191406 184.9375 346.675781 185.003906 344.835938 185.082031 Z M 323.136719 179.925781 C 324.136719 179.855469 325.242188 179.765625 326.457031 179.667969 C 326.617188 181.324219 326.730469 183 326.820312 184.691406 C 327.882812 184.703125 328.941406 184.714844 330.003906 184.730469 C 329.984375 182.953125 329.945312 181.15625 329.84375 179.359375 C 330.96875 179.25 332.171875 179.132812 333.453125 178.996094 C 333.414062 180.933594 333.285156 182.863281 333.195312 184.789062 C 334.058594 184.8125 334.917969 184.835938 335.777344 184.863281 C 335.933594 182.808594 336.167969 180.753906 336.304688 178.683594 C 337.800781 178.515625 339.191406 178.351562 340.484375 178.191406 C 340.820312 180.484375 341.105469 182.792969 341.359375 185.113281 C 344.363281 185.289062 344.617188 185.21875 344.734375 185.699219 C 338.382812 185.621094 359.738281 185.898438 318.300781 185.738281 C 316.789062 185.1875 317.457031 181.539062 317.171875 180.234375 C 317.832031 180.214844 318.628906 180.1875 319.578125 180.140625 C 319.953125 181.628906 320.289062 183.128906 320.585938 184.632812 C 321.695312 184.644531 322.796875 184.65625 323.90625 184.664062 C 323.695312 183.085938 323.449219 181.5 323.136719 179.925781 Z M 315.246094 217.34375 C 317.007812 213.238281 317.679688 208.480469 317.960938 203.714844 C 318.753906 203.972656 319.90625 204.308594 321.53125 204.726562 C 321.007812 209.539062 319.996094 214.21875 318.671875 218.847656 C 317.308594 218.238281 316.179688 217.738281 315.246094 217.34375 Z M 317.199219 223.691406 C 315.898438 222.828125 314.554688 221.972656 313.15625 221.140625 C 313.804688 220.226562 314.363281 219.253906 314.851562 218.238281 C 316.042969 218.964844 317.183594 219.625 318.277344 220.238281 C 317.933594 221.394531 317.574219 222.542969 317.199219 223.691406 Z M 317.097656 171.519531 C 315.925781 171.988281 315.09375 172.355469 314.511719 172.625 C 313.691406 171.054688 312.695312 169.609375 311.527344 168.320312 C 312.550781 168.007812 314.328125 167.378906 315.625 166.925781 C 315.695312 167.148438 315.765625 167.367188 315.835938 167.589844 C 315.738281 168.042969 316.484375 169.558594 317.097656 171.519531 Z M 318.410156 165.929688 C 319.710938 165.460938 321.21875 164.921875 322.957031 164.3125 C 322.957031 164.335938 323.519531 165.820312 323.527344 165.839844 C 323.550781 165.832031 323.574219 165.824219 323.597656 165.816406 C 324.019531 166.824219 323.699219 165.980469 324.515625 168.839844 C 322.921875 169.375 321.550781 169.855469 320.363281 170.285156 C 320.261719 170.027344 320.152344 169.773438 320.042969 169.519531 C 320.246094 168.929688 320.097656 169.195312 318.410156 165.929688 Z M 331.425781 166.613281 C 330.230469 166.988281 329.109375 167.339844 328.0625 167.675781 C 327.441406 165.488281 326.410156 163.179688 326.390625 163.132812 C 327.320312 162.820312 328.308594 162.492188 329.34375 162.148438 C 329.371094 162.191406 331.410156 166.570312 331.425781 166.613281 Z M 337.71875 164.703125 C 335.589844 165.335938 334.65625 165.621094 334.492188 165.671875 C 334.234375 164.996094 332.5 161.371094 332.378906 161.160156 C 333.738281 160.726562 335.015625 160.335938 336.226562 159.964844 C 336.773438 161.53125 337.277344 163.109375 337.71875 164.703125 Z M 344.351562 162.789062 C 343.269531 163.089844 342.117188 163.414062 340.871094 163.777344 C 340.289062 162.1875 339.609375 160.652344 338.859375 159.160156 C 340.164062 158.769531 341.371094 158.414062 342.484375 158.089844 C 343.136719 159.640625 343.761719 161.203125 344.351562 162.789062 Z M 312.765625 216.902344 C 312.3125 217.992188 311.796875 219.039062 311.214844 220.019531 C 309.261719 218.945312 307.554688 218.066406 305.238281 217.167969 C 312.957031 214.773438 314.167969 207.371094 312.65625 199.429688 C 312.074219 196.082031 311.535156 196.113281 312.054688 189.851562 C 312.742188 182.511719 314.441406 173.257812 304.425781 169.492188 C 302.746094 169.953125 301.0625 170.355469 299.371094 170.699219 C 299.761719 170.707031 300.148438 170.710938 300.554688 170.71875 C 305.613281 170.820312 309.269531 174.582031 309.761719 179.859375 C 310.257812 184.792969 308.199219 191.375 309.121094 196.945312 C 309.285156 197.921875 309.496094 198.800781 309.472656 198.695312 C 313.714844 218.335938 299.734375 213.75 287.5 214.863281 C 274.082031 216.101562 251.25 229.945312 240.742188 238.492188 C 214.449219 259.886719 208.171875 256.789062 194.945312 258.40625 C 188.3125 259.214844 181.65625 259.859375 174.996094 260.339844 C 171.539062 260.585938 168.136719 260.699219 164.699219 260.710938 C 161.871094 260.71875 156.214844 262.375 153.660156 261.167969 C 157.050781 262.773438 160.039062 265.109375 163.441406 266.710938 C 174.15625 271.761719 172.820312 270.890625 172.320312 272.34375 C 149.320312 262.707031 149.449219 260.773438 134.371094 260.71875 C 134.371094 260.71875 134.574219 260.792969 135.070312 260.925781 C 148.304688 264.5 161.566406 272.394531 174.753906 274.808594 C 175.816406 275.433594 177.3125 275.808594 177.800781 276.03125 C 177.761719 276.027344 177.726562 276.023438 177.6875 276.019531 C 177.679688 276.03125 177.660156 276.039062 177.648438 276.046875 C 161.746094 274.128906 151.46875 270.691406 135.699219 264.46875 C 131.894531 262.96875 127.503906 262.363281 124.070312 260.078125 C 126.785156 264.238281 144.320312 271.550781 145.800781 272.15625 C 144.027344 271.429688 141.320312 271.6875 139.382812 271.1875 C 130.621094 268.929688 121.648438 262.136719 121.722656 260.234375 C 120.164062 259.566406 105.300781 259.855469 77.660156 247.65625 C 76.421875 247.109375 72.546875 244.53125 71.316406 244.800781 C 81.347656 242.574219 88.964844 231.433594 93.984375 222.496094 C 109.1875 194.953125 105.722656 187.71875 97.367188 175.042969 C 92.582031 167.777344 91.691406 164.285156 89.011719 160.820312 C 84.996094 155.410156 79.8125 155.121094 79.480469 154.96875 C 80.050781 155.320312 84.613281 156.132812 88.0625 161.640625 C 89.511719 163.9375 90.675781 166.992188 92.34375 170.742188 C 98.789062 184.421875 107.578125 189.871094 96.757812 211.796875 C 83.167969 239.167969 71.34375 245.359375 60.304688 239.015625 C 59.757812 238.71875 59.214844 238.40625 58.667969 238.128906 C 55.203125 236.3125 51.832031 234.863281 48.640625 233.472656 C 63.804688 235.007812 78.257812 223.5625 77.625 203.726562 C 76.503906 177.320312 67.386719 173.28125 67.316406 173.128906 C 67.375 173.324219 74.796875 179.914062 74.796875 204.878906 C 74.566406 224.195312 58.699219 234.964844 42.152344 230.324219 C 39.070312 229.363281 41.191406 229.851562 26.003906 221.984375 C 19.832031 218.808594 11.328125 214.351562 6.722656 209.222656 C 10.433594 210.902344 13.960938 209.421875 20.394531 211.347656 C 21.765625 211.753906 23.144531 212.214844 24.59375 212.074219 C 34.03125 211.183594 23.308594 201.347656 14.898438 190.769531 C 12.265625 187.460938 13.574219 186.851562 16.804688 185.046875 C 24.289062 180.867188 27.375 174.269531 35.472656 170.867188 C 40.574219 168.726562 46.355469 169.40625 51.738281 169.011719 C 51 169.066406 50.695312 167.894531 47.113281 167.28125 C 40.988281 166.226562 34.835938 168.417969 32.078125 170.660156 C 34.253906 168.75 36.484375 166.992188 38.949219 165.480469 C 148.609375 98.25 219.042969 145.59375 268.035156 164.511719 C 269.617188 165.125 271.148438 165.644531 272.613281 166.144531 C 272.65625 166.167969 272.6875 166.179688 272.730469 166.191406 C 277.886719 168.230469 284.371094 170.785156 290.007812 170.320312 C 304.691406 169.105469 313.808594 163.277344 342.347656 151.757812 C 345.628906 150.4375 347.53125 150.609375 348.632812 153.546875 C 339.148438 156.40625 322.9375 162.757812 315.261719 165.808594 C 315.269531 165.832031 315.277344 165.855469 315.285156 165.882812 C 314.097656 166.488281 312.453125 167.382812 311.371094 168.140625 C 311.164062 167.917969 310.933594 167.722656 310.71875 167.515625 C 309.632812 167.894531 308.542969 168.253906 307.449219 168.59375 C 312.035156 173.445312 314.609375 179.257812 315.640625 185.761719 C 312 185.855469 312.765625 186.089844 315.761719 186.476562 C 316.71875 193.378906 316.171875 208.222656 312.964844 216.390625 C 311.566406 215.832031 311.257812 215.796875 311.148438 215.761719 C 311.265625 215.839844 311.464844 216.023438 312.765625 216.902344 Z M 278.886719 228.578125 C 279.101562 228.90625 279.355469 229.328125 279.511719 229.582031 C 274.082031 227.695312 267.984375 227.542969 262.023438 227.609375 C 263.148438 226.890625 264.804688 226.0625 265.933594 225.476562 C 267.269531 225.546875 274.671875 225.808594 278.886719 228.578125 Z M 284.773438 233.269531 C 285.011719 233.480469 285.230469 233.710938 285.433594 233.957031 C 285.332031 233.960938 285.246094 233.964844 285.140625 233.964844 C 280.703125 234.140625 279.71875 233.195312 276.394531 234.1875 C 274.996094 234.105469 269.4375 234.597656 253.808594 232.609375 C 254.269531 232.308594 257.167969 230.953125 258.546875 230.132812 C 258.824219 230.164062 259.085938 230.191406 259.378906 230.214844 C 267.878906 230.9375 274.6875 230.144531 284.773438 233.269531 Z M 291.382812 239.15625 C 291.382812 239.15625 291.382812 239.15625 291.371094 239.15625 C 290.347656 239.183594 288.984375 239.226562 287.1875 239.292969 C 271.984375 239.875 261.601562 239.707031 246.050781 238.042969 C 247.894531 236.6875 249.734375 235.375 251.566406 234.125 C 259.746094 236.769531 270.027344 237.660156 278.566406 236.675781 C 279.261719 236.59375 279.921875 236.503906 280.527344 236.421875 C 280.539062 236.421875 280.539062 236.421875 280.550781 236.421875 C 281.667969 236.65625 282.960938 236.933594 284.472656 237.304688 C 287.636719 238.105469 289.816406 238.765625 291.382812 239.15625 Z M 292.675781 239.535156 C 292.109375 240.164062 291.277344 240.78125 290.929688 241.089844 C 290.777344 241.222656 290.609375 241.34375 290.453125 241.480469 C 289.445312 241.753906 288.066406 242.144531 286.195312 242.613281 C 269.660156 247.027344 254.328125 247.542969 237.222656 244.792969 C 239.230469 243.203125 241.222656 241.664062 243.199219 240.15625 C 256.570312 242.746094 274.03125 243.375 287.414062 240.769531 C 289.890625 240.316406 291.523438 239.882812 292.539062 239.582031 C 292.585938 239.566406 292.628906 239.546875 292.675781 239.535156 Z M 274.554688 248.328125 C 260.105469 254.753906 243.824219 255.609375 228.804688 251.53125 C 229.835938 250.699219 233.515625 247.738281 235.59375 246.097656 C 235.601562 246.097656 235.613281 246.105469 235.625 246.105469 C 249.4375 250.371094 264.46875 250.367188 277.027344 247.226562 C 277.050781 247.21875 277.074219 247.21875 277.09375 247.207031 C 276.398438 247.546875 275.535156 247.878906 274.554688 248.328125 Z M 220.226562 256.601562 C 225.414062 254.796875 227.5 252.578125 227.398438 252.660156 C 234.769531 255.898438 242.339844 257.363281 251.324219 256.914062 C 251.597656 256.902344 251.875 256.878906 252.144531 256.859375 L 252.152344 256.859375 C 252.160156 256.859375 252.164062 256.859375 252.171875 256.859375 C 238.933594 259.058594 231.925781 258.238281 220.226562 256.601562 Z M 4.601562 204.167969 C 4.78125 204.808594 21.367188 206.019531 22.179688 205.703125 C 21.558594 205.328125 21.285156 204.628906 20.675781 204.28125 C 20.046875 203.921875 19.152344 204.066406 18.460938 203.976562 C 15.53125 203.582031 6.140625 193.75 7.660156 190.355469 C 7.789062 190.078125 9.394531 188.191406 9.660156 188.511719 C 11.355469 190.5625 12.902344 192.292969 14.511719 194.441406 C 23.636719 206.621094 24.578125 205.109375 25.167969 206.636719 C 26.066406 208.964844 24.835938 210.929688 19.828125 209.613281 C 14.929688 208.328125 6.5 210.925781 4.601562 204.167969 Z M 116.335938 124.855469 C 103.324219 130.382812 104.132812 133.3125 88.488281 138.382812 C 90.425781 137.109375 97.292969 132.242188 116.335938 124.855469 Z M 121.507812 129.832031 C 120.25 129.992188 119.007812 130.167969 117.773438 130.347656 C 120.601562 128.570312 122.734375 127.609375 123.453125 127.222656 C 123.335938 127.257812 118.136719 127.535156 112.875 131.148438 C 110.558594 131.554688 108.28125 131.996094 106.054688 132.480469 C 117.871094 125.488281 130.75 122.277344 144.449219 119.324219 C 127.808594 124.699219 124.8125 127.398438 121.507812 129.832031 Z M 184.992188 118.25 C 175.980469 120.496094 167.121094 124.433594 160.90625 128.644531 C 159.414062 128.546875 157.894531 128.464844 156.371094 128.402344 C 163.824219 123.3125 170.328125 120.488281 171.445312 119.90625 C 171.007812 120.058594 162.640625 121.402344 152.75 128.269531 C 150.351562 128.210938 147.925781 128.183594 145.457031 128.210938 C 161.636719 118.640625 173.140625 117 184.992188 118.25 Z M 209.773438 121.035156 C 197.207031 122.175781 183.871094 126.113281 175.625 130.140625 C 174.285156 129.957031 172.914062 129.796875 171.542969 129.636719 C 182.230469 123.902344 191.253906 122.289062 192.292969 121.960938 C 191.945312 122.03125 180.589844 122.085938 167.832031 129.234375 C 166.734375 129.121094 165.648438 129.003906 164.535156 128.914062 C 185.359375 118.605469 198.246094 118.640625 209.773438 121.035156 Z M 240.574219 124.40625 C 235.289062 124.429688 228.945312 124.820312 221.472656 126.101562 C 212.269531 127.675781 203.671875 130.128906 195.230469 133.800781 C 195.121094 133.78125 191.832031 133.042969 191.359375 132.921875 C 204.992188 126.609375 217.296875 125.199219 218.152344 125 C 217.429688 125.105469 204.082031 124.378906 187.863281 132.171875 C 186.128906 131.835938 181.785156 131.082031 180.035156 130.8125 C 201.558594 123.289062 220.613281 121.910156 240.574219 124.40625 Z M 256.0625 126.894531 C 257.007812 126.921875 257.851562 126.945312 258.621094 126.964844 C 259.347656 127.074219 260.070312 127.179688 260.792969 127.3125 C 259.742188 127.359375 258.660156 127.433594 257.511719 127.542969 C 240.972656 129.171875 224.351562 133.308594 211.546875 138.339844 C 210.46875 137.96875 211.121094 138.167969 208.136719 137.300781 C 220.953125 131.757812 231.585938 130.0625 232.84375 129.738281 C 232.453125 129.800781 219.890625 129.691406 204.871094 136.351562 C 200.347656 135.039062 200.519531 135.0625 199.007812 134.679688 C 217.40625 128.679688 236.210938 126.230469 256.0625 126.894531 Z M 276.179688 131.882812 C 256.859375 131.226562 236.929688 135.222656 221.558594 141.894531 C 220.515625 141.503906 220.722656 141.570312 214.996094 139.558594 C 229.648438 135.117188 243.5 132.167969 258.011719 130.019531 C 271.976562 127.976562 272.070312 130.5 276.179688 131.882812 Z M 281.570312 135.792969 C 264.851562 136.179688 244.042969 138.980469 228.273438 144.558594 C 227.054688 144.050781 225.816406 143.542969 224.558594 143.039062 C 242.542969 137.039062 260.160156 134.390625 279.296875 134.207031 C 280.039062 134.753906 280.796875 135.28125 281.570312 135.792969 Z M 232.25 146.277344 C 231.117188 145.773438 229.96875 145.28125 228.785156 144.777344 C 241.550781 142.203125 250.566406 140.375 265.773438 138.785156 C 282.699219 137.019531 282.933594 137.296875 292.226562 141.601562 C 269.6875 140.125 246.371094 142.746094 232.25 146.277344 Z M 288.808594 152.414062 C 277.515625 153.3125 267.636719 153.070312 263.359375 152.808594 C 266.933594 153.128906 274.660156 153.738281 285.707031 154.140625 C 285.351562 154.332031 284.992188 154.535156 284.636719 154.722656 C 276.003906 155.238281 270.828125 153.539062 250.414062 154.519531 C 249.304688 154.011719 244.570312 151.816406 243.433594 151.292969 C 258.449219 149.984375 290.878906 151.226562 288.808594 152.414062 Z M 261.085938 159.367188 C 259.519531 158.671875 257.882812 157.945312 256.199219 157.175781 C 256.605469 157.179688 278.707031 157.300781 279.121094 157.285156 C 274.558594 159.09375 270.097656 158.714844 261.085938 159.367188 Z M 351.28125 160.929688 C 350.246094 161.191406 349.066406 161.496094 347.726562 161.859375 C 347.140625 160.25 346.496094 158.675781 345.804688 157.128906 C 347.261719 156.707031 348.507812 156.351562 349.550781 156.035156 C 350.164062 157.65625 350.746094 159.28125 351.28125 160.929688 Z M 353.207031 148.730469 C 353.78125 150.023438 354.335938 151.320312 354.878906 152.621094 C 353.660156 152.816406 353.097656 152.863281 351.597656 153.289062 C 350.824219 151.921875 349.972656 150.613281 349.023438 149.375 C 350.21875 149.136719 351.703125 148.894531 353.207031 148.730469 Z M 357.457031 159.546875 C 356.988281 159.628906 356.101562 159.796875 354.65625 160.121094 C 354.054688 158.390625 353.359375 156.714844 352.558594 155.101562 C 355.210938 154.246094 353.925781 154.484375 355.546875 154.238281 C 356.242188 155.984375 356.890625 157.746094 357.457031 159.546875 Z M 363.707031 151.558594 C 361.882812 151.742188 360.042969 151.925781 358.210938 152.148438 C 357.808594 150.921875 357.378906 149.707031 356.875 148.527344 C 359.535156 148.527344 362.496094 149.21875 363.707031 151.558594 Z M 361.917969 185.957031 C 362.308594 181.757812 362.363281 177.5625 362.085938 173.320312 C 362.859375 177.90625 362.945312 180.667969 361.917969 185.957031 Z M 363.570312 187.207031 C 366.335938 176.140625 363.761719 173.707031 363.976562 166.808594 C 364.070312 160.550781 370.183594 153.425781 364.660156 148.1875 C 355.273438 141.386719 336.140625 149.898438 325.824219 155.203125 C 320.472656 157.953125 307.632812 163.027344 307.527344 163.070312 C 293.105469 169.453125 287.769531 170.824219 267.054688 161.953125 C 278.476562 161.824219 277.34375 160.214844 284.175781 157.65625 C 285.769531 156.183594 296.210938 148.164062 297.800781 147.355469 C 278.464844 148.160156 258.445312 145.96875 239.3125 149.414062 C 237.980469 148.808594 236.617188 148.1875 235.21875 147.570312 C 259.257812 144.285156 285.289062 143.777344 294.195312 143.734375 C 293.503906 142.9375 292.847656 142.113281 292.25 141.253906 C 278.761719 133.800781 280.898438 125.035156 245.367188 125.035156 L 242.605469 124.40625 C 238.886719 123.121094 234.855469 122.070312 229.628906 121.394531 C 225.96875 122.171875 221.082031 122.722656 217.457031 121.707031 C 214.308594 120.820312 211.347656 120.121094 208.375 118.660156 C 202.757812 117.8125 196.472656 117.484375 193.4375 117.808594 C 191.136719 117.21875 189.25 117.042969 185.621094 116.527344 C 180.65625 116.679688 175.734375 116.160156 170.890625 115.1875 C 161.492188 116.769531 150.105469 121.625 141.59375 128.269531 C 140.699219 128.292969 139.785156 128.328125 138.867188 128.363281 C 142.390625 125.835938 144.199219 124.148438 144.199219 124.148438 C 144.199219 124.148438 140.625 125.429688 134.976562 128.558594 C 131.996094 128.738281 129.085938 128.976562 126.589844 129.242188 C 127.394531 128.59375 158.800781 116.15625 170.761719 115.15625 C 169.609375 114.925781 168.464844 114.667969 167.320312 114.386719 C 156.316406 117.925781 151.019531 117.085938 146.917969 117.828125 C 135.132812 119.964844 120.871094 121.996094 108.320312 125.992188 C 87.929688 137.117188 88.851562 134.6875 84.488281 139.453125 C 61.375 147.84375 46.542969 158.472656 39.675781 162.304688 C 33.578125 165.707031 29.242188 170.054688 24.933594 175.40625 C 18.585938 183.289062 0.425781 186.492188 6.796875 196.253906 C 9.328125 200.128906 14.171875 203.304688 14.5625 203.347656 C 12.308594 203.101562 9.792969 203.375 7.605469 202.78125 C 3.503906 201.675781 1.511719 203.046875 4.890625 209.308594 C 11.769531 222.042969 64.984375 245.167969 67.5625 245.210938 C 69.457031 245.238281 69.363281 246.484375 80.277344 251.289062 C 99.050781 259.554688 112.265625 260.46875 118.757812 262.25 C 122.570312 263.292969 123.066406 269.660156 142.457031 273.84375 C 143.035156 273.972656 143.652344 274.121094 144.277344 274.261719 C 146.011719 274.296875 147.769531 274.457031 149.480469 274.699219 C 154.425781 273.570312 150.222656 274.066406 160.789062 275.933594 C 166.171875 275.65625 171.832031 275.964844 177.171875 276.621094 C 177.929688 276.429688 178.605469 276.207031 179.199219 275.875 C 179.078125 274.609375 178.183594 274.851562 173.519531 272.851562 C 175.40625 271.863281 174.058594 270.433594 164.839844 263.878906 C 168.300781 266.328125 199.410156 260.371094 216.492188 258.742188 C 219.511719 259.589844 222.453125 260.1875 225.292969 260.597656 C 229.421875 260.441406 233.601562 260.558594 237.636719 260.449219 C 240.652344 260.363281 243.664062 260.238281 246.675781 260.105469 C 249.070312 259.59375 251.140625 258.953125 252.777344 258.257812 C 254.28125 257.652344 255.226562 257.109375 255.8125 256.75 C 256.03125 256.617188 256.183594 256.515625 256.328125 256.429688 C 260.394531 255.847656 263.808594 254.882812 266.625 253.847656 C 270.519531 252.386719 273.328125 250.910156 275.3125 249.617188 C 277.320312 248.371094 278.515625 247.332031 279.261719 246.695312 C 279.300781 246.652344 279.34375 246.621094 279.386719 246.585938 C 283.207031 245.503906 288.167969 244.441406 291.171875 242.070312 C 292.164062 241.289062 293.691406 240.609375 294.078125 239.671875 C 292.738281 238.914062 291.433594 238.101562 290.1875 237.214844 C 290.101562 237.183594 290.011719 237.164062 289.925781 237.105469 C 287.839844 235.664062 285.433594 233.765625 283.664062 231.550781 C 283.007812 231.109375 282.214844 230.675781 281.195312 230.234375 C 280.917969 229.660156 280.484375 229.097656 280.234375 228.761719 C 280.136719 228.621094 280.023438 228.496094 279.917969 228.363281 C 279.796875 228.179688 279.65625 227.992188 279.476562 227.785156 C 279.332031 227.605469 279.179688 227.40625 279 227.203125 C 278.796875 227.019531 278.585938 226.824219 278.351562 226.613281 C 276.195312 224.488281 272.5 223.890625 269.625 223.703125 C 272.433594 222.4375 275.105469 220.714844 277.921875 219.640625 C 298.941406 211.632812 315.378906 228.546875 338.695312 239.902344 C 339.078125 240.09375 339.460938 240.273438 339.855469 240.445312 C 340.722656 240.851562 341.5625 241.226562 342.4375 241.578125 C 343.761719 242.121094 345.097656 242.589844 346.441406 242.964844 C 349.507812 243.835938 353.65625 244.363281 356.507812 243.585938 C 372.136719 239.96875 360.484375 208.730469 361.667969 198.160156 C 362.570312 190.097656 363.496094 187.886719 363.570312 187.207031 "/>
</g>
<path style=" stroke:none;fill-rule:nonzero;fill:rgb(0%,0%,0%);fill-opacity:1;" d="M 338.84375 169.171875 C 339.304688 171.226562 339.691406 173.296875 340.035156 175.378906 C 341.257812 175.253906 342.476562 175.128906 343.695312 175.019531 C 343.3125 172.710938 342.855469 170.421875 342.25 168.203125 C 341.121094 168.535156 339.980469 168.855469 338.84375 169.171875 "/>
<path style=" stroke:none;fill-rule:nonzero;fill:rgb(0%,0%,0%);fill-opacity:1;" d="M 332.714844 170.84375 C 333.125 172.636719 333.332031 174.335938 333.414062 176.132812 C 334.410156 176.007812 335.410156 175.890625 336.410156 175.777344 C 336.417969 173.496094 336.203125 171.742188 335.808594 170.019531 C 334.777344 170.296875 333.746094 170.574219 332.714844 170.84375 "/>
<path style=" stroke:none;fill-rule:nonzero;fill:rgb(0%,0%,0%);fill-opacity:1;" d="M 263.511719 207.363281 C 261.46875 207.363281 261.464844 210.539062 263.511719 210.539062 C 265.550781 210.539062 265.554688 207.363281 263.511719 207.363281 "/>
<path style=" stroke:none;fill-rule:nonzero;fill:rgb(0%,0%,0%);fill-opacity:1;" d="M 278.320312 207.832031 C 278.261719 207.847656 278.210938 207.863281 278.152344 207.875 C 277.09375 208.140625 277.09375 209.757812 278.152344 210.023438 C 278.210938 210.039062 278.261719 210.050781 278.320312 210.066406 C 279.046875 210.25 279.785156 209.710938 279.785156 208.949219 C 279.785156 208.191406 279.046875 207.652344 278.320312 207.832031 "/>
<path style=" stroke:none;fill-rule:nonzero;fill:rgb(0%,0%,0%);fill-opacity:1;" d="M 225.355469 224.257812 C 225.355469 226.25 228.382812 226.25 228.382812 224.257812 C 228.382812 223.433594 225.355469 222.257812 225.355469 224.257812 "/>
<path style=" stroke:none;fill-rule:nonzero;fill:rgb(0%,0%,0%);fill-opacity:1;" d="M 252.203125 183.8125 C 251.785156 183.644531 251.359375 183.757812 251.0625 184.0625 C 250.773438 184.207031 250.539062 184.425781 250.441406 184.789062 C 250.300781 185.316406 250.535156 185.902344 251.003906 186.175781 C 251.941406 186.726562 252.980469 185.839844 252.820312 184.894531 C 252.898438 184.449219 252.597656 183.972656 252.203125 183.8125 "/>
<path style=" stroke:none;fill-rule:nonzero;fill:rgb(0%,0%,0%);fill-opacity:1;" d="M 101.386719 226.390625 C 101.078125 228.222656 103.609375 228.21875 103.351562 226.472656 C 103.105469 225.023438 101.542969 225.210938 101.386719 226.390625 "/>
<path style=" stroke:none;fill-rule:nonzero;fill:rgb(0%,0%,0%);fill-opacity:1;" d="M 115.167969 199.128906 C 115.667969 199.097656 116.03125 198.960938 116.386719 198.601562 C 116.757812 198.226562 116.757812 197.605469 116.386719 197.230469 C 116.03125 196.867188 115.671875 196.734375 115.167969 196.699219 C 113.609375 196.601562 113.605469 199.230469 115.167969 199.128906 "/>
<path style=" stroke:none;fill-rule:nonzero;fill:rgb(0%,0%,0%);fill-opacity:1;" d="M 162.0625 165.164062 C 161.777344 165 161.480469 164.847656 161.191406 164.691406 C 160.085938 164.097656 159.105469 165.84375 160.214844 166.355469 C 163.496094 167.878906 162.988281 165.699219 162.0625 165.164062 "/>
<path style=" stroke:none;fill-rule:nonzero;fill:rgb(0%,0%,0%);fill-opacity:1;" d="M 41.71875 177.308594 C 44.617188 177.957031 47.589844 179.378906 48.816406 182.296875 C 48.972656 182.671875 49.5625 182.542969 49.441406 182.125 C 48.488281 178.808594 45.625 175.765625 41.882812 176.105469 C 41.238281 176.160156 41 177.148438 41.71875 177.308594 "/>
<path style=" stroke:none;fill-rule:nonzero;fill:rgb(0%,0%,0%);fill-opacity:1;" d="M 106.410156 252.402344 C 168.148438 267.050781 216.949219 248.457031 217.441406 248.394531 C 208.898438 249.050781 178.164062 261.316406 106.410156 252.402344 "/>
</g>
</svg>
