<?xml version="1.0" encoding="UTF-8"?>
<svg xmlns="http://www.w3.org/2000/svg" xmlns:xlink="http://www.w3.org/1999/xlink" width="375pt" height="374.999991pt" viewBox="0 0 375 374.999991" version="1.2">
<defs>
<clipPath id="clip1">
  <path d="M 32.621094 137 L 355.472656 137 L 355.472656 274.257812 L 32.621094 274.257812 Z M 32.621094 137 "/>
</clipPath>
<clipPath id="clip2">
  <path d="M 337 191.179688 L 357.320312 191.179688 L 357.320312 212.832031 L 337 212.832031 Z M 337 191.179688 "/>
</clipPath>
</defs>
<g id="surface1">
<path style=" stroke:none;fill-rule:nonzero;fill:rgb(22.749329%,22.749329%,22.749329%);fill-opacity:1;" d="M 115.386719 158.046875 C 115.3125 158.09375 114.554688 158.175781 113.261719 158.253906 C 114.65625 158.128906 115.386719 158.046875 115.386719 158.046875 Z M 89.246094 157.875 C 99.910156 158.742188 109.210938 158.507812 113.269531 158.238281 C 109.878906 158.539062 102.601562 159.136719 92.167969 159.503906 C 92.5 159.699219 92.867188 159.867188 93.199219 160.066406 C 101.339844 160.53125 106.222656 158.9375 125.460938 159.867188 C 126.527344 159.371094 130.976562 157.3125 132.074219 156.816406 C 117.886719 155.585938 87.285156 156.75 89.246094 157.875 "/>
<path style=" stroke:none;fill-rule:nonzero;fill:rgb(22.749329%,22.749329%,22.749329%);fill-opacity:1;" d="M 198.457031 220.148438 C 198.410156 220.15625 198.367188 220.160156 198.320312 220.164062 C 198.367188 220.152344 198.40625 220.144531 198.453125 220.132812 C 198.453125 220.136719 198.453125 220.144531 198.457031 220.148438 Z M 254.777344 217.460938 C 255.207031 216.066406 255.839844 214.808594 256.503906 213.777344 C 238.460938 215.671875 205.269531 218.554688 172.511719 222.601562 C 177.5625 222.867188 173.207031 222.96875 254.777344 217.460938 "/>
<path style=" stroke:none;fill-rule:nonzero;fill:rgb(22.749329%,22.749329%,22.749329%);fill-opacity:1;" d="M 255.242188 137.871094 C 250.257812 134.453125 245.375 134.1875 245.242188 134.152344 C 245.9375 134.519531 247.929688 135.417969 250.621094 137.109375 C 249.460938 136.941406 248.261719 136.777344 247.101562 136.609375 C 243.976562 134.320312 241.15625 131.796875 225.441406 126.722656 C 238.363281 129.511719 250.523438 132.527344 261.65625 139.097656 C 259.558594 138.667969 257.402344 138.234375 255.242188 137.871094 "/>
<path style=" stroke:none;fill-rule:nonzero;fill:rgb(22.749329%,22.749329%,22.749329%);fill-opacity:1;" d="M 259.761719 210.328125 C 259.09375 210.726562 258.167969 211.589844 257.234375 212.78125 C 242.082031 213.046875 224.242188 214.507812 176.527344 219.882812 C 192.875 216.265625 214.871094 208.207031 259.761719 210.328125 "/>
<path style=" stroke:none;fill-rule:nonzero;fill:rgb(22.749329%,22.749329%,22.749329%);fill-opacity:1;" d="M 203.375 136.046875 C 191.347656 129.3125 180.648438 129.277344 180.316406 129.210938 C 181.28125 129.511719 189.785156 131.039062 199.886719 136.445312 C 198.59375 136.574219 197.296875 136.742188 196.03125 136.90625 C 188.257812 133.125 175.667969 129.410156 163.804688 128.351562 C 174.703125 126.09375 186.828125 126.058594 206.5 135.75 C 205.433594 135.847656 204.40625 135.945312 203.375 136.046875 "/>
<path style=" stroke:none;fill-rule:nonzero;fill:rgb(22.749329%,22.749329%,22.749329%);fill-opacity:1;" d="M 135.960938 155.058594 C 119.140625 152.03125 101.636719 153.574219 84.585938 153.21875 C 84.734375 152.195312 85.324219 150.769531 87.175781 149.742188 C 97.480469 149.871094 119.378906 150.523438 139.816406 153.332031 C 138.484375 153.894531 137.1875 154.492188 135.960938 155.058594 "/>
<path style=" stroke:none;fill-rule:nonzero;fill:rgb(22.749329%,22.749329%,22.749329%);fill-opacity:1;" d="M 40.136719 168.59375 C 38.976562 168.230469 37.875 167.929688 36.847656 167.632812 C 37.414062 166.171875 38.011719 164.675781 38.609375 163.21875 C 39.671875 163.519531 40.800781 163.847656 42.03125 164.246094 C 41.335938 165.636719 40.703125 167.097656 40.136719 168.59375 "/>
<path style=" stroke:none;fill-rule:nonzero;fill:rgb(22.749329%,22.749329%,22.749329%);fill-opacity:1;" d="M 204.539062 230.035156 C 212.746094 230 239.394531 229.140625 255.640625 228.179688 C 256.171875 229.335938 256.835938 230.535156 257.734375 231.792969 C 236.4375 230.167969 218.128906 231.828125 204.539062 230.035156 "/>
<path style=" stroke:none;fill-rule:nonzero;fill:rgb(22.749329%,22.749329%,22.749329%);fill-opacity:1;" d="M 46.152344 170.351562 C 45.988281 170.320312 45.121094 170.050781 43.09375 169.453125 C 43.527344 167.964844 43.992188 166.46875 44.523438 164.972656 C 45.652344 165.339844 46.882812 165.703125 48.144531 166.105469 C 48.042969 166.300781 46.386719 169.71875 46.152344 170.351562 "/>
<g clip-path="url(#clip1)" clip-rule="nonzero">
<path style=" stroke:none;fill-rule:nonzero;fill:rgb(22.749329%,22.749329%,22.749329%);fill-opacity:1;" d="M 81.609375 181.355469 C 82.46875 181.003906 82.847656 181.171875 82.949219 181.171875 C 77.925781 186.59375 80.949219 189.402344 82.363281 192.21875 C 82.746094 191.164062 83.289062 190.339844 83.800781 189.707031 C 85.820312 187.257812 87.730469 187.4375 87.828125 187.398438 C 87.792969 187.601562 80.191406 193.011719 85.765625 201.21875 C 86.171875 201.789062 86.460938 202.175781 86.652344 202.417969 C 86.84375 202.65625 86.902344 202.785156 86.902344 202.785156 C 86.902344 202.785156 86.78125 202.757812 86.480469 202.65625 C 86.179688 202.546875 85.707031 202.335938 85.089844 201.871094 C 84.480469 201.398438 83.699219 200.675781 83.007812 199.480469 C 82.332031 198.304688 81.710938 196.59375 81.882812 194.433594 C 81.949219 193.617188 82.125 192.882812 82.351562 192.242188 C 80.726562 192.242188 78.09375 189.683594 78.328125 186.230469 C 78.515625 183.878906 79.960938 182.039062 81.609375 181.355469 Z M 79.945312 194.9375 C 80.449219 194.671875 80.800781 194.59375 81.023438 194.5625 C 81.246094 194.546875 81.335938 194.5625 81.335938 194.5625 C 77.414062 199.878906 77.96875 202.0625 80.488281 207.140625 C 80.386719 207.070312 78.742188 206.738281 77.488281 204.363281 C 76.988281 203.402344 76.53125 202.035156 76.675781 200.304688 C 76.898438 197.75 78.363281 195.777344 79.945312 194.9375 Z M 76.964844 185.976562 C 76.703125 186.273438 74.183594 187.816406 73.566406 190.554688 C 72.992188 193.257812 74.460938 195.550781 74.699219 196.394531 C 74.492188 196.308594 74.085938 196.261719 73.410156 195.667969 C 71 193.554688 70.882812 189.265625 73.726562 186.890625 C 75.609375 185.363281 76.867188 185.988281 76.964844 185.976562 Z M 87.617188 178.9375 C 85.84375 179.027344 83.941406 177.976562 83.941406 177.976562 C 83.941406 177.976562 84.789062 177.898438 86.554688 177.734375 C 131.246094 174.527344 180.964844 124.082031 264.636719 144.25 C 275.292969 147.292969 283.839844 150.097656 306.4375 162.585938 C 312.476562 165.894531 312.777344 166.4375 305.957031 163.582031 C 274.628906 150.351562 233.390625 126.183594 153.15625 156.71875 C 132.121094 164.894531 109.636719 178.242188 87.617188 178.9375 Z M 91.292969 187.699219 C 91.65625 185.636719 94.082031 182.890625 96.398438 182.601562 C 97.726562 182.511719 98.019531 182.882812 98.027344 182.84375 C 97.359375 183.128906 97.074219 183.238281 96.488281 183.554688 C 92.347656 185.863281 91.652344 190.726562 96.195312 194.433594 C 96.367188 194.574219 96.460938 194.664062 96.488281 194.703125 C 96.40625 194.703125 95.863281 194.828125 94.664062 194.3125 C 92.402344 193.199219 90.835938 190.5625 91.292969 187.699219 Z M 97.769531 211.105469 C 97.769531 210.390625 98.460938 209.882812 99.148438 210.054688 C 99.203125 210.066406 99.253906 210.078125 99.304688 210.09375 C 100.304688 210.34375 100.304688 211.863281 99.304688 212.113281 C 99.253906 212.128906 99.203125 212.144531 99.148438 212.15625 C 98.460938 212.324219 97.769531 211.820312 97.769531 211.105469 Z M 113.121094 209.609375 C 115.050781 209.609375 115.054688 212.601562 113.121094 212.601562 C 111.191406 212.601562 111.1875 209.609375 113.121094 209.609375 Z M 123.203125 188.457031 C 123.136719 188.042969 123.414062 187.589844 123.789062 187.441406 C 124.183594 187.28125 124.582031 187.390625 124.863281 187.675781 C 125.136719 187.808594 125.355469 188.019531 125.449219 188.363281 C 125.585938 188.851562 125.359375 189.40625 124.921875 189.664062 C 124.035156 190.179688 123.054688 189.347656 123.203125 188.457031 Z M 132.398438 169.648438 C 132.398438 169.648438 133.226562 169.125 135.324219 167.882812 C 185.722656 141.316406 241.425781 138.925781 276.183594 153.699219 C 276.550781 153.847656 276.902344 153.992188 277.226562 154.136719 C 276.902344 153.992188 276.550781 153.847656 276.183594 153.699219 C 265.382812 149.414062 237.488281 144.457031 210.101562 146.96875 C 176.429688 150.054688 138.523438 165.773438 132.398438 169.648438 Z M 136.097656 190.28125 C 136.535156 189.875 137.09375 189.59375 137.878906 189.4375 C 138.082031 189.417969 138.160156 189.4375 138.160156 189.4375 C 135.066406 194.066406 135.046875 196.109375 136.761719 201.238281 C 136.453125 201.078125 136.089844 200.980469 135.523438 200.382812 C 132.976562 197.96875 133.292969 192.503906 136.097656 190.28125 Z M 145.441406 180.421875 C 145.441406 180.421875 145.339844 180.507812 145.097656 180.679688 C 143.914062 181.515625 143.023438 182.46875 142.359375 183.507812 C 138.703125 189.707031 145.039062 194.003906 145.289062 194.34375 C 145.1875 194.328125 144.5625 194.433594 143.34375 193.847656 C 136.695312 190.582031 139.078125 180.300781 145.441406 180.421875 Z M 141.050781 201.25 C 141.980469 200.023438 142.605469 199.335938 144.121094 198.773438 C 144.363281 198.695312 144.460938 198.707031 144.460938 198.707031 C 138.480469 206.714844 143.054688 212.398438 143.164062 213.433594 C 143.164062 213.433594 143.054688 213.394531 142.8125 213.234375 C 142.558594 213.082031 142.160156 212.824219 141.683594 212.308594 C 139.308594 209.929688 138.589844 204.953125 141.050781 201.25 Z M 146.257812 225.511719 C 146.257812 224.742188 149.117188 223.632812 149.117188 225.511719 C 149.117188 227.390625 146.257812 227.394531 146.257812 225.511719 Z M 155.175781 169.574219 C 156.773438 164.75 160.378906 165.085938 160.480469 165.027344 C 157.460938 167.988281 156.066406 170.398438 156.605469 175.242188 C 156.882812 176.933594 156.761719 176.445312 156.789062 176.671875 C 154.585938 174.859375 154.394531 171.933594 155.175781 169.574219 Z M 156.582031 248.238281 C 164.640625 248.863281 193.636719 260.40625 261.328125 252.011719 C 203.085938 265.800781 157.042969 248.292969 156.582031 248.238281 Z M 170.792969 194.671875 C 171.210938 196.058594 171.714844 196.800781 172.308594 197.902344 C 172.441406 198.132812 172.492188 198.253906 172.492188 198.253906 C 169.390625 196.902344 168.203125 193.664062 168.585938 190.84375 C 168.988281 188 171.09375 185.175781 174.011719 185.085938 C 173.882812 185.40625 168.941406 188.875 170.792969 194.671875 Z M 195.980469 183.886719 C 196.777344 181.011719 198.878906 178.949219 201.015625 178.246094 C 202.152344 177.875 202.605469 178.046875 202.707031 178.046875 C 202.707031 178.046875 202.617188 178.136719 202.371094 178.308594 C 200.996094 179.328125 200.21875 180.097656 199.503906 180.992188 C 195.410156 186.363281 198.746094 191.5625 199.058594 192.816406 C 198.964844 192.710938 197.058594 191.882812 196.101562 188.875 C 195.695312 187.628906 195.4375 185.910156 195.980469 183.886719 Z M 191.996094 167.472656 C 192.808594 166.511719 194.007812 165.601562 195.328125 165.308594 C 195.585938 165.261719 195.6875 165.273438 195.6875 165.273438 C 190.691406 170.320312 191.554688 173.570312 195.015625 178.015625 C 195.015625 178.015625 194.890625 178 194.613281 177.910156 C 193.53125 177.570312 192.28125 176.722656 191.402344 175.421875 C 189.71875 172.917969 190.011719 169.804688 191.996094 167.472656 Z M 190.242188 198.132812 C 190.152344 198.019531 188.535156 197.199219 187.84375 194.394531 C 187.167969 191.398438 187.777344 187.589844 191.148438 185.382812 C 192.628906 184.414062 194.453125 184.671875 194.550781 184.644531 C 194.449219 184.726562 193.324219 185.667969 193.222656 185.761719 C 186.910156 191.460938 190.347656 197.550781 190.242188 198.132812 Z M 210.566406 171.003906 C 207.472656 172.4375 207.949219 170.386719 208.824219 169.882812 C 209.097656 169.726562 209.378906 169.585938 209.652344 169.4375 C 210.691406 168.878906 211.613281 170.523438 210.566406 171.003906 Z M 226.277344 172.667969 C 224.953125 174.472656 223.703125 175.933594 223.679688 178.492188 C 223.632812 181.574219 225.792969 183.824219 226.21875 184.628906 C 226.117188 184.578125 224.390625 184.488281 222.945312 182.300781 C 221.398438 180.03125 221.398438 176.863281 223.128906 174.550781 C 224.65625 172.484375 226.175781 172.710938 226.277344 172.667969 Z M 222.335938 159.722656 C 222.289062 162.808594 224.453125 165.058594 224.875 165.867188 C 224.773438 165.8125 223.050781 165.726562 221.605469 163.535156 C 220.054688 161.265625 220.054688 158.097656 221.785156 155.785156 C 223.3125 153.714844 224.835938 153.945312 224.933594 153.90625 C 223.613281 155.707031 222.363281 157.164062 222.335938 159.722656 Z M 233.011719 175.960938 C 229.289062 183.25 231.085938 184.257812 231.578125 189.386719 C 229.359375 187.625 227.914062 185.171875 228.234375 182.523438 C 228.855469 177.292969 232.929688 176.058594 233.011719 175.960938 Z M 228.378906 168.4375 C 228.328125 171.519531 230.496094 173.769531 230.914062 174.578125 C 230.8125 174.527344 229.09375 174.4375 227.644531 172.246094 C 226.097656 169.980469 226.09375 166.808594 227.824219 164.496094 C 229.351562 162.429688 230.878906 162.65625 230.976562 162.617188 C 229.652344 164.421875 228.402344 165.875 228.378906 168.4375 Z M 230.011719 154.078125 C 230.289062 155.035156 231.289062 157.648438 232.257812 158.160156 C 230.28125 157.132812 228.5625 156.265625 228.03125 153.75 C 227.179688 149.707031 229.921875 148.765625 230.675781 147.480469 C 229.664062 149.203125 229.460938 152.167969 230.011719 154.078125 Z M 254.839844 154.679688 C 256.746094 152.957031 258.195312 153.480469 258.300781 153.460938 C 256.644531 154.964844 255.128906 156.148438 254.597656 158.648438 C 253.933594 161.664062 255.605469 164.296875 255.859375 165.175781 C 255.769531 165.101562 254.09375 164.675781 253.117188 162.238281 C 252.054688 159.714844 252.671875 156.609375 254.839844 154.679688 Z M 253.066406 201.859375 C 252.59375 201.828125 252.25 201.699219 251.914062 201.359375 C 251.570312 201.011719 251.566406 200.425781 251.914062 200.070312 C 252.25 199.730469 252.589844 199.605469 253.066406 199.574219 C 254.539062 199.480469 254.539062 201.957031 253.066406 201.859375 Z M 255.328125 193.097656 C 249.808594 190.195312 251.738281 180.550781 256.667969 179.957031 C 252.878906 185.335938 253.34375 187.964844 255.328125 193.097656 Z M 253.648438 168.792969 C 252.511719 170.421875 250.992188 172.003906 250.523438 175.570312 C 250.0625 179.425781 251.707031 182.027344 252.003906 183.097656 C 244.023438 175.289062 249.957031 169.683594 253.648438 168.792969 Z M 249.007812 159.449219 C 242.699219 166.835938 245.765625 171.921875 245.789062 173.886719 C 241.777344 170.398438 242.273438 161.636719 249.007812 159.449219 Z M 244.921875 177.515625 C 243.398438 182.238281 242.816406 184.242188 244.929688 190.722656 C 244.832031 190.625 242.921875 189.4375 241.867188 187.019531 C 240.359375 183.535156 241.703125 178.980469 244.921875 177.515625 Z M 242.261719 200.957031 C 242.925781 204.191406 245 206.039062 245.496094 206.800781 C 245.394531 206.714844 241.441406 206.5 240.410156 201.25 C 239.914062 198.726562 240.566406 195.625 242.90625 194.605469 C 241.933594 197.40625 241.859375 198.992188 242.261719 200.957031 Z M 237.539062 202.144531 C 232.023438 199.242188 233.953125 189.597656 238.878906 189.003906 C 235.089844 194.382812 235.554688 197.011719 237.539062 202.144531 Z M 241.710938 166.105469 C 241.710938 166.105469 241.648438 166.214844 241.488281 166.4375 C 235.78125 174.265625 240.171875 180.003906 240.179688 180.914062 C 240.121094 180.8125 235.613281 178.742188 236.328125 172.691406 C 236.671875 169.785156 238.828125 166.691406 241.710938 166.105469 Z M 239.03125 163.972656 C 238.980469 163.871094 235.574219 162.113281 236.605469 156.925781 C 237.027344 154.851562 238.191406 153.25 239.203125 152.53125 C 240.230469 151.6875 241.265625 151.761719 241.367188 151.738281 C 241.050781 152.800781 236.839844 154.640625 239.03125 163.972656 Z M 262.453125 233.882812 C 262.351562 233.882812 203.34375 232.921875 192.679688 229.769531 C 172.640625 228.441406 166.925781 222.636719 165.363281 223.167969 C 168.191406 222.203125 171.246094 221.773438 174.140625 220.976562 C 173.503906 220.910156 172.875 220.746094 172.242188 220.644531 C 175.066406 219.75 177.691406 218.257812 180.515625 217.363281 C 223.707031 203.429688 263.746094 208.703125 263.847656 208.601562 C 259.558594 212.917969 248.53125 220.8125 262.453125 233.882812 Z M 264.214844 227.601562 C 264.445312 226.238281 265.917969 226.414062 266.070312 227.523438 C 266.359375 229.25 263.972656 229.242188 264.214844 227.601562 Z M 266.699219 243.785156 C 266.671875 241.863281 267.746094 241.5625 267.746094 241.464844 C 267.929688 241.464844 267.761719 243.261719 269.105469 245.210938 C 270.207031 246.722656 270.636719 246.710938 271.691406 247.933594 C 271.671875 247.933594 271.429688 248.152344 270.714844 248.152344 C 268.710938 248.128906 266.730469 245.957031 266.699219 243.785156 Z M 260.441406 172.152344 C 260.367188 172.03125 259.191406 171.234375 258.738281 168.636719 C 258.09375 164.894531 260.078125 159.976562 263.554688 159.3125 C 260.957031 163.542969 259.917969 165.355469 260.441406 172.152344 Z M 300.730469 198.21875 C 300.839844 197.488281 300.914062 197.199219 300.914062 197.199219 C 302.832031 215.117188 317.367188 222.210938 332.054688 216.621094 C 332.621094 216.410156 332.835938 216.363281 332.835938 216.363281 C 332.835938 216.363281 332.605469 216.550781 332.011719 216.972656 C 320.828125 224.871094 302.433594 217.664062 300.691406 201.941406 C 300.523438 200.148438 300.621094 198.953125 300.730469 198.21875 Z M 315.476562 196.871094 C 315.164062 196.347656 315.085938 196.121094 315.085938 196.121094 C 315.84375 196.789062 316.453125 197.460938 318.074219 198.355469 C 327.382812 203.363281 337.492188 193.042969 332.546875 186.566406 C 331.800781 185.570312 329.65625 183.597656 328.707031 182.789062 C 347.210938 190.742188 323.769531 210.339844 315.476562 196.871094 Z M 340.152344 187.824219 C 340.453125 187.925781 340.117188 187.496094 343.378906 189.121094 C 346.074219 190.417969 345.910156 190.964844 346.015625 191.0625 C 346.015625 191.0625 345.804688 191.238281 345.242188 191.320312 C 343.507812 191.558594 341.023438 190.355469 340.308594 188.683594 C 340.074219 188.128906 340.152344 187.824219 340.152344 187.824219 Z M 324.019531 196.890625 C 311.960938 196.859375 317.109375 179.207031 327.574219 184.25 C 334.453125 187.570312 331.0625 196.890625 324.019531 196.890625 Z M 322.359375 181.316406 C 319.625 181.929688 316.820312 183.265625 315.664062 186.015625 C 315.515625 186.367188 314.957031 186.242188 315.070312 185.851562 C 315.972656 182.730469 318.671875 179.863281 322.207031 180.183594 C 322.8125 180.238281 323.039062 181.164062 322.359375 181.316406 Z M 276.011719 239.945312 C 276.011719 239.945312 276.0625 240.011719 276.144531 240.175781 C 278.285156 245.351562 280.023438 245.132812 281.699219 246.949219 C 278.132812 248.050781 273.949219 243.15625 276.011719 239.945312 Z M 286.300781 174.714844 C 284.445312 175.960938 282.769531 176.910156 281.878906 179.308594 C 280.785156 182.195312 282.058594 185.042969 282.183594 185.945312 C 282.105469 185.863281 280.511719 185.195312 279.894531 182.644531 C 279.210938 179.996094 280.269531 177.011719 282.695312 175.414062 C 284.835938 173.988281 286.191406 174.714844 286.300781 174.714844 Z M 281.503906 189.230469 C 280.367188 190.863281 278.847656 192.441406 278.378906 196.011719 C 277.917969 199.871094 279.5625 202.46875 279.855469 203.535156 C 271.875 195.730469 277.8125 190.121094 281.503906 189.230469 Z M 278.292969 180.074219 C 276.515625 181.433594 274.902344 182.480469 274.164062 184.929688 C 273.25 187.878906 274.695312 190.644531 274.871094 191.539062 C 274.789062 191.460938 273.160156 190.890625 272.386719 188.382812 C 271.539062 185.78125 272.417969 182.734375 274.742188 180.992188 C 276.785156 179.4375 278.183594 180.082031 278.292969 180.074219 Z M 66.453125 218.121094 C 67.78125 217.59375 68.082031 217.558594 68.183594 217.527344 C 68.082031 217.59375 67.878906 217.757812 66.652344 218.589844 C 67.082031 219.617188 67.546875 220.613281 68.113281 221.539062 C 69.941406 220.511719 71.570312 219.683594 73.761719 218.851562 C 66.484375 216.597656 65.324219 209.632812 66.75 202.132812 C 67.316406 198.980469 67.816406 199.015625 67.316406 193.140625 C 66.683594 186.210938 65.058594 177.515625 74.523438 173.96875 C 76.121094 174.398438 77.679688 174.761719 79.277344 175.09375 C 78.914062 175.09375 78.546875 175.09375 78.179688 175.125 C 73.394531 175.191406 69.941406 178.746094 69.476562 183.71875 C 69.011719 188.363281 70.96875 194.570312 70.074219 199.8125 C 69.941406 200.640625 69.773438 201.402344 69.773438 201.4375 C 65.753906 219.949219 78.945312 215.636719 90.472656 216.664062 C 103.132812 217.824219 124.699219 230.863281 134.597656 238.925781 C 159.417969 259.0625 165.332031 256.144531 177.792969 257.671875 C 184.070312 258.433594 190.351562 259.03125 196.632812 259.496094 C 199.886719 259.726562 203.109375 259.824219 206.335938 259.824219 C 209.023438 259.824219 214.339844 261.386719 216.765625 260.257812 C 213.542969 261.78125 210.71875 263.972656 207.53125 265.46875 C 197.429688 270.242188 198.691406 269.414062 199.15625 270.777344 C 220.855469 261.71875 220.722656 259.894531 234.941406 259.824219 C 234.941406 259.824219 234.742188 259.925781 234.277344 260.027344 C 221.816406 263.410156 209.289062 270.84375 196.863281 273.097656 C 195.867188 273.695312 194.4375 274.058594 193.972656 274.257812 L 194.070312 274.257812 C 209.125 272.46875 218.828125 269.214844 233.710938 263.378906 C 237.296875 261.953125 241.421875 261.386719 244.675781 259.230469 C 242.183594 263.011719 226.601562 269.613281 224.34375 270.542969 C 226 269.910156 228.460938 270.179688 230.222656 269.714844 C 238.496094 267.554688 246.96875 261.183594 246.902344 259.394531 C 248.363281 258.765625 262.386719 259.03125 288.46875 247.550781 C 289.628906 247.019531 293.285156 244.597656 294.449219 244.863281 C 284.980469 242.777344 277.800781 232.257812 273.050781 223.863281 C 258.695312 197.921875 261.988281 191.117188 269.863281 179.175781 C 274.378906 172.34375 275.210938 169.054688 277.738281 165.804688 C 281.289062 161.027344 285.808594 160.5 286.640625 160.332031 C 285.808594 160.695312 281.722656 161.625 278.632812 166.570312 C 277.273438 168.722656 276.175781 171.613281 274.613281 175.125 C 268.53125 188 260.226562 193.140625 270.425781 213.777344 C 283.25 239.558594 294.414062 245.394531 304.816406 239.421875 C 305.347656 239.125 305.84375 238.824219 306.375 238.5625 C 309.632812 236.867188 312.824219 235.507812 315.847656 234.183594 C 301.527344 235.644531 287.871094 224.859375 288.5 206.183594 C 289.496094 182.097656 297.605469 177.78125 298.167969 177.417969 C 297.738281 177.980469 291.160156 184.484375 291.160156 207.273438 C 291.359375 225.457031 306.34375 235.609375 321.957031 231.230469 C 324.851562 230.332031 322.855469 230.796875 337.175781 223.367188 C 342.992188 220.382812 351.03125 216.199219 355.382812 211.355469 C 351.863281 212.949219 348.539062 211.554688 342.492188 213.347656 C 341.199219 213.742188 339.867188 214.175781 338.507812 214.042969 C 329.601562 213.214844 339.734375 203.957031 347.675781 194.007812 C 350.136719 190.886719 348.90625 190.289062 345.847656 188.597656 C 338.804688 184.683594 335.878906 178.445312 328.238281 175.261719 C 323.488281 173.238281 318.003906 173.867188 312.953125 173.5 C 313.621094 173.5 313.984375 172.441406 317.273438 171.875 C 323.054688 170.882812 328.835938 172.941406 331.464844 175.0625 C 329.402344 173.269531 327.308594 171.613281 324.980469 170.183594 C 221.515625 106.882812 155.066406 151.472656 108.847656 169.257812 C 107.351562 169.851562 105.925781 170.351562 104.527344 170.816406 C 104.492188 170.816406 104.460938 170.847656 104.429688 170.847656 C 99.542969 172.773438 93.433594 175.160156 88.113281 174.730469 C 74.261719 173.601562 65.65625 168.09375 38.742188 157.246094 C 35.652344 156.019531 33.859375 156.183594 32.828125 158.9375 C 41.765625 161.625 57.046875 167.632812 64.292969 170.480469 C 65.390625 171.113281 66.953125 171.976562 67.980469 172.675781 C 68.148438 172.472656 68.378906 172.308594 68.582031 172.109375 C 69.609375 172.441406 70.636719 172.804688 71.667969 173.101562 C 67.351562 177.683594 64.925781 183.15625 63.929688 189.261719 C 67.382812 189.359375 66.652344 189.59375 63.828125 189.960938 C 62.929688 196.425781 63.429688 210.425781 66.453125 218.121094 "/>
</g>
<path style=" stroke:none;fill-rule:nonzero;fill:rgb(22.749329%,22.749329%,22.749329%);fill-opacity:1;" d="M 325.648438 188.632812 C 322.6875 188.199219 318.734375 190.257812 320.730469 193.804688 C 320.066406 192.578125 318.605469 193.042969 319.667969 189.261719 C 320.53125 186.574219 322.757812 184.945312 326.109375 185.578125 C 329.070312 185.84375 330.761719 190.054688 328.835938 192.742188 C 329.902344 190.886719 327.175781 188.863281 325.648438 188.632812 "/>
<path style=" stroke:none;fill-rule:nonzero;fill:rgb(22.749329%,22.749329%,22.749329%);fill-opacity:1;" d="M 254.246094 223.367188 C 175.632812 226.648438 184.605469 225.855469 170.449219 223.894531 C 214.039062 223.367188 240.757812 220.480469 254.476562 218.523438 C 254.144531 219.984375 254.011719 221.609375 254.246094 223.367188 "/>
<path style=" stroke:none;fill-rule:nonzero;fill:rgb(22.749329%,22.749329%,22.749329%);fill-opacity:1;" d="M 52.234375 172.242188 C 51.234375 171.945312 50.171875 171.613281 49.042969 171.246094 C 49.074219 171.214844 51.003906 167.097656 51.003906 167.03125 C 52 167.363281 52.929688 167.664062 53.792969 167.964844 C 53.792969 168.027344 52.796875 170.183594 52.234375 172.242188 "/>
<path style=" stroke:none;fill-rule:nonzero;fill:rgb(22.749329%,22.749329%,22.749329%);fill-opacity:1;" d="M 254.410156 224.464844 C 254.578125 225.324219 254.839844 226.21875 255.207031 227.148438 C 217.296875 227.015625 197.230469 230.035156 177.890625 227.015625 C 190.617188 227.378906 235.972656 226.519531 254.410156 224.464844 "/>
<path style=" stroke:none;fill-rule:nonzero;fill:rgb(22.749329%,22.749329%,22.749329%);fill-opacity:1;" d="M 234.375 135.417969 C 229.394531 132.664062 226.101562 131.433594 225.703125 131.300781 C 225.90625 131.464844 227.597656 133.027344 230.71875 135.25 L 228.128906 135.152344 C 220.511719 129.1875 210.417969 124.816406 201.816406 123.117188 L 202.261719 123.019531 C 214.515625 124.777344 241.550781 135.476562 242.285156 136.078125 C 239.925781 135.816406 237.199219 135.582031 234.375 135.417969 "/>
<g clip-path="url(#clip2)" clip-rule="nonzero">
<path style=" stroke:none;fill-rule:nonzero;fill:rgb(22.749329%,22.749329%,22.749329%);fill-opacity:1;" d="M 337.976562 208.933594 C 338.539062 207.476562 339.402344 208.902344 348.042969 197.453125 C 349.535156 195.429688 351 193.804688 352.59375 191.847656 C 352.859375 191.550781 354.355469 193.34375 354.488281 193.605469 C 355.917969 196.789062 347.078125 206.046875 344.320312 206.414062 C 343.652344 206.511719 342.792969 206.378906 342.226562 206.710938 C 341.628906 207.042969 341.363281 207.707031 340.800781 208.039062 C 341.53125 208.335938 356.347656 207.273438 357.34375 206.679688 C 355.519531 212.917969 347.609375 210.527344 343.027344 211.71875 C 338.273438 212.984375 337.109375 211.125 337.976562 208.933594 "/>
</g>
<path style=" stroke:none;fill-rule:nonzero;fill:rgb(22.749329%,22.749329%,22.749329%);fill-opacity:1;" d="M 326.109375 191.433594 C 327.90625 192.867188 325.3125 194.707031 323.992188 193.960938 C 322.304688 193.101562 324.308594 189.996094 326.109375 191.433594 "/>
<path style=" stroke:none;fill-rule:nonzero;fill:rgb(22.749329%,22.749329%,22.749329%);fill-opacity:1;" d="M 158.886719 145.765625 C 153.472656 147.660156 153.667969 147.59375 152.707031 147.992188 C 138.1875 141.683594 119.378906 137.9375 101.175781 138.535156 C 105.027344 137.238281 105.128906 134.882812 118.316406 136.8125 C 132.007812 138.835938 145.0625 141.585938 158.886719 145.765625 "/>
<path style=" stroke:none;fill-rule:nonzero;fill:rgb(22.749329%,22.749329%,22.749329%);fill-opacity:1;" d="M 97.054688 236.96875 C 97.652344 237.035156 98.25 237.132812 98.914062 237.199219 C 106.988281 238.128906 116.65625 237.300781 124.398438 234.8125 C 126.125 235.972656 127.851562 237.234375 129.582031 238.496094 C 114.929688 240.054688 105.128906 240.21875 90.773438 239.65625 C 89.078125 239.625 87.816406 239.558594 86.820312 239.558594 C 88.316406 239.15625 90.375 238.5625 93.332031 237.796875 C 94.757812 237.464844 95.988281 237.199219 97.054688 236.96875 "/>
<path style=" stroke:none;fill-rule:nonzero;fill:rgb(22.749329%,22.749329%,22.749329%);fill-opacity:1;" d="M 139.417969 246.09375 C 141.410156 247.617188 144.898438 250.40625 145.863281 251.203125 C 131.707031 255.015625 116.324219 254.222656 102.703125 248.183594 C 101.804688 247.75 101.007812 247.488281 100.375 247.152344 C 112.207031 250.105469 126.390625 250.105469 139.417969 246.09375 "/>
<path style=" stroke:none;fill-rule:nonzero;fill:rgb(22.749329%,22.749329%,22.749329%);fill-opacity:1;" d="M 168.457031 142.75 C 154.269531 136.480469 142.40625 136.574219 142.039062 136.542969 C 143.238281 136.84375 153.269531 138.4375 165.363281 143.640625 C 162.539062 144.472656 163.140625 144.273438 162.140625 144.636719 C 150.046875 139.894531 134.402344 136.011719 118.785156 134.453125 C 117.6875 134.355469 116.65625 134.289062 115.695312 134.253906 C 116.359375 134.121094 117.054688 134.023438 117.71875 133.921875 C 118.453125 133.890625 119.25 133.890625 120.144531 133.855469 C 138.882812 133.226562 156.628906 135.546875 173.972656 141.191406 C 172.542969 141.554688 172.707031 141.519531 168.457031 142.75 "/>
<path style=" stroke:none;fill-rule:nonzero;fill:rgb(22.749329%,22.749329%,22.749329%);fill-opacity:1;" d="M 147.191406 252.261719 C 147.191406 252.261719 149.1875 254.289062 153.96875 255.980469 C 147.6875 256.84375 142.871094 257.46875 137.554688 257.46875 C 133.535156 257.46875 129.214844 257.105469 123.835938 256.210938 C 124.097656 256.246094 124.363281 256.246094 124.632812 256.246094 C 133.101562 256.675781 140.25 255.316406 147.191406 252.261719 "/>
<path style=" stroke:none;fill-rule:nonzero;fill:rgb(22.749329%,22.749329%,22.749329%);fill-opacity:1;" d="M 114.53125 228.675781 C 108.878906 228.605469 103.132812 228.742188 98.015625 230.535156 C 98.183594 230.300781 98.414062 229.902344 98.613281 229.570312 C 102.601562 226.980469 109.578125 226.71875 110.84375 226.648438 C 111.902344 227.214844 113.464844 227.976562 114.53125 228.675781 "/>
<path style=" stroke:none;fill-rule:nonzero;fill:rgb(22.749329%,22.749329%,22.749329%);fill-opacity:1;" d="M 278.234375 144.671875 C 263.480469 139.894531 264.246094 137.140625 251.953125 131.933594 C 269.929688 138.898438 276.40625 143.476562 278.234375 144.671875 "/>
<path style=" stroke:none;fill-rule:nonzero;fill:rgb(22.749329%,22.749329%,22.749329%);fill-opacity:1;" d="M 217.597656 135.152344 C 208.292969 128.683594 200.386719 127.417969 199.984375 127.289062 C 201.019531 127.816406 207.164062 130.472656 214.207031 135.285156 C 212.746094 135.351562 211.316406 135.417969 209.921875 135.515625 C 204.042969 131.535156 195.699219 127.816406 187.195312 125.726562 C 198.359375 124.535156 209.222656 126.09375 224.507812 135.085938 C 222.179688 135.085938 219.890625 135.085938 217.597656 135.152344 "/>
<path style=" stroke:none;fill-rule:nonzero;fill:rgb(22.749329%,22.749329%,22.749329%);fill-opacity:1;" d="M 146.359375 150.476562 C 131.476562 145.238281 111.839844 142.582031 96.089844 142.21875 C 96.820312 141.753906 97.515625 141.253906 98.214844 140.722656 C 116.289062 140.921875 132.902344 143.410156 149.882812 149.050781 C 148.6875 149.515625 147.523438 150.015625 146.359375 150.476562 "/>
<path style=" stroke:none;fill-rule:nonzero;fill:rgb(22.749329%,22.749329%,22.749329%);fill-opacity:1;" d="M 110.976562 145.035156 C 125.328125 146.53125 133.835938 148.257812 145.894531 150.679688 C 144.765625 151.171875 143.671875 151.640625 142.605469 152.101562 C 129.285156 148.785156 108.699219 146.300781 87.4375 147.691406 C 93.714844 143.183594 95.027344 143.378906 110.976562 145.035156 "/>
<path style=" stroke:none;fill-rule:nonzero;fill:rgb(22.749329%,22.749329%,22.749329%);fill-opacity:1;" d="M 184.46875 138.835938 C 169.1875 131.5 156.59375 132.164062 155.894531 132.066406 C 156.726562 132.265625 168.324219 133.589844 181.179688 139.53125 C 180.75 139.628906 177.628906 140.324219 177.527344 140.359375 C 169.582031 136.90625 161.445312 134.585938 152.773438 133.09375 C 145.730469 131.898438 139.75 131.535156 134.765625 131.5 C 153.601562 129.144531 171.578125 130.472656 191.878906 137.539062 C 190.21875 137.804688 186.132812 138.503906 184.46875 138.835938 "/>
<path style=" stroke:none;fill-rule:nonzero;fill:rgb(22.749329%,22.749329%,22.749329%);fill-opacity:1;" d="M 117.785156 231.0625 C 119.117188 231.828125 121.839844 233.085938 122.273438 233.386719 C 107.519531 235.242188 102.269531 234.777344 100.972656 234.878906 C 97.816406 233.917969 96.886719 234.8125 92.703125 234.648438 L 92.433594 234.648438 C 92.636719 234.414062 92.832031 234.214844 93.066406 234.015625 C 102.566406 231.0625 109.015625 231.792969 117.019531 231.128906 C 117.289062 231.097656 117.554688 231.0625 117.785156 231.0625 "/>
<path style=" stroke:none;fill-rule:nonzero;fill:rgb(22.749329%,22.749329%,22.749329%);fill-opacity:1;" d="M 30.398438 178.59375 C 30.929688 175.949219 31.574219 173.324219 32.355469 170.753906 C 33.390625 171.085938 34.425781 171.421875 35.472656 171.742188 C 34.890625 173.644531 34.324219 175.824219 33.6875 178.835938 C 32.585938 178.746094 31.488281 178.667969 30.398438 178.59375 Z M 37.476562 179.160156 C 37.832031 176.988281 38.269531 174.835938 38.832031 172.742188 C 39.902344 173.054688 40.976562 173.355469 42.050781 173.660156 C 41.617188 175.589844 41.25 177.539062 40.925781 179.5 C 39.773438 179.378906 38.625 179.265625 37.476562 179.160156 Z M 44.347656 179.875 C 44.34375 177.726562 44.539062 176.078125 44.914062 174.453125 C 45.886719 174.714844 46.859375 174.972656 47.835938 175.230469 C 47.441406 176.917969 47.246094 178.515625 47.171875 180.210938 C 46.230469 180.09375 45.289062 179.980469 44.347656 179.875 Z M 50.742188 180.667969 C 50.882812 179.136719 51.070312 177.617188 51.328125 176.128906 C 52.453125 176.414062 53.570312 176.695312 54.691406 176.972656 C 54.414062 178.339844 54.199219 179.726562 54.015625 181.128906 C 52.929688 180.96875 51.835938 180.816406 50.742188 180.667969 Z M 57.347656 181.636719 C 57.65625 180.367188 58.003906 179.113281 58.394531 177.875 C 59.503906 178.144531 60.609375 178.402344 61.714844 178.664062 C 61.363281 179.832031 61.027344 181.007812 60.710938 182.179688 C 59.59375 181.992188 58.476562 181.8125 57.347656 181.636719 Z M 21 215.503906 C 20 220.445312 18.707031 225.722656 19.140625 230.796875 C 19.40625 233.714844 21.265625 239.257812 23.886719 240.847656 C 18.34375 225.257812 23.492188 213.148438 23.625 216.828125 C 23.722656 219.484375 23.792969 222.105469 23.886719 224.660156 C 24.355469 224.496094 24.953125 224.292969 25.617188 224.03125 C 24.621094 214.542969 22.097656 183.488281 26.082031 168.625 C 26.417969 168.789062 28.742188 169.554688 29.175781 169.71875 C 28.308594 172.972656 27.84375 175.789062 27.410156 179.410156 C 34.191406 179.574219 49.476562 183.753906 62.53125 183.320312 C 62.566406 183.355469 62.632812 183.355469 62.664062 183.355469 C 63.828125 183.289062 63.660156 182.691406 62.863281 182.558594 C 64.992188 174.597656 66.519531 178.84375 59.941406 176.257812 C 59.574219 176.121094 29.039062 167.066406 28.675781 166.933594 C 28.308594 166.800781 24.457031 165.042969 24.457031 164.742188 C 23.824219 166.765625 23.292969 168.890625 22.925781 171.078125 C 20.867188 183.355469 22.0625 198.21875 22.164062 198.320312 C 22.859375 202.132812 23.089844 206.347656 21.894531 209.964844 C 21.363281 211.554688 21.332031 213.8125 21 215.503906 "/>
<path style=" stroke:none;fill-rule:nonzero;fill:rgb(22.749329%,22.749329%,22.749329%);fill-opacity:1;" d="M 25.71875 225.027344 C 26.015625 227.644531 26.449219 230.863281 27.046875 233.417969 C 26.28125 233.683594 25.949219 233.816406 25.847656 233.882812 C 25.984375 233.851562 25.984375 233.882812 27.144531 233.75 C 27.808594 236.46875 28.808594 239.257812 30.234375 241.714844 C 29.902344 241.777344 29.539062 241.8125 29.207031 241.8125 C 28.539062 241.878906 27.875 241.878906 27.246094 241.8125 C 24.988281 236.171875 24.253906 231.496094 23.921875 225.324219 C 24.421875 225.257812 25.019531 225.160156 25.71875 225.027344 "/>
<path style=" stroke:none;fill-rule:nonzero;fill:rgb(22.749329%,22.749329%,22.749329%);fill-opacity:1;" d="M 120.011719 162.355469 C 118.417969 163.085938 116.890625 163.78125 115.390625 164.410156 C 106.921875 163.816406 102.703125 164.179688 98.382812 162.457031 C 98.78125 162.488281 119.648438 162.355469 120.011719 162.355469 "/>
<path style=" stroke:none;fill-rule:nonzero;fill:rgb(22.749329%,22.749329%,22.749329%);fill-opacity:1;" d="M 33.65625 166.765625 C 32.394531 166.4375 31.296875 166.136719 30.300781 165.90625 C 30.835938 164.34375 31.363281 162.820312 31.964844 161.292969 C 32.925781 161.589844 34.089844 161.921875 35.488281 162.320312 C 34.820312 163.78125 34.222656 165.242188 33.65625 166.765625 "/>
<path style=" stroke:none;fill-rule:nonzero;fill:rgb(22.749329%,22.749329%,22.749329%);fill-opacity:1;" d="M 40.171875 230.765625 C 41.132812 232.820312 42.332031 234.746094 43.792969 236.46875 C 42.496094 237.199219 41.367188 237.796875 40.105469 238.425781 C 39.105469 236.171875 38.144531 233.917969 37.214844 231.628906 C 38.144531 231.394531 39.105469 231.097656 40.171875 230.765625 "/>
<path style=" stroke:none;fill-rule:nonzero;fill:rgb(22.749329%,22.749329%,22.749329%);fill-opacity:1;" d="M 47.449219 228.210938 C 48.511719 229.667969 49.640625 231.0625 50.835938 232.390625 C 49.9375 232.921875 49.042969 233.453125 48.144531 233.953125 C 47.644531 234.25 47.148438 234.511719 46.648438 234.8125 C 45.417969 233.1875 44.390625 231.460938 43.425781 229.667969 C 44.691406 229.238281 46.019531 228.773438 47.449219 228.210938 "/>
<path style=" stroke:none;fill-rule:nonzero;fill:rgb(22.749329%,22.749329%,22.749329%);fill-opacity:1;" d="M 34.15625 232.421875 C 35.121094 234.945312 36.183594 237.367188 37.445312 239.65625 C 36.082031 240.21875 34.753906 240.71875 33.425781 241.082031 C 31.863281 238.664062 30.769531 236.105469 29.972656 233.320312 C 31.363281 233.085938 32.859375 232.753906 34.15625 232.421875 "/>
<path style=" stroke:none;fill-rule:nonzero;fill:rgb(22.749329%,22.749329%,22.749329%);fill-opacity:1;" d="M 59.476562 174.699219 C 58.378906 174.300781 57.082031 173.832031 55.554688 173.335938 C 56.351562 170.652344 56.019531 171.445312 56.417969 170.480469 C 56.519531 170.515625 57.046875 169.089844 57.046875 169.089844 C 58.675781 169.65625 60.105469 170.152344 61.335938 170.617188 C 59.738281 173.667969 59.609375 173.433594 59.773438 174 C 59.671875 174.230469 59.574219 174.460938 59.476562 174.699219 "/>
<path style=" stroke:none;fill-rule:nonzero;fill:rgb(22.749329%,22.749329%,22.749329%);fill-opacity:1;" d="M 27.144531 165.140625 C 25.785156 164.84375 24.921875 164.675781 24.488281 164.609375 C 25.019531 162.886719 25.652344 161.226562 26.28125 159.601562 C 27.808594 159.835938 26.613281 159.601562 29.105469 160.398438 C 28.34375 161.921875 27.710938 163.519531 27.144531 165.140625 "/>
<path style=" stroke:none;fill-rule:nonzero;fill:rgb(22.749329%,22.749329%,22.749329%);fill-opacity:1;" d="M 18.605469 157.082031 C 19.738281 154.855469 22.527344 154.226562 25.019531 154.226562 C 24.554688 155.320312 24.15625 156.484375 23.792969 157.644531 C 22.0625 157.414062 20.300781 157.246094 18.605469 157.082031 "/>
<path style=" stroke:none;fill-rule:nonzero;fill:rgb(22.749329%,22.749329%,22.749329%);fill-opacity:1;" d="M 18.242188 158.207031 C 19.871094 158.773438 21.5625 159.035156 23.292969 159.203125 C 22.164062 163.085938 21.265625 167.796875 20.734375 171.777344 C 20.800781 166.070312 17.640625 162.058594 18.242188 158.207031 "/>
<path style=" stroke:none;fill-rule:nonzero;fill:rgb(22.749329%,22.749329%,22.749329%);fill-opacity:1;" d="M 53.527344 225.6875 C 54.125 227.046875 54.824219 228.34375 55.621094 229.503906 C 55.488281 229.636719 53.859375 230.664062 52.796875 231.261719 C 51.835938 229.933594 50.871094 228.574219 50.003906 227.183594 C 51.269531 226.683594 52.429688 226.15625 53.527344 225.6875 "/>
<path style=" stroke:none;fill-rule:nonzero;fill:rgb(22.749329%,22.749329%,22.749329%);fill-opacity:1;" d="M 132.273438 240.484375 C 134.132812 241.910156 136.027344 243.339844 137.921875 244.863281 C 121.773438 247.453125 107.320312 246.953125 91.703125 242.808594 C 89.945312 242.34375 88.648438 241.976562 87.714844 241.746094 C 87.550781 241.613281 87.382812 241.480469 87.253906 241.347656 C 86.917969 241.082031 86.15625 240.484375 85.589844 239.886719 C 85.65625 239.921875 85.691406 239.921875 85.726562 239.953125 C 86.6875 240.21875 88.25 240.652344 90.574219 241.050781 C 103.203125 243.503906 119.679688 242.90625 132.273438 240.484375 "/>
<path style=" stroke:none;fill-rule:nonzero;fill:rgb(22.749329%,22.749329%,22.749329%);fill-opacity:1;" d="M 26.914062 158.078125 C 27.445312 156.847656 27.945312 155.621094 28.507812 154.425781 C 29.902344 154.558594 31.332031 154.789062 32.460938 155.023438 C 31.566406 156.183594 30.734375 157.414062 30.003906 158.707031 C 28.605469 158.308594 28.078125 158.238281 26.914062 158.078125 "/>
<path style=" stroke:none;fill-rule:nonzero;fill:rgb(22.749329%,22.749329%,22.749329%);fill-opacity:1;" d="M 37.082031 181.695312 C 36.78125 184.019531 36.550781 186.339844 36.382812 188.632812 C 34.65625 188.566406 33.226562 188.5 32.0625 188.464844 C 32.363281 186.007812 32.761719 183.554688 33.226562 181.132812 C 34.355469 181.296875 35.652344 181.5 37.082031 181.695312 "/>
<path style=" stroke:none;fill-rule:nonzero;fill:rgb(22.749329%,22.749329%,22.749329%);fill-opacity:1;" d="M 55.785156 216.367188 C 55.785156 216.367188 55.386719 216.332031 54.058594 216.496094 C 53.492188 213.878906 53.195312 211.15625 53.0625 208.371094 C 54.058594 208.171875 55.019531 207.9375 55.851562 207.738281 C 56.320312 212.417969 57.183594 217.0625 58.609375 221.507812 C 57.777344 221.871094 56.917969 222.269531 55.953125 222.667969 C 55.1875 220.878906 54.621094 218.988281 54.191406 217.0625 C 55.355469 216.597656 55.785156 216.367188 55.785156 216.367188 "/>
<path style=" stroke:none;fill-rule:nonzero;fill:rgb(22.749329%,22.749329%,22.749329%);fill-opacity:1;" d="M 31.933594 189.492188 L 32.097656 189.492188 C 32.027344 189.527344 31.996094 189.527344 31.933594 189.527344 L 31.933594 189.492188 "/>
<path style=" stroke:none;fill-rule:nonzero;fill:rgb(22.749329%,22.749329%,22.749329%);fill-opacity:1;" d="M 37.445312 209.398438 C 36.21875 209.300781 34.921875 209.566406 33.722656 209.664062 C 29.175781 210.027344 30.46875 209.929688 30.203125 209.964844 C 29.640625 210.027344 29.503906 209.035156 30.101562 208.902344 C 30.636719 208.800781 31.199219 208.703125 31.730469 208.601562 C 31.5 205.980469 31.363281 203.359375 31.332031 200.742188 C 32.429688 200.808594 33.925781 200.839844 35.886719 200.808594 C 35.820312 203.226562 35.785156 205.519531 35.851562 207.875 C 36.648438 207.738281 37.445312 207.605469 38.273438 207.476562 C 38.242188 205.25 38.308594 202.996094 38.511719 200.742188 C 39.9375 200.707031 41.53125 200.640625 43.359375 200.507812 C 42.53125 202.730469 41.898438 204.886719 41.53125 207.042969 C 42.496094 206.910156 43.460938 206.8125 44.457031 206.679688 C 44.789062 204.523438 45.453125 202.433594 46.082031 200.308594 C 47.710938 200.207031 49.140625 200.078125 50.371094 199.941406 C 50.335938 201.835938 50.304688 203.890625 50.335938 206.046875 C 51.199219 205.980469 52.097656 205.914062 52.964844 205.851562 C 52.929688 203.792969 52.929688 201.734375 52.996094 199.644531 C 53.960938 199.542969 54.757812 199.414062 55.453125 199.3125 C 55.453125 201.402344 55.519531 203.496094 55.6875 205.617188 C 56.519531 205.550781 57.378906 205.484375 58.210938 205.453125 C 58.015625 202.929688 57.980469 200.90625 58.015625 198.882812 C 65.917969 197.324219 51.601562 198.78125 44.058594 199.113281 C 39.835938 199.3125 35.550781 199.015625 31.332031 199.378906 C 30.867188 199.28125 30.371094 199.214844 29.871094 199.179688 C 29.304688 199.113281 29.273438 198.21875 29.902344 198.21875 C 30.371094 198.25 30.867188 198.21875 31.363281 198.21875 C 31.433594 195.566406 31.597656 192.910156 31.863281 190.289062 C 33.292969 190.589844 34.753906 190.753906 36.25 190.855469 C 36.117188 193.308594 36.050781 195.730469 35.984375 198.085938 C 36.914062 198.019531 37.8125 197.988281 38.742188 197.921875 L 39.4375 190.953125 C 41.335938 190.953125 43.195312 190.886719 45.089844 190.820312 C 45.15625 193.042969 44.988281 195.265625 44.390625 197.519531 C 45.222656 197.453125 46.050781 197.390625 46.882812 197.355469 C 47.28125 195.632812 47.480469 193.738281 47.449219 190.855469 C 48.476562 190.855469 49.441406 190.886719 50.371094 190.855469 C 50.371094 193.042969 50.402344 195.132812 50.402344 197.121094 C 51.300781 197.089844 52.167969 197.058594 53.0625 197.023438 C 53.128906 195.234375 53.195312 192.945312 53.261719 190.820312 C 54.191406 190.785156 55.054688 190.753906 55.851562 190.6875 C 55.621094 192.808594 55.519531 194.902344 55.488281 196.957031 L 58.113281 196.957031 C 58.246094 194.765625 58.511719 192.613281 58.84375 190.488281 C 60.207031 190.355469 61.234375 190.222656 61.601562 190.191406 C 61.265625 194.734375 61.632812 203.660156 61.699219 205.21875 C 70.238281 204.722656 37.945312 209.265625 37.445312 209.398438 "/>
<path style=" stroke:none;fill-rule:nonzero;fill:rgb(22.749329%,22.749329%,22.749329%);fill-opacity:1;" d="M 61.765625 206.183594 C 62.03125 210.660156 62.664062 215.136719 64.324219 219.019531 C 63.429688 219.386719 62.367188 219.847656 61.070312 220.414062 C 59.839844 216.066406 58.878906 211.65625 58.378906 207.144531 C 59.90625 206.746094 61.003906 206.414062 61.765625 206.183594 "/>
<path style=" stroke:none;fill-rule:nonzero;fill:rgb(22.749329%,22.749329%,22.749329%);fill-opacity:1;" d="M 67.816406 172.871094 C 66.71875 174.066406 65.789062 175.425781 64.992188 176.917969 C 64.457031 176.65625 63.660156 176.324219 62.566406 175.855469 C 63.164062 174.035156 63.863281 172.609375 63.761719 172.175781 C 63.828125 171.945312 63.894531 171.742188 63.960938 171.546875 C 65.1875 171.976562 66.851562 172.574219 67.816406 172.871094 "/>
<path style=" stroke:none;fill-rule:nonzero;fill:rgb(22.749329%,22.749329%,22.749329%);fill-opacity:1;" d="M 66.285156 222.570312 C 64.957031 223.367188 63.695312 224.164062 62.464844 224.992188 C 62.097656 223.894531 61.765625 222.804688 61.4375 221.742188 C 62.496094 221.144531 63.5625 220.546875 64.691406 219.847656 C 65.15625 220.8125 65.6875 221.707031 66.285156 222.570312 "/>
<path style=" stroke:none;fill-rule:nonzero;fill:rgb(22.749329%,22.749329%,22.749329%);fill-opacity:1;" d="M 60.238281 183.984375 C 61.105469 184.019531 61.867188 184.050781 62.496094 184.085938 C 62.234375 185.3125 62.863281 188.730469 61.4375 189.261719 C 37.3125 189.328125 35.753906 189.261719 36.648438 189.230469 L 36.480469 189.230469 C 36.617188 188.761719 36.847656 188.828125 39.671875 188.664062 C 39.902344 186.476562 40.171875 184.316406 40.503906 182.164062 C 41.734375 182.292969 43.027344 182.460938 44.457031 182.625 C 44.589844 184.550781 44.789062 186.507812 44.953125 188.429688 C 45.75 188.398438 46.550781 188.363281 47.382812 188.363281 C 47.28125 186.542969 47.183594 184.714844 47.148438 182.890625 C 48.34375 183.023438 49.476562 183.15625 50.535156 183.253906 C 50.4375 184.945312 50.402344 186.640625 50.402344 188.300781 C 51.402344 188.300781 52.398438 188.265625 53.394531 188.265625 C 53.460938 186.671875 53.59375 185.082031 53.726562 183.523438 C 54.890625 183.621094 55.917969 183.71875 56.886719 183.789062 C 56.582031 185.246094 56.351562 186.738281 56.152344 188.234375 C 57.183594 188.234375 58.246094 188.234375 59.273438 188.199219 C 59.542969 186.808594 59.875 185.378906 60.238281 183.984375 "/>
<path style=" stroke:none;fill-rule:nonzero;fill:rgb(22.749329%,22.749329%,22.749329%);fill-opacity:1;" d="M 52.863281 223.996094 C 51.667969 224.496094 50.371094 225.027344 49.011719 225.585938 C 47.710938 223.367188 46.914062 221.609375 46.21875 219.78125 C 48.3125 219.152344 50.003906 218.589844 51.335938 218.121094 C 51.699219 220.148438 52.199219 222.140625 52.863281 223.996094 "/>
<path style=" stroke:none;fill-rule:nonzero;fill:rgb(22.749329%,22.749329%,22.749329%);fill-opacity:1;" d="M 40.203125 221.539062 C 41.234375 221.242188 42.195312 220.976562 43.128906 220.714844 C 43.992188 222.804688 45.054688 224.695312 46.351562 226.648438 C 45.023438 227.148438 43.792969 227.609375 42.628906 228.042969 C 41.632812 225.953125 40.835938 223.765625 40.203125 221.539062 "/>
<path style=" stroke:none;fill-rule:nonzero;fill:rgb(22.749329%,22.749329%,22.749329%);fill-opacity:1;" d="M 60.371094 226.351562 C 59.773438 226.785156 59.175781 227.183594 58.609375 227.578125 C 57.878906 226.484375 57.214844 225.355469 56.648438 224.226562 C 57.515625 223.796875 58.347656 223.398438 59.078125 223 C 59.476562 224.132812 59.90625 225.257812 60.371094 226.351562 "/>
<path style=" stroke:none;fill-rule:nonzero;fill:rgb(22.749329%,22.749329%,22.749329%);fill-opacity:1;" d="M 29.769531 232.488281 C 29.105469 230.035156 28.707031 227.378906 28.410156 224.527344 C 29.335938 224.328125 30.371094 224.097656 31.5 223.796875 C 32.128906 226.316406 32.859375 228.773438 33.722656 231.164062 C 31.296875 231.960938 31.664062 231.859375 29.769531 232.488281 "/>
<path style=" stroke:none;fill-rule:nonzero;fill:rgb(22.749329%,22.749329%,22.749329%);fill-opacity:1;" d="M 27.34375 180.003906 C 28.042969 180.171875 28.90625 180.371094 30.003906 180.566406 C 29.574219 183.191406 29.207031 185.8125 28.972656 188.398438 C 27.945312 188.398438 27.542969 188.398438 27.542969 188.398438 C 27.542969 188.398438 27.910156 188.566406 28.90625 188.828125 C 27.976562 199.246094 28.742188 210.5625 30.667969 220.015625 C 31.597656 219.78125 32.527344 219.582031 33.460938 219.355469 C 32.894531 216.761719 32.394531 214.144531 32.0625 211.488281 C 34.121094 211.421875 35.285156 211.324219 35.949219 211.257812 C 36.082031 213.710938 36.316406 216.199219 36.683594 218.621094 C 37.578125 218.421875 38.476562 218.222656 39.375 218.027344 C 38.910156 215.734375 38.578125 213.378906 38.410156 210.992188 C 39.242188 210.859375 40.171875 210.757812 41.167969 210.59375 C 41.101562 212.851562 41.398438 215.136719 42 217.460938 C 43.09375 217.195312 44.15625 216.964844 45.222656 216.730469 C 44.589844 214.574219 44.191406 212.351562 44.15625 210.097656 C 46.117188 209.761719 48.042969 209.398438 50.402344 208.933594 C 50.503906 211.589844 50.703125 214.3125 51.101562 216.964844 C 51.070312 216.597656 30.167969 222.933594 26.214844 222.4375 C 26.417969 222.007812 26.644531 221.675781 26.914062 221.34375 C 27.378906 220.714844 27.875 220.148438 27.945312 219.117188 C 28.078125 216.929688 27.578125 214.574219 27.445312 212.382812 C 26.714844 202 26.25 190.421875 27.34375 180.003906 "/>
<path style=" stroke:none;fill-rule:nonzero;fill:rgb(22.749329%,22.749329%,22.749329%);fill-opacity:1;" d="M 36.648438 230.167969 C 35.488281 227.046875 34.953125 225.191406 34.386719 223.101562 C 35.285156 222.867188 36.285156 222.601562 37.347656 222.339844 C 37.875 224.695312 38.578125 227.015625 39.472656 229.207031 C 38.476562 229.570312 37.546875 229.871094 36.648438 230.167969 "/>
</g>
</svg>
